<svg width="212" height="212" viewBox="0 0 212 212" fill="none" xmlns="http://www.w3.org/2000/svg">
<path d="M78.1093 37.4731C76.6602 37.5137 75.2817 38.1075 74.2567 39.1325C73.2316 40.1575 72.6379 41.5361 72.5973 42.9851C72.5659 44.2156 72.9398 45.4224 73.6615 46.4195L73.7124 46.4958L77.715 51.9358C77.7947 52.0489 77.901 52.1408 78.0245 52.2035C78.148 52.2661 78.285 52.2975 78.4234 52.295C78.5619 52.2925 78.6976 52.2561 78.8187 52.1891C78.9399 52.122 79.0428 52.0263 79.1184 51.9103L82.7351 46.534C83.4545 45.5352 83.8564 44.3428 83.8884 43.1123C83.8869 42.3603 83.7354 41.6162 83.4426 40.9236C83.1499 40.2309 82.7219 39.6036 82.1837 39.0784C81.6455 38.5532 81.0079 38.1408 80.3083 37.8651C79.6087 37.5895 78.8611 37.4562 78.1093 37.4731ZM78.2407 46.4662C77.6042 46.4662 76.982 46.2774 76.4528 45.9238C75.9236 45.5702 75.5111 45.0676 75.2675 44.4795C75.024 43.8915 74.9602 43.2444 75.0844 42.6202C75.2086 41.9959 75.5151 41.4225 75.9651 40.9724C76.4152 40.5223 76.9886 40.2158 77.6129 40.0917C78.2372 39.9675 78.8842 40.0312 79.4723 40.2748C80.0603 40.5184 80.5629 40.9309 80.9165 41.4601C81.2701 41.9893 81.4589 42.6115 81.4589 43.248C81.4594 43.6708 81.3766 44.0895 81.2151 44.4802C81.0535 44.8709 80.8165 45.2259 80.5175 45.5248C80.2186 45.8238 79.8636 46.0608 79.4729 46.2223C79.0822 46.3839 78.6635 46.4667 78.2407 46.4662Z" fill="#E0E0E0"/>
<path d="M163.749 26.021C164.079 23.6339 160.709 21.6708 158.177 21.4673C156.969 21.3698 155.714 21.5521 154.569 21.1535C152.093 20.3055 151.101 17.0874 148.684 16.0655C146.874 15.3023 144.792 15.9807 143.041 16.8626C141.289 17.7446 139.555 18.8554 137.596 18.9826C135.9 19.0886 134.043 18.4569 132.555 19.2922C131.444 19.9112 130.859 21.1917 129.837 21.9464C128.815 22.7011 127.531 22.841 126.288 22.9089C125.046 22.9767 123.744 22.9894 122.625 23.5067C121.506 24.024 120.56 25.2027 120.793 26.4408L163.749 26.021Z" fill="#EBEBEB"/>
<path d="M89.6761 13.318C89.8499 12.046 88.0564 11.0029 86.7081 10.8927C86.0636 10.8418 85.3979 10.9393 84.7873 10.7273C83.4687 10.2652 82.9429 8.56493 81.654 8.01797C80.6915 7.61517 79.5849 7.97557 78.6521 8.44197C77.7193 8.90837 76.7949 9.50197 75.7519 9.56981C74.8488 9.62493 73.8609 9.28997 73.068 9.73093C72.4786 10.0617 72.1691 10.7443 71.6221 11.1471C71.0557 11.4956 70.4003 11.6723 69.7353 11.6559C69.0709 11.642 68.4096 11.7513 67.7849 11.9781C67.476 12.0985 67.2142 12.3154 67.0385 12.5965C66.8628 12.8777 66.7826 13.208 66.8097 13.5385L89.6761 13.318Z" fill="#F5F5F5"/>
<path d="M49.7268 35.9804C49.9854 34.1021 47.3354 32.5587 45.3469 32.3976C44.3971 32.3213 43.4092 32.4655 42.5103 32.1517C40.5641 31.4733 39.784 28.9547 37.8845 28.1534C36.4641 27.5598 34.8274 28.0898 33.4494 28.7809C32.0714 29.472 30.7061 30.3497 29.167 30.4472C27.8272 30.532 26.3771 30.0232 25.2026 30.6889C24.3292 31.1765 23.8713 32.1856 23.0826 32.775C22.294 33.3643 21.2552 33.4958 20.2757 33.5339C19.2963 33.5721 18.2914 33.5975 17.401 34.0046C16.5106 34.4116 15.7771 35.3529 15.9594 36.3111L49.7268 35.9804Z" fill="#F5F5F5"/>
<path d="M199.573 31.9828C199.573 31.9828 199.327 31.9192 198.89 31.8302C198.273 31.7071 197.639 31.6899 197.016 31.7793C196.095 31.9102 195.227 32.2899 194.506 32.8775C193.626 33.599 193.006 34.5872 192.738 35.6928V35.7268L192.632 36.1508L192.471 35.7564C192.039 34.7056 191.3 33.8099 190.351 33.187C189.576 32.6791 188.684 32.377 187.76 32.3093C186.899 32.2638 186.038 32.3729 185.216 32.6316C185.415 32.5047 185.632 32.4103 185.86 32.3517C186.477 32.1578 187.123 32.076 187.768 32.11C188.734 32.1524 189.672 32.4446 190.491 32.958C191.495 33.5991 192.277 34.535 192.729 35.6377H192.462V35.6038C192.738 34.4319 193.399 33.3867 194.34 32.6358C195.101 32.0277 196.018 31.6483 196.986 31.5419C197.631 31.4645 198.284 31.512 198.911 31.6818C199.147 31.7433 199.371 31.8452 199.573 31.9828Z" fill="#E0E0E0"/>
<path d="M14.1447 68.4507L29.3239 150.855L60.8991 156.579L89.1884 138.377L119.445 145.682L150.821 125.551L135.46 47.3779L104.219 62.9515L77.2698 57.1002L47.929 72.6356L14.1447 68.4507Z" fill="white"/>
<path d="M60.9458 156.804L29.1458 151.038L29.1203 150.894L13.8903 68.2136L47.8908 72.4281L77.2443 56.8885L104.194 62.7525L135.616 47.0645L135.667 47.3358L151.058 125.653L150.936 125.729L119.483 145.907L119.398 145.886L89.2266 138.602L60.9458 156.804ZM29.5062 150.673L60.8567 156.359L89.1503 138.148L89.2351 138.169L119.407 145.454L150.584 125.449L135.32 47.692L104.249 63.1765H104.177L77.2995 57.338L47.9671 72.8691H47.912L14.416 68.6885L29.5062 150.673Z" fill="#E0E0E0"/>
<path d="M17.4053 71.079L31.7407 149.231L60.6872 153.611L88.8959 134.883L118.517 141.934L147.866 124.198L134.043 50.6465L104.72 65.6264L77.2444 60.8691L47.2422 75.5098L33.8226 73.517L17.4053 71.079Z" fill="#EBEBEB"/>
<path d="M39.0759 73.9331L39.1607 103.321L140.31 129.286L135.273 132.61L39.8179 107.802L38.9911 150.329L32.8389 149.397L33.8225 73.5176L39.0759 73.9331Z" fill="#FAFAFA"/>
<path d="M18.9867 78.0713L34.1786 81.4845L33.6529 86.3139L19.5294 82.6547L18.9867 78.0713Z" fill="#FAFAFA"/>
<path d="M22.6289 99.56L33.513 97.1602L33.4409 102.689L23.4175 104.936L22.6289 99.56Z" fill="#FAFAFA"/>
<path d="M26.6399 121.412L33.1907 121.985L33.1525 125.148L27.1572 124.953L26.6399 121.412Z" fill="#FAFAFA"/>
<path d="M38.9911 150.329L47.3778 151.597L49.3155 134.679L62.4849 136.019L63.7442 151.58L69.3156 147.882L69.2011 115.438L39.8179 107.802L38.9911 150.329Z" fill="#E0E0E0"/>
<path d="M72.5634 116.312L72.4023 133.743L72.2878 145.907L69.3155 147.883L69.0103 114.146L72.5634 116.312Z" fill="#FAFAFA"/>
<path d="M86.1823 136.681L72.4023 133.742L72.3641 137.825L81.849 139.559L86.1823 136.681Z" fill="#FAFAFA"/>
<path d="M54.59 71.9236L52.3683 106.713L57.363 107.993L60.1784 69.1973L54.59 71.9236Z" fill="#FAFAFA"/>
<path d="M69.5869 111.131L70.4349 67.6962L73.4411 68.8962L73.2079 84.0075L104.452 93.0557L111.877 63.0407L117.592 59.8438L108.447 93.9885L101.366 120.62C101.366 120.62 97.2402 119.662 97.3844 118.983C97.5285 118.305 103.032 98.5337 103.032 98.5337L72.7245 88.7054L72.1776 113.679L69.5869 111.131Z" fill="#FAFAFA"/>
<path d="M105.551 98.1645L126.547 104.304L136.303 62.6715L134.459 53.4961L123.617 98.7666L106.356 93.4666L105.551 98.1645Z" fill="#FAFAFA"/>
<path d="M93.8821 136.384L97.3801 118.983L101.535 119.976L97.8422 137.58L93.8821 136.384Z" fill="#FAFAFA"/>
<path d="M137.134 93.5342L128.553 135.871L136.146 131.084L143.622 103.028L142.545 95.6923L137.134 93.5342Z" fill="#E0E0E0"/>
<path opacity="0.1" d="M47.2422 75.5099L60.6872 153.611L31.7407 149.231L17.4053 71.0791L47.2422 75.5099Z" fill="black"/>
<path d="M66.4874 66.1183L69.4512 67.3012L142.672 96.553L140.526 85.1516L77.2443 60.8691L66.4874 66.1183Z" fill="#E0E0E0"/>
<path opacity="0.1" d="M77.2444 60.8691L88.8959 134.883L118.517 141.934L104.72 65.6264L77.2444 60.8691Z" fill="black"/>
<path d="M192.114 181.952H151.622L153.904 179.7H193.45L192.114 181.952Z" fill="#E0E0E0"/>
<path d="M195.727 198.076C195.727 198.135 154.599 198.186 103.884 198.186C53.1696 198.186 12.0331 198.135 12.0331 198.076C12.0331 198.017 53.1611 197.966 103.884 197.966C154.607 197.966 195.727 198.008 195.727 198.076Z" fill="#263238"/>
<path d="M205.899 159.237H92.0208V161.875H205.899V159.237Z" fill="#E0E0E0"/>
<path d="M93.1698 161.925C93.1698 161.925 93.1698 161.879 93.1698 161.777C93.1698 161.675 93.1698 161.514 93.1698 161.311C93.1698 160.887 93.1698 160.255 93.1698 159.398V159.36H93.2037C99.9199 159.309 122.065 159.275 148.324 159.275L189.079 159.309L201.425 159.347L204.784 159.373L201.425 159.398L189.079 159.437L148.324 159.475C122.087 159.475 99.9411 159.437 93.2249 159.386L93.2588 159.352C93.2588 160.2 93.2588 160.84 93.2588 161.264C93.2588 161.467 93.2588 161.62 93.2588 161.73C93.2588 161.841 93.1698 161.925 93.1698 161.925Z" fill="#263238"/>
<path d="M106.729 159.424C106.893 160.25 106.893 161.1 106.729 161.925C106.565 161.1 106.565 160.25 106.729 159.424Z" fill="#263238"/>
<path d="M121.663 159.424C121.827 160.25 121.827 161.1 121.663 161.925C121.499 161.1 121.499 160.25 121.663 159.424Z" fill="#263238"/>
<path d="M136.596 159.424C136.76 160.25 136.76 161.1 136.596 161.925C136.432 161.1 136.432 160.25 136.596 159.424Z" fill="#263238"/>
<path d="M151.529 159.424C151.693 160.25 151.693 161.1 151.529 161.925C151.365 161.1 151.365 160.25 151.529 159.424Z" fill="#263238"/>
<path d="M166.462 159.424C166.626 160.25 166.626 161.1 166.462 161.925C166.298 161.1 166.298 160.25 166.462 159.424Z" fill="#263238"/>
<path d="M181.396 159.424C181.56 160.25 181.56 161.1 181.396 161.925C181.232 161.1 181.232 160.25 181.396 159.424Z" fill="#263238"/>
<path d="M196.312 159.424C196.476 160.25 196.476 161.1 196.312 161.925C196.148 161.1 196.148 160.25 196.312 159.424Z" fill="#263238"/>
<path d="M142.265 31.499H112.089V159.11H142.265V31.499Z" fill="#455A64"/>
<path d="M126.848 37.8672H117.677V55.5395H126.848V37.8672Z" fill="white"/>
<path d="M122.536 55.5437C122.468 55.5437 122.413 51.5836 122.413 46.7033C122.413 41.8231 122.468 37.8672 122.536 37.8672C122.604 37.8672 122.655 41.8231 122.655 46.7033C122.655 51.5836 122.591 55.5437 122.536 55.5437Z" fill="#263238"/>
<path d="M126.848 44.0074C125.324 44.1302 123.794 44.1713 122.265 44.1304C120.734 44.1713 119.203 44.1302 117.677 44.0074C119.203 43.8846 120.734 43.8435 122.265 43.8845C123.794 43.8436 125.324 43.8846 126.848 44.0074Z" fill="#263238"/>
<path d="M126.899 50.3287C125.36 50.4514 123.816 50.4924 122.273 50.4516C120.732 50.4925 119.189 50.4514 117.652 50.3287C119.189 50.2059 120.732 50.1649 122.273 50.2057C123.816 50.1649 125.36 50.206 126.899 50.3287Z" fill="#263238"/>
<path d="M126.886 61.1875H117.715V78.8598H126.886V61.1875Z" fill="white"/>
<path d="M122.557 78.8637C122.489 78.8637 122.434 74.9078 122.434 70.0276C122.434 65.1473 122.489 61.1914 122.557 61.1914C122.625 61.1914 122.68 65.1473 122.68 70.0276C122.68 74.9078 122.625 78.8637 122.557 78.8637Z" fill="#263238"/>
<path d="M126.886 67.3267C125.36 67.4494 123.829 67.4905 122.299 67.4497C120.77 67.4906 119.24 67.4495 117.715 67.3267C119.24 67.2039 120.77 67.1629 122.299 67.2038C123.829 67.163 125.36 67.204 126.886 67.3267Z" fill="#263238"/>
<path d="M126.933 73.649C125.396 73.7718 123.853 73.8128 122.311 73.772C120.768 73.8129 119.224 73.7719 117.685 73.649C119.224 73.5262 120.768 73.4851 122.311 73.5261C123.853 73.4852 125.396 73.5263 126.933 73.649Z" fill="#263238"/>
<path d="M126.886 84.3037H117.715V101.976H126.886V84.3037Z" fill="white"/>
<path d="M122.557 101.976C122.489 101.976 122.434 98.0201 122.434 93.1399C122.434 88.2596 122.489 84.3037 122.557 84.3037C122.625 84.3037 122.68 88.2596 122.68 93.1399C122.68 98.0201 122.625 101.976 122.557 101.976Z" fill="#263238"/>
<path d="M126.886 90.4439C125.36 90.5666 123.829 90.6077 122.299 90.5669C120.77 90.6078 119.24 90.5667 117.715 90.4439C119.24 90.3211 120.77 90.2801 122.299 90.321C123.829 90.2802 125.36 90.3212 126.886 90.4439Z" fill="#263238"/>
<path d="M126.933 96.7652C125.396 96.888 123.853 96.9291 122.311 96.8882C120.768 96.9291 119.224 96.8881 117.685 96.7652C119.224 96.6424 120.768 96.6014 122.311 96.6423C123.853 96.6014 125.396 96.6425 126.933 96.7652Z" fill="#263238"/>
<path d="M126.886 108.086H117.715V125.758H126.886V108.086Z" fill="white"/>
<path d="M122.557 125.762C122.489 125.762 122.434 121.807 122.434 116.926C122.434 112.046 122.489 108.086 122.557 108.086C122.625 108.086 122.68 112.042 122.68 116.926C122.68 121.811 122.625 125.762 122.557 125.762Z" fill="#263238"/>
<path d="M126.886 114.226C125.36 114.348 123.829 114.389 122.299 114.349C120.77 114.389 119.24 114.348 117.715 114.226C119.24 114.108 120.77 114.069 122.299 114.107C123.829 114.069 125.36 114.108 126.886 114.226Z" fill="#263238"/>
<path d="M126.933 120.547C125.396 120.67 123.853 120.711 122.311 120.67C120.768 120.711 119.224 120.67 117.685 120.547C119.224 120.425 120.768 120.384 122.311 120.425C123.853 120.384 125.396 120.425 126.933 120.547Z" fill="#263238"/>
<path d="M155.099 31.499H133.111V159.11H155.099V31.499Z" fill="#455A64"/>
<g opacity="0.3">
<path d="M155.099 31.499H133.111V159.11H155.099V31.499Z" fill="black"/>
</g>
<path d="M148.523 37.8672H139.352V55.5395H148.523V37.8672Z" fill="white"/>
<path d="M144.198 55.5437C144.13 55.5437 144.075 51.5836 144.075 46.7033C144.075 41.8231 144.13 37.8672 144.198 37.8672C144.266 37.8672 144.321 41.8231 144.321 46.7033C144.321 51.5836 144.266 55.5437 144.198 55.5437Z" fill="#263238"/>
<path d="M148.523 44.0074C146.999 44.1302 145.469 44.1713 143.94 44.1304C142.409 44.1713 140.878 44.1302 139.352 44.0074C140.878 43.8846 142.409 43.8435 143.94 43.8845C145.469 43.8436 146.999 43.8846 148.523 44.0074Z" fill="#263238"/>
<path d="M148.574 50.3287C147.035 50.4514 145.491 50.4924 143.948 50.4516C142.406 50.4925 140.864 50.4514 139.326 50.3287C140.864 50.2059 142.406 50.1649 143.948 50.2057C145.491 50.1649 147.035 50.206 148.574 50.3287Z" fill="#263238"/>
<path d="M148.561 61.8535H139.39V79.5258H148.561V61.8535Z" fill="white"/>
<path d="M144.232 79.5301C144.164 79.5301 144.109 75.5699 144.109 70.6897C144.109 65.8094 144.164 61.8535 144.232 61.8535C144.3 61.8535 144.355 65.8094 144.355 70.6897C144.355 75.5699 144.3 79.5301 144.232 79.5301Z" fill="#263238"/>
<path d="M148.561 67.9928C147.035 68.1155 145.504 68.1565 143.973 68.1157C142.445 68.1566 140.915 68.1156 139.39 67.9928C140.915 67.87 142.445 67.8289 143.973 67.8698C145.504 67.829 147.035 67.8701 148.561 67.9928Z" fill="#263238"/>
<path d="M148.608 74.3141C147.071 74.4368 145.528 74.4779 143.986 74.437C142.443 74.4779 140.899 74.4369 139.36 74.3141C140.899 74.1912 142.443 74.1502 143.986 74.1911C145.528 74.1502 147.071 74.1913 148.608 74.3141Z" fill="#263238"/>
<path d="M148.561 84.3037H139.39V101.976H148.561V84.3037Z" fill="white"/>
<path d="M144.232 101.976C144.164 101.976 144.109 98.0201 144.109 93.1399C144.109 88.2596 144.164 84.3037 144.232 84.3037C144.3 84.3037 144.355 88.2596 144.355 93.1399C144.355 98.0201 144.3 101.976 144.232 101.976Z" fill="#263238"/>
<path d="M148.561 90.4439C147.035 90.5666 145.504 90.6077 143.973 90.5669C142.445 90.6078 140.915 90.5667 139.39 90.4439C140.915 90.3211 142.445 90.2801 143.973 90.321C145.504 90.2802 147.035 90.3212 148.561 90.4439Z" fill="#263238"/>
<path d="M148.608 96.7652C147.071 96.888 145.528 96.9291 143.986 96.8882C142.443 96.9291 140.899 96.8881 139.36 96.7652C140.899 96.6424 142.443 96.6014 143.986 96.6423C145.528 96.6014 147.071 96.6425 148.608 96.7652Z" fill="#263238"/>
<path d="M148.934 108.472H139.763V126.144H148.934V108.472Z" fill="white"/>
<path d="M144.605 126.144C144.537 126.144 144.486 122.188 144.486 117.308C144.486 112.428 144.537 108.472 144.605 108.472C144.673 108.472 144.728 112.428 144.728 117.308C144.728 122.188 144.673 126.144 144.605 126.144Z" fill="#263238"/>
<path d="M148.934 114.612C147.41 114.735 145.88 114.776 144.351 114.735C142.821 114.776 141.289 114.735 139.763 114.612C141.289 114.489 142.821 114.448 144.351 114.489C145.88 114.448 147.41 114.489 148.934 114.612Z" fill="#263238"/>
<path d="M148.981 120.933C147.444 121.056 145.901 121.097 144.359 121.056C142.818 121.097 141.275 121.056 139.738 120.933C141.275 120.81 142.818 120.769 144.359 120.81C145.901 120.769 147.444 120.81 148.981 120.933Z" fill="#263238"/>
<path d="M126.886 132.433H117.715V150.105H126.886V132.433Z" fill="white"/>
<path d="M122.557 150.096C122.489 150.096 122.434 146.136 122.434 141.256C122.434 136.376 122.489 132.42 122.557 132.42C122.625 132.42 122.68 136.376 122.68 141.256C122.68 146.136 122.625 150.096 122.557 150.096Z" fill="#263238"/>
<path d="M126.886 138.572C125.36 138.695 123.829 138.736 122.299 138.695C120.77 138.736 119.24 138.695 117.715 138.572C119.24 138.449 120.77 138.408 122.299 138.449C123.829 138.408 125.36 138.449 126.886 138.572Z" fill="#263238"/>
<path d="M126.933 144.893C125.396 145.016 123.853 145.057 122.311 145.016C120.768 145.057 119.224 145.016 117.685 144.893C119.224 144.77 120.768 144.729 122.311 144.77C123.853 144.729 125.396 144.77 126.933 144.893Z" fill="#263238"/>
<path d="M148.561 133.191H139.39V150.864H148.561V133.191Z" fill="white"/>
<path d="M144.232 150.864C144.164 150.864 144.109 146.908 144.109 142.028C144.109 137.147 144.164 133.191 144.232 133.191C144.3 133.191 144.355 137.147 144.355 142.028C144.355 146.908 144.3 150.864 144.232 150.864Z" fill="#263238"/>
<path d="M148.561 139.331C147.035 139.453 145.504 139.494 143.973 139.454C142.445 139.494 140.915 139.453 139.39 139.331C140.915 139.208 142.445 139.167 143.973 139.208C145.504 139.167 147.035 139.208 148.561 139.331Z" fill="#263238"/>
<path d="M148.608 145.653C147.071 145.776 145.528 145.817 143.986 145.776C142.443 145.817 140.899 145.776 139.36 145.653C140.899 145.53 142.443 145.489 143.986 145.53C145.528 145.489 147.071 145.53 148.608 145.653Z" fill="#263238"/>
<path d="M170.117 102.303H180.811V86.8479H170.117V102.303Z" fill="#00A63E"/>
<g opacity="0.3">
<path d="M170.117 102.303H180.811V86.8479H170.117V102.303Z" fill="black"/>
</g>
<path d="M160.497 102.303H171.19V86.8479H160.497V102.303Z" fill="#00A63E"/>
<path d="M163.049 99.1826C163.049 99.1826 163.049 99.1317 163.049 99.0257C163.049 98.9197 163.049 98.7459 163.049 98.5508C163.049 98.1268 163.049 97.5035 163.049 96.7361C163.049 95.1631 163.028 92.954 163.011 90.3761V90.3125H167.904L167.98 90.3931V92.8565C167.98 93.6579 167.98 94.4295 167.98 95.1758C167.98 96.6598 167.98 98.0166 167.98 99.1911V99.2504H167.904L164.338 99.2207H163.376H163.13C163.075 99.2207 163.049 99.2207 163.049 99.2207H163.143H163.401H164.376L167.904 99.1911L167.845 99.2462C167.845 98.0717 167.845 96.7022 167.845 95.2309C167.845 94.4847 167.845 93.713 167.845 92.9116V90.4482C167.777 90.3761 167.938 90.5372 167.921 90.5203H163.049L163.121 90.4482C163.121 92.9922 163.096 95.197 163.087 96.7615C163.087 97.5332 163.087 98.1523 163.066 98.589C163.066 98.7925 163.066 98.9579 163.066 99.0808C163.063 99.1151 163.057 99.1491 163.049 99.1826Z" fill="#263238"/>
<path d="M164.02 95.256C164.02 95.256 164.139 95.256 164.198 95.379C164.216 95.4209 164.222 95.4664 164.218 95.5115C164.214 95.5566 164.198 95.5999 164.173 95.6376C164.135 95.6824 164.085 95.7146 164.028 95.73C163.972 95.7455 163.912 95.7434 163.857 95.7241C163.802 95.7048 163.754 95.6691 163.719 95.6219C163.685 95.5746 163.666 95.518 163.664 95.4595C163.669 95.414 163.684 95.3702 163.709 95.3319C163.735 95.2935 163.768 95.2617 163.808 95.2391C163.944 95.167 164.037 95.2391 164.02 95.2391C164.003 95.2391 163.94 95.2391 163.868 95.3111C163.846 95.3263 163.828 95.3473 163.818 95.3719C163.808 95.3965 163.805 95.4235 163.809 95.4497C163.813 95.476 163.825 95.5005 163.843 95.5203C163.861 95.54 163.884 95.5543 163.91 95.5613C164.041 95.6122 164.114 95.4935 164.092 95.3917C164.071 95.2899 164.016 95.2772 164.02 95.256Z" fill="#263238"/>
<path d="M149.6 159.208H193.946V99.4367H149.6V159.208Z" fill="#00A63E"/>
<path d="M176.189 159.207L199.975 159.237V99.4404H176.189V159.207Z" fill="#00A63E"/>
<g opacity="0.3">
<path d="M176.189 159.207L199.975 159.237V99.4404H176.189V159.207Z" fill="black"/>
</g>
<path d="M152.856 139.979H160.967V131.868H152.856V139.979Z" fill="#EBEBEB"/>
<path d="M156.6 140.794C156.558 140.794 156.524 138.695 156.524 136.13C156.524 133.565 156.558 131.466 156.6 131.466C156.643 131.466 156.677 133.56 156.677 136.13C156.677 138.699 156.643 140.794 156.6 140.794Z" fill="#455A64"/>
<path d="M151.334 134.586C151.334 134.544 153.692 134.51 156.6 134.51C159.509 134.51 161.87 134.544 161.87 134.586C161.87 134.628 159.513 134.662 156.6 134.662C153.687 134.662 151.334 134.628 151.334 134.586Z" fill="#455A64"/>
<path d="M164.427 139.979H172.538V131.868H164.427V139.979Z" fill="#EBEBEB"/>
<path d="M168.171 140.794C168.129 140.794 168.091 138.695 168.091 136.13C168.091 133.565 168.129 131.466 168.171 131.466C168.214 131.466 168.247 133.56 168.247 136.13C168.247 138.699 168.214 140.794 168.171 140.794Z" fill="#455A64"/>
<path d="M162.901 134.586C162.901 134.544 165.258 134.51 168.167 134.51C171.076 134.51 173.437 134.544 173.437 134.586C173.437 134.628 171.08 134.662 168.167 134.662C165.254 134.662 162.901 134.628 162.901 134.586Z" fill="#455A64"/>
<path d="M152.856 127.166H160.967V119.055H152.856V127.166Z" fill="#EBEBEB"/>
<path d="M156.6 127.98C156.558 127.98 156.524 125.882 156.524 123.316C156.524 120.751 156.558 118.652 156.6 118.652C156.643 118.652 156.677 120.747 156.677 123.316C156.677 125.886 156.643 127.98 156.6 127.98Z" fill="#455A64"/>
<path d="M151.334 121.773C151.334 121.73 153.692 121.696 156.6 121.696C159.509 121.696 161.87 121.73 161.87 121.773C161.87 121.815 159.513 121.849 156.6 121.849C153.687 121.849 151.334 121.815 151.334 121.773Z" fill="#455A64"/>
<path d="M164.427 127.166H172.538V119.055H164.427V127.166Z" fill="#EBEBEB"/>
<path d="M168.171 127.98C168.129 127.98 168.091 125.882 168.091 123.316C168.091 120.751 168.129 118.652 168.171 118.652C168.214 118.652 168.247 120.747 168.247 123.316C168.247 125.886 168.214 127.98 168.171 127.98Z" fill="#455A64"/>
<path d="M162.901 121.773C162.901 121.73 165.258 121.696 168.167 121.696C171.076 121.696 173.437 121.73 173.437 121.773C173.437 121.815 171.08 121.849 168.167 121.849C165.254 121.849 162.901 121.815 162.901 121.773Z" fill="#455A64"/>
<path d="M152.856 114.319H160.967V106.208H152.856V114.319Z" fill="#EBEBEB"/>
<path d="M156.6 115.138C156.558 115.138 156.524 113.039 156.524 110.474C156.524 107.908 156.558 105.81 156.6 105.81C156.643 105.81 156.677 107.904 156.677 110.474C156.677 113.043 156.643 115.138 156.6 115.138Z" fill="#455A64"/>
<path d="M151.334 108.93C151.334 108.887 153.692 108.854 156.6 108.854C159.509 108.854 161.87 108.887 161.87 108.93C161.87 108.972 159.513 109.006 156.6 109.006C153.687 109.006 151.334 108.968 151.334 108.93Z" fill="#455A64"/>
<path d="M164.427 114.319H172.538V106.208H164.427V114.319Z" fill="#EBEBEB"/>
<path d="M168.171 115.138C168.129 115.138 168.091 113.039 168.091 110.474C168.091 107.908 168.129 105.81 168.171 105.81C168.214 105.81 168.247 107.904 168.247 110.474C168.247 113.043 168.214 115.138 168.171 115.138Z" fill="#455A64"/>
<path d="M162.901 108.93C162.901 108.887 165.258 108.854 168.167 108.854C171.076 108.854 173.437 108.887 173.437 108.93C173.437 108.972 171.08 109.006 168.167 109.006C165.254 109.006 162.901 108.968 162.901 108.93Z" fill="#455A64"/>
<g opacity="0.7">
<path d="M184.334 114.319H192.445V106.208H184.334V114.319Z" fill="white"/>
</g>
<path d="M188.392 115.138C188.349 115.138 188.315 113.039 188.315 110.474C188.315 107.908 188.349 105.81 188.392 105.81C188.434 105.81 188.468 107.904 188.468 110.474C188.468 113.043 188.434 115.138 188.392 115.138Z" fill="#263238"/>
<path d="M182.812 108.93C182.812 108.887 185.174 108.854 188.082 108.854C190.991 108.854 193.348 108.887 193.348 108.93C193.348 108.972 190.991 109.006 188.082 109.006C185.174 109.006 182.812 108.968 182.812 108.93Z" fill="#263238"/>
<g opacity="0.7">
<path d="M184.334 127.289H192.445V119.178H184.334V127.289Z" fill="white"/>
</g>
<path d="M188.392 128.107C188.349 128.107 188.315 126.008 188.315 123.443C188.315 120.878 188.349 118.779 188.392 118.779C188.434 118.779 188.468 120.874 188.468 123.443C188.468 126.013 188.434 128.107 188.392 128.107Z" fill="#263238"/>
<path d="M182.812 121.901C182.812 121.858 185.174 121.824 188.082 121.824C190.991 121.824 193.348 121.858 193.348 121.901C193.348 121.943 190.991 121.977 188.082 121.977C185.174 121.977 182.812 121.943 182.812 121.901Z" fill="#263238"/>
<g opacity="0.7">
<path d="M184.334 140.264H192.445V132.153H184.334V140.264Z" fill="white"/>
</g>
<path d="M188.392 141.073C188.349 141.073 188.315 138.979 188.315 136.409C188.315 133.84 188.349 131.745 188.392 131.745C188.434 131.745 188.468 133.844 188.468 136.409C188.468 138.974 188.434 141.073 188.392 141.073Z" fill="#263238"/>
<path d="M182.812 134.87C182.812 134.828 185.174 134.794 188.082 134.794C190.991 134.794 193.348 134.828 193.348 134.87C193.348 134.913 190.991 134.947 188.082 134.947C185.174 134.947 182.812 134.913 182.812 134.87Z" fill="#263238"/>
<path d="M158.784 158.941C158.784 158.941 158.784 158.915 158.784 158.868C158.784 158.822 158.784 158.741 158.784 158.652C158.784 158.452 158.784 158.176 158.784 157.825C158.784 157.092 158.784 156.045 158.763 154.739C158.763 152.097 158.763 148.417 158.733 144.198V144.126H167.213V144.198C167.213 148.438 167.213 152.165 167.187 154.832C167.187 156.151 167.187 157.211 167.187 157.948C167.187 158.309 167.187 158.584 167.187 158.796C167.187 158.885 167.187 158.957 167.187 159.013C167.187 159.068 167.187 159.085 167.187 159.085C167.186 159.061 167.186 159.037 167.187 159.013C167.187 158.957 167.187 158.885 167.187 158.796C167.187 158.593 167.187 158.317 167.187 157.948C167.187 157.211 167.187 156.151 167.187 154.832C167.187 152.165 167.187 148.451 167.162 144.198L167.234 144.274H158.924L159 144.198C159 148.438 158.979 152.097 158.97 154.739C158.97 156.045 158.97 157.092 158.949 157.825C158.949 158.179 158.949 158.454 158.949 158.652C158.949 158.741 158.949 158.813 158.949 158.868C158.949 158.924 158.784 158.941 158.784 158.941Z" fill="#263238"/>
<path d="M163.219 151.855H166.051V145.076H163.219V151.855Z" fill="#E0E0E0"/>
<path d="M166.06 151.864H163.21V145.08H166.06V151.864ZM163.223 151.864H166.043V145.08H163.24L163.223 151.864Z" fill="#263238"/>
<path d="M159.831 151.855H162.663V145.076H159.831V151.855Z" fill="#E0E0E0"/>
<path d="M162.672 151.864H159.823V145.08H162.672V151.864ZM159.835 151.864H162.655V145.08H159.848L159.835 151.864Z" fill="#263238"/>
<path d="M159.772 152.56C159.772 152.581 159.632 152.581 159.568 152.742C159.549 152.785 159.539 152.831 159.539 152.878C159.539 152.924 159.549 152.97 159.568 153.013C159.595 153.06 159.635 153.098 159.683 153.122C159.732 153.146 159.786 153.155 159.84 153.149C159.892 153.134 159.939 153.105 159.975 153.064C160.011 153.024 160.035 152.974 160.043 152.92C160.051 152.874 160.046 152.827 160.03 152.784C160.014 152.741 159.986 152.703 159.95 152.674C159.814 152.564 159.687 152.589 159.683 152.568C159.678 152.547 159.814 152.466 160.013 152.589C160.072 152.625 160.119 152.677 160.149 152.738C160.179 152.8 160.191 152.869 160.183 152.937C160.183 153.029 160.15 153.119 160.091 153.189C160.031 153.26 159.948 153.307 159.857 153.322C159.766 153.337 159.673 153.32 159.593 153.272C159.514 153.225 159.454 153.151 159.424 153.064C159.398 153.002 159.387 152.935 159.392 152.868C159.397 152.8 159.418 152.736 159.454 152.678C159.475 152.639 159.505 152.605 159.541 152.579C159.577 152.553 159.618 152.534 159.661 152.526C159.742 152.534 159.772 152.547 159.772 152.56Z" fill="#263238"/>
<path d="M151.054 144.198C151.052 144.167 151.052 144.136 151.054 144.105C151.054 144.024 151.054 143.931 151.054 143.82C151.054 143.541 151.054 143.18 151.054 142.739H151.076H155.807L155.837 142.769V144.244H155.807H152.415H151.427H152.424H155.816L155.786 144.274V142.828C155.846 142.892 155.786 142.828 155.816 142.862H151.084V142.841C151.084 143.265 151.084 143.634 151.084 143.91C151.084 144.02 151.084 144.117 151.084 144.198C151.084 144.278 151.054 144.198 151.054 144.198Z" fill="#263238"/>
<path d="M169.464 141.192C169.463 141.159 169.463 141.127 169.464 141.094C169.464 141.014 169.464 140.921 169.464 140.81C169.464 140.535 169.464 140.174 169.464 139.733V139.712H169.486H174.217C174.217 139.712 174.188 139.678 174.247 139.742V141.226H174.217H170.825H169.837H170.83H174.222L174.192 141.26V139.805L174.222 139.835H169.49C169.49 140.259 169.49 140.628 169.49 140.899C169.49 141.014 169.49 141.107 169.49 141.188C169.49 141.268 169.464 141.192 169.464 141.192Z" fill="#263238"/>
<path d="M172.415 129.32C172.415 129.32 172.415 129.29 172.415 129.227V128.943C172.415 128.667 172.415 128.307 172.415 127.861H177.147L177.181 127.891V129.367H177.151H173.759H172.772H173.764H177.156L177.126 129.396C177.126 129.167 177.126 128.926 177.126 128.684V127.95C177.19 128.014 177.126 127.95 177.156 127.984H172.424L172.445 127.963C172.445 128.387 172.445 128.76 172.445 129.032V129.32C172.435 129.32 172.425 129.32 172.415 129.32Z" fill="#263238"/>
<path d="M155.4 116.557V116.46C155.4 116.379 155.4 116.286 155.4 116.176C155.4 115.9 155.4 115.54 155.4 115.099H160.136L160.166 115.128V116.6H160.136H156.744H155.756H156.749H160.141L160.111 116.634C160.111 116.4 160.111 116.163 160.111 115.917V115.179L160.145 115.209H155.409H155.43C155.43 115.633 155.43 116.002 155.43 116.273V116.561C155.404 116.519 155.4 116.557 155.4 116.557Z" fill="#263238"/>
<path d="M168.871 102.93C168.869 102.899 168.869 102.868 168.871 102.837C168.871 102.756 168.871 102.663 168.871 102.553C168.871 102.27 168.871 101.91 168.871 101.472H173.603L173.632 101.501V102.977H173.603H170.211H169.223H170.215H173.607L173.577 103.007V101.561C173.636 101.624 173.577 101.561 173.607 101.595H168.875V101.573C168.875 101.997 168.875 102.371 168.875 102.642C168.875 102.752 168.875 102.85 168.875 102.93C168.875 103.011 168.871 102.93 168.871 102.93Z" fill="#263238"/>
<path d="M152.534 117.965C152.532 117.934 152.532 117.903 152.534 117.872V117.587C152.534 117.312 152.534 116.952 152.534 116.511V116.489H152.555H157.287C157.287 116.489 157.257 116.46 157.321 116.523V117.257C157.321 117.503 157.321 117.74 157.321 117.969V117.999H157.291H153.899H152.916H153.908H157.3L157.27 118.028V116.583L157.3 116.612H152.568H152.589C152.589 117.036 152.589 117.405 152.589 117.677C152.589 117.791 152.589 117.884 152.589 117.965C152.571 117.965 152.552 117.965 152.534 117.965Z" fill="#263238"/>
<path d="M174.446 130.749C174.446 130.749 174.446 130.719 174.446 130.655C174.446 130.592 174.446 130.481 174.446 130.371C174.446 130.091 174.446 129.731 174.446 129.29H179.178L179.212 129.32V130.053C179.212 130.295 179.212 130.532 179.212 130.766V130.795H179.182H175.79H174.807H175.799H179.191L179.161 130.825V129.32L179.191 129.349H174.459L174.48 129.328C174.48 129.764 174.48 130.12 174.48 130.397C174.48 130.507 174.48 130.6 174.48 130.685C174.48 130.77 174.446 130.749 174.446 130.749Z" fill="#263238"/>
<path d="M172.415 104.389C172.415 104.389 172.415 104.36 172.415 104.296V104.012C172.415 103.732 172.415 103.372 172.415 102.931H177.147L177.181 102.96V104.436H177.151H173.759H172.772H173.764H177.156L177.126 104.466C177.126 104.232 177.126 103.995 177.126 103.753V103.02L177.156 103.049H172.424L172.445 103.028C172.445 103.466 172.445 103.822 172.445 104.097V104.304C172.42 104.351 172.415 104.389 172.415 104.389Z" fill="#263238"/>
<path d="M149.519 145.657C149.517 145.626 149.517 145.595 149.519 145.564C149.519 145.483 149.519 145.39 149.519 145.279C149.519 145.004 149.519 144.643 149.519 144.198H149.541H154.272L154.302 144.228V145.703H154.272H150.88H149.893H150.889H154.281L154.251 145.733V145.021C154.251 144.898 154.251 144.775 154.251 144.652V144.287L154.285 144.321H149.553V144.3C149.553 144.724 149.553 145.097 149.553 145.368C149.553 145.479 149.553 145.576 149.553 145.657H149.519Z" fill="#263238"/>
<path d="M169.952 59.3628C168.366 59.3982 166.82 59.8666 165.481 60.7173C164.141 61.568 163.06 62.7686 162.354 64.1893C161.648 65.6101 161.344 67.1968 161.475 68.7779C161.606 70.359 162.166 71.8743 163.096 73.1598L163.181 73.2743L169.35 81.6398C169.476 81.8104 169.641 81.9484 169.831 82.0419C170.021 82.1355 170.231 82.1819 170.443 82.1773C170.655 82.1728 170.863 82.1173 171.049 82.0156C171.235 81.914 171.394 81.7691 171.512 81.5932L177.084 73.3124C178.135 71.7055 178.86 70.0264 178.86 68.0464C178.858 66.8875 178.625 65.7408 178.174 64.6734C177.723 63.606 177.063 62.6395 176.233 61.8306C175.403 61.0217 174.42 60.3867 173.341 59.963C172.263 59.5392 171.111 59.3352 169.952 59.3628ZM170.16 74.3894C168.866 74.3894 167.601 74.0057 166.525 73.2868C165.449 72.5679 164.611 71.5462 164.115 70.3507C163.62 69.1553 163.491 67.8398 163.743 66.5707C163.996 65.3016 164.619 64.1359 165.534 63.221C166.449 62.306 167.614 61.6829 168.883 61.4305C170.153 61.178 171.468 61.3076 172.663 61.8028C173.859 62.2979 174.881 63.1365 175.6 64.2124C176.318 65.2882 176.702 66.5531 176.702 67.8471C176.702 69.5822 176.013 71.2463 174.786 72.4732C173.559 73.7001 171.895 74.3894 170.16 74.3894Z" fill="#00A63E"/>
<g opacity="0.3">
<path d="M169.952 59.3628C168.366 59.3982 166.82 59.8666 165.481 60.7173C164.141 61.568 163.06 62.7686 162.354 64.1893C161.648 65.6101 161.344 67.1968 161.475 68.7779C161.606 70.359 162.166 71.8743 163.096 73.1598L163.181 73.2743L169.35 81.6398C169.476 81.8104 169.641 81.9484 169.831 82.0419C170.021 82.1355 170.231 82.1819 170.443 82.1773C170.655 82.1728 170.863 82.1173 171.049 82.0156C171.235 81.914 171.394 81.7691 171.512 81.5932L177.084 73.3124C178.135 71.7055 178.86 70.0264 178.86 68.0464C178.858 66.8875 178.625 65.7408 178.174 64.6734C177.723 63.606 177.063 62.6395 176.233 61.8306C175.403 61.0217 174.42 60.3867 173.341 59.963C172.263 59.5392 171.111 59.3352 169.952 59.3628ZM170.16 74.3894C168.866 74.3894 167.601 74.0057 166.525 73.2868C165.449 72.5679 164.611 71.5462 164.115 70.3507C163.62 69.1553 163.491 67.8398 163.743 66.5707C163.996 65.3016 164.619 64.1359 165.534 63.221C166.449 62.306 167.614 61.6829 168.883 61.4305C170.153 61.178 171.468 61.3076 172.663 61.8028C173.859 62.2979 174.881 63.1365 175.6 64.2124C176.318 65.2882 176.702 66.5531 176.702 67.8471C176.702 69.5822 176.013 71.2463 174.786 72.4732C173.559 73.7001 171.895 74.3894 170.16 74.3894Z" fill="black"/>
</g>
<path d="M169.435 59.3628C167.849 59.3982 166.302 59.8666 164.963 60.7173C163.624 61.568 162.543 62.7686 161.837 64.1893C161.131 65.6101 160.827 67.1968 160.958 68.7779C161.088 70.359 161.649 71.8743 162.579 73.1598L162.663 73.2743L168.833 81.6398C168.959 81.8105 169.124 81.9483 169.315 82.0419C169.505 82.1354 169.716 82.1818 169.928 82.1772C170.14 82.1727 170.348 82.1172 170.535 82.0156C170.721 81.914 170.88 81.7691 170.999 81.5932L176.566 73.3124C177.622 71.7055 178.343 70.0264 178.343 68.0464C178.341 66.8875 178.108 65.7408 177.656 64.6734C177.205 63.606 176.545 62.6395 175.716 61.8306C174.886 61.0217 173.903 60.3867 172.824 59.963C171.746 59.5392 170.593 59.3352 169.435 59.3628ZM169.642 73.2107C168.662 73.2115 167.703 72.9215 166.888 72.3774C166.072 71.8333 165.436 71.0595 165.06 70.1538C164.684 69.2482 164.586 68.2515 164.776 67.2897C164.967 66.328 165.439 65.4444 166.132 64.7508C166.825 64.0572 167.708 63.5847 168.67 63.3931C169.631 63.2015 170.628 63.2994 171.534 63.6744C172.44 64.0495 173.214 64.6848 173.759 65.5C174.304 66.3152 174.595 67.2736 174.595 68.2541C174.595 69.5679 174.073 70.828 173.145 71.7574C172.216 72.6868 170.956 73.2096 169.642 73.2107Z" fill="#00A63E"/>
<path d="M45.2111 183.07H3.9093L6.23282 180.776H46.5679L45.2111 183.07Z" fill="#E0E0E0"/>
<path d="M79.9028 134.671C80.1624 134.545 80.4094 134.394 80.6406 134.221C81.0858 133.924 81.6921 133.509 82.3366 133.038L82.6716 132.801L82.5486 132.771C82.9048 133.394 83.2228 133.941 83.4602 134.327C83.5787 134.544 83.7209 134.748 83.8842 134.934C83.8079 134.701 83.7039 134.479 83.5747 134.272C83.3669 133.869 83.0616 133.31 82.7267 132.686L82.6758 132.602L82.5995 132.657L82.2603 132.894C81.5988 133.365 80.9883 133.797 80.5643 134.119C80.3245 134.279 80.1028 134.464 79.9028 134.671Z" fill="#263238"/>
<path d="M128.75 181.525C129.286 173.865 123.512 167.221 115.852 166.685C108.192 166.149 101.548 171.923 101.012 179.583C100.476 187.243 106.251 193.887 113.91 194.423C121.57 194.959 128.214 189.184 128.75 181.525Z" fill="#263238"/>
<path d="M100.412 180.297V180.335C100.396 183.989 101.822 187.502 104.382 190.111C106.942 192.719 110.427 194.211 114.081 194.264C117.735 194.316 121.262 192.925 123.896 190.391C126.53 187.857 128.057 184.387 128.146 180.734C128.146 180.734 128.146 180.708 128.146 180.7L100.412 180.297Z" fill="#263238"/>
<path d="M104.541 180.395C104.511 182.325 105.053 184.22 106.1 185.842C107.147 187.463 108.652 188.737 110.424 189.503C112.196 190.268 114.155 190.491 116.053 190.143C117.952 189.794 119.704 188.89 121.088 187.545C122.472 186.2 123.426 184.474 123.829 182.587C124.232 180.699 124.066 178.734 123.352 176.941C122.637 175.148 121.407 173.608 119.816 172.514C118.226 171.421 116.346 170.824 114.416 170.8C111.836 170.767 109.347 171.758 107.496 173.557C105.645 175.355 104.583 177.814 104.541 180.395Z" fill="#FAFAFA"/>
<path d="M114.416 170.8C111.836 170.767 109.347 171.758 107.496 173.557C105.645 175.355 104.583 177.814 104.542 180.395L124.012 180.675C124.044 178.094 123.053 175.605 121.254 173.754C119.456 171.903 116.997 170.841 114.416 170.8Z" fill="#E0E0E0"/>
<path d="M108.345 180.45C108.327 181.624 108.658 182.777 109.296 183.763C109.934 184.749 110.85 185.524 111.929 185.989C113.007 186.454 114.199 186.589 115.354 186.377C116.509 186.164 117.575 185.614 118.417 184.796C119.259 183.977 119.84 182.927 120.085 181.779C120.33 180.63 120.23 179.435 119.796 178.344C119.361 177.253 118.613 176.315 117.646 175.649C116.679 174.983 115.536 174.619 114.361 174.603C112.788 174.582 111.271 175.185 110.143 176.282C109.015 177.378 108.368 178.877 108.345 180.45Z" fill="#263238"/>
<path d="M107.696 160.2C107.696 160.2 121.896 155.905 127.772 171.33L98.0585 180.535L107.696 160.2Z" fill="#455A64"/>
<path d="M14.84 180.335C14.8009 183.078 15.576 185.771 17.0673 188.073C18.5586 190.376 20.6992 192.184 23.2183 193.27C25.7373 194.355 28.5218 194.67 31.2195 194.173C33.9173 193.676 36.4071 192.39 38.3741 190.478C40.3412 188.567 41.6971 186.114 42.2704 183.432C42.8437 180.749 42.6087 177.957 41.595 175.408C40.5813 172.859 38.8346 170.668 36.5756 169.112C34.3166 167.556 31.6469 166.704 28.9041 166.666C27.083 166.639 25.2745 166.972 23.5819 167.645C21.8894 168.317 20.346 169.317 19.04 170.587C17.7339 171.856 16.6907 173.37 15.9701 175.043C15.2495 176.716 14.8655 178.514 14.84 180.335Z" fill="#263238"/>
<path d="M14.84 180.297V180.335C14.8239 183.989 16.2507 187.502 18.8103 190.111C21.37 192.719 24.8556 194.211 28.5096 194.264C32.1636 194.316 35.6906 192.925 38.3242 190.391C40.9577 187.857 42.4849 184.387 42.5738 180.734C42.5738 180.734 42.5738 180.708 42.5738 180.7L14.84 180.297Z" fill="#263238"/>
<path d="M18.9698 180.395C18.9388 182.325 19.4816 184.221 20.5293 185.843C21.577 187.465 23.0825 188.739 24.855 189.504C26.6275 190.269 28.5873 190.491 30.4861 190.142C32.3848 189.792 34.1371 188.887 35.5209 187.541C36.9047 186.194 37.8577 184.467 38.2593 182.579C38.6608 180.691 38.4928 178.725 37.7764 176.933C37.0601 175.14 35.8277 173.6 34.2354 172.508C32.6431 171.416 30.7625 170.822 28.832 170.799C26.2535 170.77 23.7683 171.763 21.9201 173.561C20.0719 175.359 19.0111 177.816 18.9698 180.395Z" fill="#FAFAFA"/>
<path d="M28.832 170.8C26.2513 170.767 23.7629 171.758 21.9119 173.557C20.0609 175.355 18.9983 177.814 18.957 180.395L38.4271 180.675C38.46 178.094 37.4685 175.605 35.67 173.754C33.8715 171.903 31.4125 170.841 28.832 170.8Z" fill="#E0E0E0"/>
<path d="M22.7731 180.45C22.7556 181.624 23.0868 182.777 23.7247 183.763C24.3627 184.749 25.2788 185.524 26.357 185.989C27.4353 186.454 28.6273 186.589 29.7823 186.377C30.9372 186.164 32.0033 185.614 32.8454 184.796C33.6876 183.977 34.2681 182.927 34.5134 181.779C34.7588 180.63 34.658 179.435 34.2239 178.344C33.7897 177.253 33.0416 176.315 32.0743 175.649C31.107 174.983 29.9639 174.619 28.7897 174.603C27.2168 174.582 25.6996 175.185 24.5715 176.282C23.4434 177.378 22.7966 178.877 22.7731 180.45Z" fill="#263238"/>
<path d="M48.4336 174.968C48.3361 175.006 41.1281 173.84 41.1281 173.84C40.7378 174.35 40.2407 174.769 39.6717 175.067C39.1026 175.365 38.4753 175.535 37.8336 175.566C34.7172 175.714 31.6644 175.854 29.0229 175.99C27.8448 176.043 26.7359 176.561 25.9377 177.429C25.1395 178.297 24.7168 179.445 24.7617 180.624C24.8096 181.747 25.2778 182.811 26.0734 183.605C26.8689 184.399 27.9337 184.865 29.0568 184.91L44.4141 185.513C46.9581 185.614 50.2992 184.079 51.8765 182.121L48.4336 174.968Z" fill="#455A64"/>
<path d="M10.7018 168.827C10.7018 168.827 10.0404 155.315 22.7434 152.495V150.765H67.238V154.895C67.238 154.895 60.7084 162.76 62.8411 169.29C64.9738 175.819 65.6395 176.498 65.6395 176.498H90.965C92.9616 173.687 94.0747 170.345 94.162 166.898C94.2976 161.17 91.9148 151.367 90.1382 145.105C88.5228 139.406 87.5009 134.645 87.5009 134.645L95.0948 132.101C95.0948 132.101 109.155 150.481 109.727 151.516C110.299 152.55 112.271 154.958 111.796 160.241C111.321 165.525 98.703 181.832 95.3746 183.672C92.0462 185.512 89.04 185.626 86.072 186.089C83.4772 186.487 64.3081 186.22 59.2922 186.144C57.5487 186.134 55.8392 185.66 54.3399 184.77C52.8389 183.863 51.7111 182.357 50.4688 179.885L47.8272 174.717L10.7018 168.827Z" fill="#455A64"/>
<path d="M14.1065 167.903L8.50124 176.667C8.34066 176.912 8.26309 177.202 8.27998 177.495C8.29688 177.787 8.40734 178.066 8.59506 178.291C8.78278 178.516 9.03781 178.674 9.3225 178.743C9.60718 178.812 9.90642 178.787 10.176 178.673C10.8733 178.365 11.5095 177.934 12.0544 177.401C14.6196 174.959 19.1903 168.535 19.1903 168.535L14.1065 167.903Z" fill="#455A64"/>
<path d="M54.2975 169.468C54.3038 169.425 54.3137 169.382 54.3272 169.341C54.3555 169.253 54.3936 169.13 54.4417 168.972C54.5765 168.498 54.6744 168.015 54.7342 167.526C54.9295 165.715 54.6367 163.886 53.8862 162.226C53.3765 161.083 52.6785 160.034 51.8214 159.122C50.8346 158.083 49.6898 157.206 48.4294 156.523C47.032 155.769 45.5365 155.212 43.9858 154.87C42.3142 154.508 40.608 154.332 38.8978 154.344C37.1955 154.357 35.4959 154.482 33.8098 154.717C32.169 154.942 30.5917 155.213 29.1077 155.565C26.4697 156.123 23.9273 157.063 21.5605 158.355C19.9717 159.238 18.5192 160.346 17.2484 161.645C16.799 162.107 16.481 162.493 16.2647 162.756L16.023 163.057C15.9978 163.092 15.9694 163.125 15.9382 163.155C16.3152 162.599 16.7409 162.079 17.2102 161.599C18.4692 160.273 19.9199 159.144 21.5138 158.249C23.8833 156.931 26.4354 155.972 29.0865 155.404C30.5747 155.061 32.152 154.785 33.7971 154.556C35.4969 154.315 37.2108 154.187 38.9275 154.174C40.6465 154.162 42.3616 154.341 44.041 154.709C45.6071 155.065 47.1166 155.636 48.5269 156.405C49.8043 157.098 50.9636 157.989 51.9613 159.046C52.8266 159.972 53.5277 161.039 54.0346 162.201C54.787 163.88 55.0698 165.733 54.853 167.56C54.7854 168.052 54.6762 168.537 54.5265 169.01L54.395 169.375C54.3644 169.408 54.3318 169.439 54.2975 169.468Z" fill="#263238"/>
<path d="M51.7281 166.437C51.7069 166.437 51.8002 166.221 51.8977 165.835C52.023 165.278 52.0388 164.702 51.9443 164.139C51.8145 163.311 51.5358 162.514 51.1218 161.786C50.8858 161.35 50.6105 160.937 50.2992 160.552C49.968 160.138 49.5943 159.76 49.1841 159.424C48.3889 158.772 47.496 158.25 46.5383 157.876C45.753 157.574 44.939 157.352 44.1088 157.215C43.5472 157.121 42.9811 157.056 42.4128 157.02C42.2028 157.018 41.9932 157.003 41.7853 156.973C41.8402 156.966 41.8958 156.966 41.9506 156.973C42.0566 156.973 42.2135 156.973 42.417 156.973C42.9849 156.982 43.5515 157.029 44.113 157.113C44.9557 157.236 45.7829 157.448 46.5807 157.745C47.5592 158.118 48.4711 158.646 49.2816 159.31C49.6975 159.658 50.0742 160.05 50.4052 160.48C50.7256 160.877 51.0094 161.303 51.2532 161.752C51.6707 162.5 51.9454 163.32 52.063 164.169C52.1454 164.742 52.1079 165.327 51.9528 165.886C51.9134 166.032 51.8595 166.174 51.7917 166.31C51.7741 166.354 51.7528 166.396 51.7281 166.437Z" fill="#F5F5F5"/>
<g opacity="0.4">
<path d="M43.019 154.594C45.4151 155.035 47.6952 155.963 49.7182 157.32C51.753 158.672 53.321 160.619 54.2084 162.896C55.0946 165.181 54.9631 168.208 54.0261 170.104L57.1722 170.362C58.2322 166.835 57.0789 162.501 54.5349 159.737C53.0783 158.126 51.3019 156.837 49.3191 155.951C47.3363 155.066 45.1906 154.603 43.019 154.594Z" fill="black"/>
</g>
<path d="M67.2167 152.338C67.2167 152.389 57.2145 152.427 44.8804 152.427C32.5462 152.427 22.5441 152.389 22.5441 152.338C22.5441 152.287 32.5462 152.249 44.8804 152.249C57.2145 152.249 67.2167 152.291 67.2167 152.338Z" fill="#263238"/>
<path d="M67.2379 150.765C67.6892 150.19 67.9685 149.499 68.0435 148.772C68.1114 147.653 67.6195 146.254 66.4027 146.254H51.0369C50.4447 146.254 49.8582 146.371 49.3111 146.597C48.764 146.824 48.267 147.157 47.8484 147.576C47.4298 147.994 47.0979 148.492 46.8717 149.039C46.6454 149.586 46.5292 150.173 46.5298 150.765H67.2379Z" fill="#455A64"/>
<path d="M87.5009 134.636L84.8255 129.065C84.4683 128.3 84.409 127.43 84.6591 126.624C84.9092 125.818 85.4508 125.134 86.178 124.706L94.1662 119.94C94.584 119.69 95.0617 119.559 95.5484 119.559H97.2741L97.9695 130.82L95.3025 131.863L96.9985 134.602L87.5009 134.636Z" fill="#455A64"/>
<path d="M97.2996 119.966C97.2996 119.966 100.034 120.593 100.378 124.808C100.721 129.022 97.9695 130.32 97.9695 130.32L97.2996 119.966Z" fill="white"/>
<path d="M97.2995 119.966C97.3182 120.039 97.3282 120.115 97.3292 120.191L97.3801 120.797C97.4267 121.348 97.4818 122.094 97.5539 123.01C97.6981 124.876 97.8889 127.441 98.0754 130.328L97.9185 130.235C98.2123 130.074 98.482 129.873 98.7199 129.637C99.2617 129.113 99.6739 128.47 99.9241 127.759C100.161 127.096 100.288 126.398 100.301 125.694C100.346 124.493 100.115 123.298 99.6273 122.2C99.2857 121.466 98.7544 120.837 98.0881 120.377C97.8387 120.212 97.5747 120.07 97.2995 119.953C97.378 119.958 97.4552 119.975 97.5285 120.004C97.7398 120.079 97.9429 120.176 98.1348 120.292C98.8399 120.736 99.4057 121.369 99.7672 122.12C100.289 123.234 100.542 124.456 100.505 125.686C100.497 126.408 100.37 127.125 100.128 127.806C99.8618 128.55 99.4263 129.222 98.8556 129.769C98.6037 130.019 98.3183 130.233 98.0076 130.405L97.8592 130.481V130.311C97.6726 127.373 97.5285 124.757 97.4352 122.896C97.3928 121.993 97.3546 121.255 97.3292 120.708L97.3037 120.127C97.2981 120.073 97.2967 120.02 97.2995 119.966Z" fill="#263238"/>
<path d="M87.4585 127.018C87.4585 127.018 80.1784 130.469 79.288 131.016C78.6732 131.41 78.1432 132.097 78.6265 133.31C79.4533 135.37 82.8665 133.433 82.8665 133.433L89.6505 130.041C89.6505 130.041 92.2539 128.807 91.2914 127.272C90.1975 125.568 87.4585 127.018 87.4585 127.018Z" fill="#263238"/>
<path d="M86.5384 122.497C87.7303 122.497 88.6966 120.794 88.6966 118.694C88.6966 116.593 87.7303 114.891 86.5384 114.891C85.3465 114.891 84.3802 116.593 84.3802 118.694C84.3802 120.794 85.3465 122.497 86.5384 122.497Z" fill="#263238"/>
<path d="M86.8904 121.31L88.0776 125.418C88.2943 125.31 88.4672 125.13 88.5675 124.91C88.6678 124.689 88.6894 124.441 88.6288 124.206C88.332 122.798 88.1624 121.798 87.8359 120.564C87.7977 120.441 86.8904 121.31 86.8904 121.31Z" fill="#263238"/>
<g opacity="0.3">
<path d="M63.4262 171.045C63.3074 170.706 63.1887 170.363 63.0742 170.006C62.9598 169.65 62.8453 169.332 62.7562 169.002C62.6175 168.494 62.5182 167.977 62.4594 167.454C60.4582 175.599 63.511 181.336 68.7601 181.739C76.4218 182.328 85.7667 182.756 89.5361 181.764C96.4261 179.958 98.9531 174.213 99.5552 173.284C100.157 172.355 105.64 162.319 102.282 152.678C98.9234 143.036 93.0722 132.792 93.068 132.792L87.4924 134.653C87.4924 134.653 88.5142 139.415 90.1297 145.113C91.9062 151.376 94.2891 161.179 94.1534 166.907C94.0662 170.354 92.9531 173.696 90.9565 176.506H65.6394C65.6394 176.506 65.0967 175.964 63.4262 171.062" fill="black"/>
</g>
<path d="M9.6884 166.708L9.86648 164.774L56.0825 170.1C56.7004 170.173 57.2969 170.371 57.8354 170.683C58.3739 170.995 58.8431 171.413 59.2142 171.912C59.5854 172.412 59.8507 172.982 59.9939 173.587C60.137 174.193 60.1551 174.821 60.0469 175.434L59.8391 176.604L12.0077 169.65C11.3178 169.55 10.6927 169.189 10.2612 168.642C9.82973 168.094 9.62469 167.402 9.6884 166.708Z" fill="#455A64"/>
<g opacity="0.3">
<path d="M9.6884 166.708L9.86648 164.774L56.0825 170.1C56.7004 170.173 57.2969 170.371 57.8354 170.683C58.3739 170.995 58.8431 171.413 59.2142 171.912C59.5854 172.412 59.8507 172.982 59.9939 173.587C60.137 174.193 60.1551 174.821 60.0469 175.434L59.8391 176.604L12.0077 169.65C11.3178 169.55 10.6927 169.189 10.2612 168.642C9.82973 168.094 9.62469 167.402 9.6884 166.708Z" fill="black"/>
</g>
<g opacity="0.3">
<path d="M99.5637 179.64C99.5637 179.64 109.74 168.451 111.839 159.649C112.893 159.643 113.947 159.721 114.989 159.882C114.989 159.882 108.968 176.24 99.5637 179.64Z" fill="black"/>
</g>
<path d="M111.69 155.705C111.718 155.798 111.736 155.893 111.745 155.989C111.771 156.176 111.826 156.447 111.864 156.807C111.957 157.819 111.93 158.838 111.783 159.843C111.548 161.336 111.095 162.786 110.439 164.147C109.634 165.801 108.735 167.408 107.747 168.959C105.974 171.795 103.982 174.489 101.79 177.015C100.963 177.995 100.28 178.775 99.8011 179.309L99.2542 179.924C99.1926 179.999 99.1245 180.069 99.0507 180.132C99.1016 180.05 99.1597 179.974 99.2245 179.903L99.7503 179.267L101.696 176.935C103.853 174.394 105.824 171.702 107.594 168.879C108.579 167.331 109.481 165.732 110.295 164.088C110.948 162.746 111.408 161.318 111.66 159.848C111.819 158.851 111.863 157.84 111.792 156.833C111.771 156.477 111.724 156.201 111.711 156.015C111.695 155.912 111.688 155.809 111.69 155.705Z" fill="#263238"/>
<path d="M94.0983 179.559C92.973 178.622 91.9252 177.595 90.965 176.489C91.5461 176.935 92.0905 177.427 92.5931 177.961C93.1377 178.451 93.6411 178.986 94.0983 179.559Z" fill="#263238"/>
<path d="M63.9011 179.216C64.0633 178.693 64.3158 178.202 64.6474 177.766C64.9326 177.299 65.2938 176.884 65.7158 176.536C65.7582 176.57 65.2918 177.13 64.7958 177.863C64.2997 178.597 63.9478 179.237 63.9011 179.216Z" fill="#263238"/>
<path d="M44.3504 185.678C44.9062 185.17 45.3746 184.574 45.7369 183.914C46.1174 183.193 46.3495 182.403 46.4195 181.591C46.5229 180.601 46.3503 179.601 45.9207 178.703C45.4912 177.805 44.8215 177.043 43.9857 176.503C43.3114 176.044 42.5514 175.727 41.7513 175.57C41.0105 175.435 40.2524 175.425 39.5083 175.54C39.5083 175.54 39.5592 175.519 39.6609 175.493C39.8 175.455 39.9417 175.427 40.0849 175.409C40.6403 175.332 41.2043 175.345 41.7555 175.447C42.5767 175.592 43.3591 175.905 44.0536 176.367C44.9237 176.918 45.6206 177.703 46.064 178.632C46.5073 179.562 46.6791 180.597 46.5594 181.62C46.4813 182.451 46.2315 183.257 45.8259 183.986C45.5579 184.478 45.2145 184.924 44.8083 185.309C44.6684 185.449 44.5369 185.534 44.4606 185.602C44.4269 185.631 44.3899 185.657 44.3504 185.678Z" fill="#263238"/>
<path d="M27.471 182.133C27.3564 181.598 27.301 181.052 27.3057 180.505C27.2493 179.96 27.2493 179.41 27.3057 178.864C27.4205 179.401 27.4759 179.948 27.471 180.497C27.5297 181.041 27.5297 181.589 27.471 182.133Z" fill="#263238"/>
<path d="M28.6964 182.137C28.541 181.606 28.4415 181.06 28.3996 180.509C28.3023 179.965 28.2611 179.412 28.2766 178.859C28.435 179.39 28.5345 179.936 28.5734 180.488C28.6758 181.031 28.717 181.584 28.6964 182.137Z" fill="#263238"/>
<path d="M47.7593 150.766C47.7593 150.812 42.1413 150.855 35.2089 150.855C28.2765 150.855 22.6543 150.812 22.6543 150.766C22.6543 150.719 28.2765 150.677 35.2089 150.677C42.1413 150.677 47.7593 150.715 47.7593 150.766Z" fill="#263238"/>
<path d="M18.3338 189.952C18.2789 189.908 18.2291 189.858 18.1854 189.803C18.0964 189.702 17.9522 189.553 17.7911 189.345C17.3158 188.771 16.8902 188.157 16.5191 187.51C15.2927 185.366 14.6522 182.938 14.6619 180.468C14.6715 177.999 15.3311 175.575 16.5742 173.441C16.9448 172.797 17.3704 172.185 17.8462 171.614C18.0073 171.406 18.1557 171.262 18.2448 171.16C18.2905 171.106 18.3416 171.056 18.3974 171.012C18.3618 171.072 18.3206 171.129 18.2745 171.181C18.1897 171.292 18.054 171.444 17.9013 171.656C17.4502 172.239 17.0448 172.856 16.6887 173.501C15.4895 175.627 14.8545 178.025 14.8441 180.466C14.8337 182.907 15.4483 185.31 16.6293 187.446C16.9824 188.094 17.3835 188.715 17.8293 189.303C17.9777 189.519 18.1133 189.668 18.1939 189.782C18.2472 189.833 18.2942 189.89 18.3338 189.952Z" fill="#455A64"/>
<path d="M65.72 184.439C65.72 184.439 66.1101 193.509 66.1185 193.945L68.0435 195.404L72.6608 194.255L72.2368 184.231L65.72 184.439Z" fill="#FFBE9D"/>
<path d="M78.44 104.643L83.2694 107.225L91.3466 101.336L93.6955 105.389C93.6955 105.389 88.7771 110.134 87.0303 111.749C85.2834 113.365 84.1386 114.226 82.8623 113.975C81.5861 113.725 74.4799 109.778 74.4799 109.778C74.4799 109.778 76.549 104.728 78.44 104.643Z" fill="#FFBE9D"/>
<path d="M83.2949 109.022C83.2949 109.022 83.3245 109.052 83.3415 109.103V109.145H83.2355V109.107V108.98C83.2062 108.738 83.1906 108.494 83.1889 108.251C83.1489 107.902 83.1792 107.549 83.2779 107.212C83.3967 107.543 83.4416 107.896 83.4093 108.246C83.4093 108.531 83.4093 108.789 83.3881 108.98V109.107V109.145C83.1677 109.145 83.3245 109.145 83.2779 109.145V109.099C83.2652 109.052 83.2821 109.022 83.2949 109.022Z" fill="#EB996E"/>
<path d="M92.3515 106.492C92.5126 106.542 94.0178 104.919 94.0178 104.919C94.0178 104.919 96.8374 104.868 97.5115 104.495C98.1857 104.121 99.2075 102.731 99.2075 102.731L97.8465 98.584C96.5877 98.6664 95.3348 98.8221 94.0941 99.0504C93.1952 99.3005 91.0455 101.552 91.0455 101.552L90.1212 102.989C90.1212 102.989 89.8329 105.716 92.3515 106.492Z" fill="#FFBE9D"/>
<path d="M97.1172 104.728C97.4628 104.703 97.8068 104.659 98.1476 104.597C98.826 104.482 99.5256 104.423 99.5044 103.749C99.5063 103.637 99.4841 103.526 99.4395 103.424C99.3949 103.321 99.3288 103.23 99.2457 103.155C99.2457 103.155 99.746 102.947 99.7418 102.57C99.7407 102.46 99.7136 102.352 99.6627 102.255C99.6119 102.158 99.5387 102.074 99.4492 102.01C99.4492 102.01 100.14 101.692 100.162 101.132C100.164 100.926 100.109 100.722 100.003 100.545C99.8968 100.367 99.7432 100.223 99.5595 100.128C99.5595 100.128 101.679 99.5213 101.849 99.4534C102.451 99.2075 103.6 98.6605 103.121 98.2111C102.947 98.0457 102.879 97.8634 101.667 98.0118C100.564 98.1433 98.8302 98.5503 98.8302 98.5503C98.8302 98.5503 97.3462 98.6224 96.566 98.7029C95.5991 98.7915 94.6415 98.9631 93.704 99.216C92.7034 99.6781 91.83 100.993 91.83 100.993L94.0305 104.919L97.1172 104.728Z" fill="#FFBE9D"/>
<path d="M99.0803 103.137C98.8822 103.11 98.6823 103.099 98.4825 103.103H97.8338C97.7053 103.093 97.5763 103.093 97.4479 103.103C97.3012 103.122 97.1644 103.187 97.0578 103.29C96.9996 103.342 96.957 103.409 96.9345 103.484C96.9121 103.559 96.9107 103.638 96.9306 103.714C96.9739 103.846 97.0665 103.957 97.1893 104.023C97.2896 104.085 97.3962 104.137 97.5073 104.176L97.7871 104.282C97.9652 104.346 98.1051 104.388 98.2111 104.413C98.3171 104.439 98.368 104.452 98.368 104.443C98.368 104.435 98.156 104.358 97.8168 104.223C97.6177 104.147 97.4249 104.057 97.2402 103.951C97.1378 103.894 97.0607 103.8 97.0239 103.688C97.01 103.629 97.0125 103.568 97.0312 103.51C97.0499 103.453 97.0841 103.401 97.1299 103.362C97.2222 103.274 97.339 103.216 97.4649 103.197C97.589 103.186 97.7138 103.186 97.838 103.197H98.4867C98.6858 103.193 98.8843 103.173 99.0803 103.137Z" fill="#EB996E"/>
<path d="M96.7653 100.242C96.9859 100.148 97.1807 100.002 97.3335 99.8175C97.5119 99.6587 97.6475 99.4574 97.7278 99.2324C97.7066 99.2324 97.5328 99.4783 97.2657 99.7539C96.9985 100.03 96.7484 100.22 96.7653 100.242Z" fill="#EB996E"/>
<path d="M94.976 99.2617C95.5379 99.3969 96.0487 99.6913 96.4473 100.11C96.8416 100.527 97.1704 101.002 97.4225 101.517C97.6345 101.941 97.8168 102.429 97.5836 102.823C97.4415 103.016 97.2336 103.151 96.9992 103.201C96.7648 103.251 96.5201 103.213 96.3116 103.095C95.9047 102.849 95.5846 102.483 95.3958 102.047C95.2088 101.613 94.9696 101.203 94.6835 100.826" fill="#FFBE9D"/>
<path d="M94.7131 100.822C94.7131 100.822 94.7895 100.92 94.9124 101.115C95.0678 101.39 95.2093 101.673 95.3364 101.963C95.4323 102.167 95.5458 102.363 95.6756 102.548C95.824 102.765 96.0179 102.947 96.2438 103.082C96.5009 103.229 96.8037 103.272 97.0918 103.205C97.2506 103.17 97.397 103.092 97.5158 102.981C97.6303 102.865 97.7059 102.717 97.732 102.557C97.7619 102.241 97.6985 101.924 97.5497 101.645C97.4222 101.389 97.2807 101.139 97.1257 100.899C96.8716 100.487 96.5507 100.12 96.1759 99.8132C95.9224 99.6077 95.6356 99.4471 95.3279 99.3383C95.244 99.3079 95.1574 99.2852 95.0693 99.2705C95.0099 99.2705 94.9803 99.2705 94.9803 99.2705C94.9803 99.2705 95.1032 99.3044 95.3152 99.385C95.6131 99.5055 95.8906 99.6714 96.1378 99.8768C96.5015 100.184 96.8124 100.55 97.0579 100.958C97.2048 101.197 97.3393 101.443 97.4607 101.696C97.6004 101.955 97.6608 102.25 97.6345 102.544C97.6128 102.687 97.5477 102.82 97.4479 102.925C97.3446 103.023 97.2174 103.092 97.0791 103.125C96.8123 103.192 96.53 103.154 96.2904 103.019C96.0748 102.891 95.8885 102.719 95.7435 102.514C95.6139 102.334 95.4991 102.144 95.4 101.946C95.2607 101.654 95.1036 101.371 94.9294 101.098C94.8658 101.005 94.8064 100.937 94.7683 100.89C94.7301 100.844 94.7131 100.818 94.7131 100.822Z" fill="#EB996E"/>
<path d="M99.0167 103.138C98.1472 103.138 97.2782 103.184 96.4133 103.273C96.1662 103.319 95.9113 103.297 95.6756 103.21C95.4933 103.121 95.4254 102.663 95.3788 102.468L98.5673 101.972" fill="#FFBE9D"/>
<path d="M98.5673 101.972C98.4849 101.971 98.4025 101.978 98.3214 101.993L97.643 102.086L95.3704 102.421H95.3237V102.472C95.3577 102.616 95.3873 102.777 95.4382 102.934C95.4585 103 95.487 103.062 95.523 103.121C95.5405 103.15 95.5619 103.177 95.5866 103.201C95.6142 103.226 95.6458 103.246 95.6799 103.261C95.8 103.308 95.9282 103.331 96.0572 103.329C96.3074 103.329 96.5364 103.295 96.7568 103.278C97.1808 103.239 97.6049 103.206 97.9271 103.184C98.2493 103.163 98.5292 103.155 98.72 103.146C98.8159 103.153 98.9123 103.153 99.0083 103.146C98.913 103.13 98.8165 103.123 98.72 103.125C98.5292 103.125 98.2578 103.125 97.9228 103.125C97.5879 103.125 97.1893 103.163 96.7484 103.197C96.5279 103.197 96.2947 103.244 96.0615 103.239C95.9438 103.242 95.8269 103.221 95.718 103.176C95.6163 103.142 95.5696 103.023 95.5272 102.909C95.4848 102.794 95.4509 102.603 95.417 102.455L95.3788 102.51C96.2777 102.37 97.0748 102.239 97.643 102.141L98.3172 102.023C98.4018 102.012 98.4855 101.995 98.5673 101.972Z" fill="#EB996E"/>
<path d="M99.4959 101.793L96.1759 102.429C95.9433 102.488 95.7025 102.506 95.4636 102.484C95.3448 102.473 95.2308 102.431 95.1317 102.365C95.0326 102.298 94.9514 102.208 94.8955 102.103C94.8466 101.947 94.8505 101.78 94.9064 101.626C94.9624 101.473 95.0673 101.342 95.205 101.255C95.4889 101.086 95.8054 100.979 96.1335 100.941C97.1428 100.743 98.1351 100.466 99.1015 100.114" fill="#FFBE9D"/>
<path d="M99.0931 100.102C99.0597 100.106 99.0269 100.115 98.9956 100.127L98.72 100.216C98.4825 100.288 98.1391 100.398 97.7108 100.513C97.2826 100.627 96.7653 100.759 96.1887 100.873C95.8773 100.914 95.5741 101.003 95.2898 101.136C95.1372 101.216 95.0096 101.336 94.9209 101.484C94.8226 101.637 94.7834 101.821 94.8107 102.001C94.8313 102.091 94.8707 102.175 94.9263 102.248C94.9818 102.321 95.0523 102.381 95.1329 102.425C95.2837 102.507 95.453 102.55 95.6248 102.548C95.9346 102.525 96.2423 102.479 96.5448 102.408L98.084 102.103L99.1185 101.891L99.3984 101.827L99.4959 101.798C99.4621 101.793 99.4279 101.793 99.3941 101.798L99.11 101.844L98.0713 102.027L96.5279 102.315C96.2309 102.383 95.9289 102.427 95.6248 102.446C95.4693 102.449 95.3159 102.411 95.1796 102.336C95.1107 102.299 95.0505 102.248 95.003 102.186C94.9555 102.123 94.9217 102.052 94.904 101.976C94.8809 101.819 94.9156 101.659 95.0015 101.526C95.0819 101.394 95.196 101.286 95.3322 101.212C95.6084 101.082 95.903 100.995 96.2056 100.954C96.7823 100.835 97.2996 100.699 97.7278 100.576C98.1561 100.453 98.4995 100.331 98.7327 100.246L98.9998 100.14L99.0931 100.102Z" fill="#EB996E"/>
<path d="M92.856 102.607C92.856 102.607 92.9026 102.705 93.0298 102.819C93.2002 102.962 93.4001 103.065 93.6149 103.12C93.8292 103.179 94.0539 103.187 94.2721 103.146C94.4375 103.112 94.5308 103.065 94.5265 103.053C94.2323 103.099 93.932 103.092 93.6404 103.031C93.3538 102.942 93.0874 102.798 92.856 102.607Z" fill="#EB996E"/>
<path d="M74.8911 126.097C74.8911 126.097 82.9471 127.585 83.5068 127.738C84.0665 127.89 86.3688 128.976 86.4748 129.671C86.5364 130.586 86.5364 131.504 86.4748 132.419C86.4748 132.419 86.0508 132.753 85.8049 132.084C85.6346 131.432 85.5618 130.759 85.5886 130.087L84.3166 129.595L85.012 130.833L85.1265 133.733C85.1265 133.733 84.2361 133.652 84.0622 132.957C83.9529 132.476 83.896 131.984 83.8926 131.49L82.9598 130.701L83.6594 131.647L83.8926 133.733C83.8926 133.733 83.2142 133.953 82.998 133.491C82.843 132.889 82.7661 132.269 82.769 131.647L80.1402 130.727L78.4018 131.698L76.515 130.663C76.2511 130.517 76.0224 130.315 75.8451 130.071C75.6678 129.827 75.5462 129.547 75.4889 129.251L74.8911 126.097Z" fill="#FFBE9D"/>
<path d="M58.8046 86.0712L59.0717 100.127C59.0927 101.233 59.5316 102.289 60.3001 103.085C61.0686 103.88 62.1098 104.355 63.2142 104.413C63.8118 104.444 64.4093 104.352 64.9698 104.143C65.5304 103.934 66.0421 103.612 66.4732 103.197C66.9044 102.782 67.2459 102.283 67.4766 101.731C67.7073 101.179 67.8224 100.585 67.8146 99.9869C67.8146 98.6471 67.7722 97.5531 67.7722 97.5531C67.7722 97.5531 71.1896 97.2012 71.4101 93.8134C71.5331 91.8546 71.4101 87.3941 71.3126 83.9766C71.2755 82.8583 70.8186 81.795 70.0329 80.9983C69.2472 80.2016 68.1903 79.73 67.0726 79.6773L65.0247 79.5713C64.1865 79.5799 63.3585 79.7559 62.5894 80.0891C61.8203 80.4223 61.1255 80.9059 60.546 81.5115C59.9665 82.1171 59.5139 82.8325 59.2148 83.6155C58.9158 84.3986 58.7763 85.2335 58.8046 86.0712Z" fill="#FFBE9D"/>
<path d="M67.7721 97.5193C66.2068 97.4325 64.6988 96.8999 63.4261 95.9844C63.4261 95.9844 64.3886 98.5284 67.7891 98.3757L67.7721 97.5193Z" fill="#EB996E"/>
<path d="M70.507 87.1611C70.4476 87.2247 70.083 86.9321 69.5699 86.9067C69.0569 86.8812 68.6541 87.1229 68.6032 87.0551C68.5523 86.9872 68.6414 86.9152 68.8152 86.8007C69.0496 86.6583 69.3216 86.5903 69.5954 86.6056C69.8667 86.6187 70.1267 86.7182 70.3374 86.8897C70.49 87.0169 70.5409 87.1356 70.507 87.1611Z" fill="#263238"/>
<path d="M65.4911 88.2768C65.4867 88.4035 65.4326 88.5234 65.3406 88.6106C65.2486 88.6979 65.126 88.7455 64.9993 88.7432C64.9375 88.7443 64.876 88.7332 64.8185 88.7106C64.761 88.688 64.7085 88.6543 64.664 88.6114C64.6195 88.5684 64.5839 88.5172 64.5592 88.4605C64.5345 88.4038 64.5212 88.3428 64.5201 88.281C64.5246 88.1543 64.5786 88.0344 64.6706 87.9472C64.7626 87.8599 64.8852 87.8123 65.012 87.8146C65.0739 87.8129 65.1356 87.8236 65.1934 87.846C65.2512 87.8684 65.3039 87.9021 65.3485 87.9452C65.3931 87.9882 65.4287 88.0397 65.4532 88.0966C65.4777 88.1536 65.4906 88.2148 65.4911 88.2768Z" fill="#263238"/>
<path d="M70.2356 88.2768C70.2312 88.4035 70.1771 88.5234 70.0851 88.6106C69.9931 88.6979 69.8705 88.7455 69.7438 88.7432C69.6818 88.7449 69.6201 88.7342 69.5624 88.7118C69.5046 88.6894 69.4518 88.6557 69.4072 88.6126C69.3626 88.5696 69.327 88.5181 69.3026 88.4612C69.2781 88.4042 69.2652 88.343 69.2646 88.281C69.2691 88.1543 69.3231 88.0344 69.4151 87.9472C69.5071 87.8599 69.6297 87.8123 69.7565 87.8146C69.8184 87.8129 69.8801 87.8236 69.9379 87.846C69.9957 87.8684 70.0484 87.9021 70.093 87.9452C70.1376 87.9882 70.1732 88.0397 70.1977 88.0966C70.2222 88.1536 70.2351 88.2148 70.2356 88.2768Z" fill="#263238"/>
<path d="M65.4741 86.9743C65.4105 87.0336 65.0501 86.7411 64.537 86.7156C64.024 86.6902 63.6212 86.9319 63.5661 86.864C63.511 86.7962 63.6085 86.7241 63.7823 86.6139C64.0151 86.4674 64.288 86.3977 64.5625 86.4146C64.8338 86.4276 65.0938 86.5272 65.3045 86.6987C65.4571 86.8301 65.5038 86.9446 65.4741 86.9743Z" fill="#263238"/>
<path d="M67.1192 91.1211C67.3962 91.0495 67.6811 91.0125 67.9672 91.0108C68.0986 91.0108 68.2301 90.9854 68.2555 90.8964C68.2721 90.7597 68.2485 90.6212 68.1877 90.4978L67.84 89.4632C67.5196 88.5857 67.2701 87.684 67.0938 86.7666C67.4841 87.6158 67.806 88.4949 68.0562 89.3954C68.1707 89.76 68.2767 90.1035 68.3827 90.4342C68.4578 90.5993 68.4714 90.7858 68.4209 90.96C68.3995 91.0065 68.3677 91.0475 68.3281 91.0798C68.2884 91.1122 68.2418 91.135 68.1919 91.1465C68.1173 91.1565 68.0418 91.1565 67.9672 91.1465C67.6845 91.1728 67.3997 91.1642 67.1192 91.1211Z" fill="#263238"/>
<path d="M65.5631 91.4015C65.6521 91.4015 65.6225 91.9696 66.0846 92.3936C66.5468 92.8176 67.1531 92.7879 67.1531 92.8685C67.1531 92.9491 67.0132 92.9703 66.7588 92.966C66.4272 92.9524 66.1108 92.8234 65.8641 92.6014C65.6282 92.3797 65.4857 92.0765 65.4656 91.7534C65.4571 91.5329 65.5249 91.3972 65.5631 91.4015Z" fill="#263238"/>
<path d="M65.5376 85.0836C65.4783 85.2193 64.9652 85.126 64.3462 85.1684C63.7272 85.2108 63.2311 85.3508 63.1548 85.2193C63.1208 85.16 63.2141 85.0285 63.4219 84.9013C63.6954 84.7449 64.0019 84.6549 64.3165 84.6384C64.6313 84.6168 64.9467 84.6706 65.2366 84.7953C65.4571 84.8971 65.5631 85.0158 65.5376 85.0836Z" fill="#263238"/>
<path d="M70.3501 85.279C70.2526 85.3935 69.9006 85.2493 69.4682 85.2239C69.0357 85.1984 68.6668 85.262 68.5905 85.1306C68.5566 85.0712 68.6202 84.9568 68.7855 84.8508C69.0066 84.7274 69.2595 84.6728 69.5117 84.6939C69.764 84.715 70.0043 84.811 70.2017 84.9695C70.3501 85.0967 70.384 85.2239 70.3501 85.279Z" fill="#263238"/>
<path d="M59.818 88.6584C59.7629 88.6287 57.5241 87.8486 57.4775 90.1679C57.4309 92.4871 59.7841 92.0589 59.7841 92.008C59.7841 91.9571 59.818 88.6584 59.818 88.6584Z" fill="#FFBE9D"/>
<path d="M59.0844 91.0959C59.0844 91.0959 59.0462 91.1255 58.9742 91.1552C58.8772 91.192 58.7701 91.192 58.6731 91.1552C58.5293 91.0543 58.4144 90.9173 58.34 90.7581C58.2656 90.5989 58.2343 90.423 58.2491 90.2479C58.2483 90.0491 58.2902 89.8524 58.3721 89.6712C58.3957 89.5987 58.4366 89.5331 58.4913 89.4799C58.546 89.4267 58.6127 89.3876 58.6858 89.3659C58.732 89.3549 58.7805 89.3602 58.8231 89.3811C58.8657 89.402 58.8996 89.4371 58.919 89.4804C58.9487 89.5483 58.919 89.5949 58.9487 89.5991C58.9784 89.6034 58.9996 89.561 58.9826 89.4635C58.9694 89.4058 58.9382 89.3539 58.8936 89.3151C58.8293 89.2665 58.7491 89.2438 58.6689 89.2515C58.5746 89.2704 58.4865 89.3125 58.4125 89.3739C58.3385 89.4354 58.2809 89.5142 58.2449 89.6034C58.1404 89.8018 58.0878 90.0236 58.0922 90.2479C58.0766 90.4545 58.1222 90.6612 58.2232 90.8422C58.3242 91.0231 58.4763 91.1703 58.6604 91.2655C58.7229 91.2833 58.7886 91.2876 58.8529 91.2781C58.9172 91.2686 58.9788 91.2455 59.0335 91.2103C59.0802 91.1595 59.0929 91.1001 59.0844 91.0959Z" fill="#EB996E"/>
<path d="M58.5332 88.5094C58.7542 88.5075 58.9717 88.5651 59.1627 88.6763C59.3537 88.7875 59.5112 88.9481 59.6187 89.1412C59.7501 89.4804 59.7671 89.8577 59.8985 90.1969C59.9493 90.3717 60.057 90.5246 60.2044 90.6313C60.3519 90.7381 60.5307 90.7926 60.7126 90.7863C60.835 90.7549 60.9469 90.6917 61.037 90.6031C61.1271 90.5145 61.1922 90.4036 61.2256 90.2817C61.2879 90.0381 61.3037 89.785 61.2723 89.5355C61.1875 88.4458 61.0179 87.3604 61.0306 86.2665C60.9986 85.1666 61.2937 84.082 61.8786 83.1501C62.1762 82.6899 62.5924 82.3186 63.0835 82.0753C63.5745 81.832 64.1221 81.7258 64.6685 81.7678C65.3851 81.8611 66.0253 82.2724 66.7376 82.4123C67.158 82.4872 67.5898 82.4663 68.001 82.351C68.4121 82.2357 68.7919 82.0291 69.112 81.7466C69.1968 81.6746 69.57 81.4541 69.57 81.4541C69.5734 81.1959 69.5011 80.9424 69.3622 80.7248C68.0096 79.3383 65.4699 78.838 63.5704 79.2154C62.605 79.3994 61.6913 79.7918 60.8931 80.3652C60.0949 80.9386 59.4314 81.6792 58.9488 82.5353C58.0499 84.2525 58.1644 86.7117 58.5248 88.5094" fill="#263238"/>
<path d="M68.5227 81.0814C67.2507 81.128 64.7872 81.6029 63.7739 82.3915C63.6551 82.4848 63.5237 82.6374 63.6043 82.7689C63.6848 82.9003 63.8035 82.8706 63.918 82.8664C65.0945 82.9265 66.2621 83.104 67.4033 83.3964C68.1295 83.653 68.8978 83.7695 69.6675 83.7398C70.052 83.7188 70.4244 83.5983 70.7485 83.3902C71.0725 83.1821 71.337 82.8935 71.5161 82.5526L71.8426 82.6756C71.4712 82.1487 70.9712 81.7256 70.39 81.4465C69.8089 81.1675 69.1661 81.0418 68.5227 81.0814Z" fill="#263238"/>
<path d="M71.1812 82.6414C70.4895 81.9907 69.603 81.5854 68.6584 81.4881C65.7243 81.221 60.9077 82.1029 58.3552 87.1443C58.0771 86.2718 57.9035 85.3695 57.8379 84.4561C57.8379 83.765 58.2619 79.6564 62.5019 78.3844C62.5104 78.3844 68.8958 75.9803 71.1812 82.6414Z" fill="#455A64"/>
<g opacity="0.3">
<path d="M71.1812 82.6414C70.4457 81.8558 69.4324 81.3887 68.3573 81.3397C65.7285 81.2125 60.7593 82.3912 58.3552 87.1443C58.0771 86.2718 57.9035 85.3695 57.8379 84.4561C57.8379 83.765 58.2619 79.6564 62.5019 78.3844C62.5104 78.3844 68.8958 75.9803 71.1812 82.6414Z" fill="black"/>
</g>
<path d="M58.7537 86.4274C60.0257 84.3074 61.9337 82.8446 63.9901 81.5726C66.0465 80.3006 69.4343 79.0583 71.7705 78.4477C72.4623 78.2246 73.1939 78.1524 73.916 78.2357C74.2757 78.2827 74.6149 78.4301 74.8946 78.6611C75.1744 78.8921 75.3833 79.1973 75.4975 79.5417C75.718 80.4236 74.1492 81.7719 73.4114 82.3019C72.7286 82.7568 72.0208 83.1729 71.2914 83.5485C71.2914 83.5485 71.2066 81.9712 68.5948 81.6277C65.0374 81.1613 58.6435 86.5165 58.7537 86.4274Z" fill="#455A64"/>
<path d="M63.6 79.9188C64.3745 79.5543 65.1843 79.2701 66.0168 79.0708C66.8581 78.9409 67.7102 78.894 68.5608 78.9309C68.3215 78.8439 68.0692 78.798 67.8145 78.7952C67.1994 78.746 66.5804 78.7803 65.9744 78.897C65.3707 79.0151 64.7858 79.2148 64.236 79.4906C64.0025 79.5986 63.7878 79.7431 63.6 79.9188Z" fill="white"/>
<path d="M72.7202 193.691L72.7457 194.09C72.7457 194.09 79.9537 196.494 80.119 197.77L66.144 198.305L66.0592 193.84C67.1195 194.276 68.2588 194.489 69.4053 194.463C70.5517 194.438 71.6804 194.175 72.7202 193.691Z" fill="#455A64"/>
<g opacity="0.6">
<path d="M66.144 198.304L66.1228 197.231L79.5127 197.108C79.5127 197.108 80.1487 197.346 80.1063 197.77L66.144 198.304Z" fill="white"/>
</g>
<path d="M72.7966 194.124C72.7966 194.187 72.4616 194.23 72.1394 194.455C71.8171 194.679 71.656 194.959 71.5882 194.938C71.5203 194.917 71.5882 194.514 72.0122 194.268C72.4362 194.022 72.8093 194.065 72.7966 194.124Z" fill="#263238"/>
<path d="M74.2975 194.65C74.3187 194.713 74.0304 194.832 73.8141 195.12C73.5979 195.409 73.5512 195.701 73.4834 195.701C73.4156 195.701 73.3477 195.332 73.6233 194.98C73.8989 194.628 74.2932 194.586 74.2975 194.65Z" fill="#263238"/>
<path d="M75.2346 196.311C75.171 196.311 75.0565 196.002 75.2091 195.637C75.3618 195.272 75.6755 195.12 75.7052 195.171C75.7349 195.222 75.5526 195.425 75.4296 195.726C75.3067 196.027 75.3024 196.311 75.2346 196.311Z" fill="#263238"/>
<path d="M73.8396 162.481L71.4737 154.595L68.3234 144.554L68.4972 139.386L63.2226 135.752C59.7755 135.811 49.731 135.218 49.731 135.218C49.731 135.218 49.9896 140.458 50.5069 144.232C50.6118 144.981 50.889 145.695 51.3167 146.318L55.9426 153.064L63.8968 167.904C63.8968 167.904 64.4268 173.204 64.6473 177.783C64.8932 182.914 65.72 192.199 65.72 192.199L73.9032 192.394L74.4162 171.839C74.624 168.752 74.853 165.407 73.8396 162.481Z" fill="#263238"/>
<path d="M78.9064 162.23C79.8477 162.994 80.6914 173.369 79.1396 172.614L80.984 174.357L85.9193 173.509L86.602 162.608L78.9064 162.23Z" fill="#FFBE9D"/>
<path d="M64.9568 131.224C64.9568 131.224 85.4021 136.787 87.5221 141.188C88.3764 142.629 88.7754 144.294 88.6669 145.966C88.5439 148.934 86.8564 170.274 86.8564 170.274L79.1354 169.765L78.3934 161.892L78.2662 149.973L78.8046 148.616C78.2137 148.753 77.5987 148.745 77.0111 148.595C76.1335 148.336 62.8114 144.304 62.8114 144.304L57.6089 136.104L64.9568 131.224Z" fill="#263238"/>
<path d="M86.0381 172.911V173.335C86.0381 173.335 93.28 176.57 93.28 177.965L78.6902 177.354L79.0887 172.508C80.1503 173.07 81.3204 173.397 82.5195 173.466C83.7187 173.536 84.9188 173.346 86.0381 172.911Z" fill="#455A64"/>
<g opacity="0.6">
<path d="M78.7029 177.354L78.7962 176.188L92.75 177.202C92.75 177.202 93.386 177.511 93.2927 177.965L78.7029 177.354Z" fill="white"/>
</g>
<path d="M86.072 173.39C86.072 173.462 85.7073 173.479 85.3469 173.691C84.9865 173.903 84.7873 174.2 84.7237 174.166C84.6601 174.132 84.783 173.742 85.224 173.479C85.6649 173.216 86.0932 173.322 86.072 173.39Z" fill="#263238"/>
<path d="M87.5772 174.085C87.5772 174.157 87.2804 174.263 87.0217 174.556C86.7631 174.848 86.6868 175.162 86.5977 175.158C86.5087 175.154 86.5002 174.734 86.8225 174.39C87.1447 174.047 87.5814 174.017 87.5772 174.085Z" fill="#263238"/>
<path d="M88.3701 175.96C88.3065 175.96 88.2216 175.612 88.4209 175.23C88.6202 174.849 88.9594 174.704 88.9891 174.764C89.0188 174.823 88.8025 175.027 88.6414 175.341C88.4803 175.654 88.4421 175.96 88.3701 175.96Z" fill="#263238"/>
<path d="M82.0694 144.655C81.8245 144.768 81.5986 144.919 81.3995 145.1C80.8942 145.511 80.44 145.981 80.0469 146.5C79.6535 147.023 79.326 147.592 79.0717 148.196C78.9495 148.437 78.8665 148.696 78.8258 148.963C79.2144 148.146 79.6711 147.363 80.1911 146.623C80.7599 145.914 81.3883 145.256 82.0694 144.655Z" fill="#455A64"/>
<path d="M80.4117 143.036C80.2211 143.269 80.0641 143.527 79.9453 143.804C79.2989 145.104 78.9307 146.525 78.8641 147.976C78.8374 148.274 78.8503 148.575 78.9022 148.87C78.9527 148.577 78.9825 148.281 78.9913 147.984C79.0575 147.269 79.1794 146.56 79.3559 145.864C79.5341 145.173 79.7666 144.497 80.0513 143.842C80.1875 143.581 80.3078 143.312 80.4117 143.036Z" fill="#455A64"/>
<path d="M66.7164 140.009C66.7715 140.009 67.6958 142.553 68.777 145.69C69.8582 148.828 70.6892 151.423 70.6299 151.444C70.5705 151.465 69.6504 148.921 68.5692 145.762C67.488 142.604 66.657 140.03 66.7164 140.009Z" fill="#455A64"/>
<path d="M69.8328 102.489L73.1696 101.149L81.8744 105.877L78.3212 114.009L70.6596 110.206L69.8328 102.489Z" fill="#455A64"/>
<path d="M73.1697 101.149L67.8781 99.148C67.8781 99.148 66.7206 101.595 64.1893 100.844C61.658 100.094 58.8681 97.8379 58.8681 97.8379C58.8681 97.8379 54.0557 99.7459 52.5887 100.615C51.1216 101.484 50.3288 124.037 50.3288 124.037L49.9302 132.763L49.6928 134.408C49.5915 135.195 49.5391 135.988 49.5359 136.782C58.5035 138.796 67.3693 136.664 72.1224 134.026C72.1224 134.026 72.7499 133.534 72.4785 132.411C72.2072 131.287 71.6305 131.092 71.6305 131.092L71.7492 121.23L72.6312 111.143L73.1697 101.149Z" fill="#455A64"/>
<path d="M77.9058 126.657L65.9998 121.73L58.6222 105.394L52.0587 108.15C52.0587 108.15 59.1056 125.864 61.8404 127.336C64.5752 128.807 75.8536 129.485 75.8536 129.485L77.9058 126.657Z" fill="#FFBE9D"/>
<path d="M52.576 100.615C52.576 100.615 50.0956 101.857 50.0999 106.606C50.0999 110.732 51.3167 117.308 51.3167 117.308L63.0022 113.242L59.3897 104.847C58.5417 102.845 56.6591 99.165 52.576 100.615Z" fill="#455A64"/>
<path d="M52.665 116.841C52.7279 116.808 52.7931 116.78 52.8601 116.757L53.4325 116.536L55.5822 115.756L62.981 113.14L62.9174 113.276C62.5485 112.165 62.1457 110.977 61.7047 109.769C61.0094 107.865 60.2843 106.08 59.5423 104.49C59.2145 103.733 58.8156 103.009 58.3509 102.328C57.9581 101.732 57.4117 101.253 56.7694 100.941C55.8202 100.511 54.7757 100.334 53.7378 100.428C53.4582 100.46 53.1852 100.535 52.9279 100.649C52.8441 100.703 52.7562 100.752 52.665 100.793C52.665 100.793 52.665 100.772 52.7244 100.742C52.7802 100.692 52.8413 100.648 52.9067 100.611C53.1615 100.474 53.4386 100.383 53.725 100.344C54.783 100.213 55.8565 100.37 56.833 100.797C57.5066 101.113 58.0823 101.606 58.4993 102.222C58.9783 102.908 59.3887 103.639 59.7246 104.405C60.4836 105.995 61.2129 107.797 61.9125 109.693C62.3365 110.905 62.7605 112.093 63.1166 113.208L63.1506 113.309L63.053 113.343L55.6288 115.887L53.4579 116.608L52.8728 116.795C52.806 116.82 52.7361 116.835 52.665 116.841Z" fill="#263238"/>
<path d="M71.0964 131.439C70.9149 131.61 70.7207 131.765 70.5155 131.906C70.3247 132.05 70.0915 132.224 69.7989 132.402C69.5064 132.58 69.1884 132.805 68.811 133.004C68.4336 133.203 68.0224 133.428 67.5602 133.648C67.098 133.869 66.6062 134.072 66.0762 134.28C64.9178 134.702 63.7266 135.026 62.5146 135.251C61.2997 135.453 60.07 135.552 58.8385 135.548C58.2704 135.548 57.7276 135.523 57.2273 135.459C56.761 135.424 56.2968 135.364 55.8366 135.281C55.4126 135.222 55.0352 135.124 54.7003 135.052C54.3653 134.98 54.0855 134.899 53.8523 134.827C53.611 134.768 53.3755 134.687 53.1484 134.586C53.3936 134.62 53.6359 134.673 53.8735 134.742C54.1067 134.802 54.3865 134.874 54.7215 134.929C55.0564 134.984 55.4296 135.077 55.8536 135.124C56.2776 135.171 56.7397 135.251 57.24 135.277C57.7404 135.302 58.2704 135.332 58.8343 135.344C60.0534 135.339 61.2701 135.234 62.4722 135.031C63.6729 134.812 64.854 134.498 66.0041 134.089C66.5256 133.882 67.0302 133.699 67.4796 133.483C67.9291 133.267 68.3531 133.059 68.7516 132.868C69.1502 132.678 69.4555 132.47 69.748 132.296C70.0002 132.154 70.245 132 70.4816 131.834C70.6757 131.686 70.8813 131.554 71.0964 131.439Z" fill="#263238"/>
<path d="M71.1472 110.676H67.8782V112.223H71.1472V110.676Z" fill="white"/>
<path d="M73 105.872C73.0636 105.872 72.9407 108.263 72.7329 111.198C72.5252 114.132 72.3089 116.514 72.2453 116.51C72.1817 116.506 72.3047 114.119 72.5124 111.185C72.7202 108.251 72.928 105.868 73 105.872Z" fill="#263238"/>
<path d="M44.8804 116.841H13.9962V123.587H44.8804V116.841Z" fill="#00A63E"/>
<path d="M46.9623 123.659H11.9357V150.672H46.9623V123.659Z" fill="#00A63E"/>
<path d="M38.1855 150.485C38.1473 150.485 38.1134 144.465 38.1134 137.036C38.1134 129.608 38.1473 123.587 38.1855 123.587C38.2236 123.587 38.2533 129.608 38.2533 137.036C38.2533 144.465 38.2236 150.485 38.1855 150.485Z" fill="#263238"/>
<path d="M45.7412 144.528H41.3062V148.963H45.7412V144.528Z" fill="#F5F5F5"/>
<path opacity="0.3" d="M26.5764 123.659H22.5992V129.426H26.5764V123.659Z" fill="white"/>
<path opacity="0.3" d="M26.5975 144.91H22.6204V150.677H26.5975V144.91Z" fill="white"/>
<path opacity="0.3" d="M46.9622 123.587H38.1854V150.748H46.9622V123.587Z" fill="black"/>
<path d="M46.8436 123.659C46.8436 123.723 39.042 123.769 29.4214 123.769C19.8008 123.769 11.995 123.723 11.995 123.659C11.995 123.595 19.7966 123.549 29.4214 123.549C39.0462 123.549 46.8436 123.6 46.8436 123.659Z" fill="#263238"/>
<path opacity="0.3" d="M44.8805 116.841H36.2351V123.54H44.8805V116.841Z" fill="black"/>
<path d="M36.1673 123.498C36.0583 122.414 36.0214 121.325 36.057 120.237C36.0213 119.149 36.0581 118.06 36.1673 116.977C36.279 118.06 36.3158 119.149 36.2775 120.237C36.3157 121.325 36.2788 122.415 36.1673 123.498Z" fill="#263238"/>
<path d="M27.4117 116.841H23.0657V118.885H27.4117V116.841Z" fill="white"/>
<path d="M29.1501 116.973C29.1445 116.941 29.1445 116.908 29.1501 116.876L29.184 116.583C29.2137 116.333 29.2688 115.96 29.3705 115.481C29.644 114.126 30.1627 112.833 30.9012 111.665C31.1545 111.279 31.438 110.915 31.7492 110.575C32.0651 110.185 32.4433 109.85 32.8685 109.583C33.1095 109.438 33.3898 109.373 33.6699 109.396C33.8175 109.421 33.9565 109.483 34.0742 109.576C34.192 109.668 34.2847 109.789 34.3441 109.926C34.5289 110.475 34.5423 111.066 34.3822 111.622C34.0693 112.808 33.4234 113.879 32.5209 114.709C31.5579 115.575 30.4996 116.329 29.3663 116.956L29.2094 117.049L29.1458 117.088L29.0865 117.045C28.0389 116.301 27.0469 115.482 26.1185 114.594C25.2479 113.762 24.5303 112.783 23.9985 111.703C23.8632 111.447 23.762 111.175 23.6974 110.893C23.6283 110.61 23.6536 110.312 23.7695 110.045C23.8268 109.908 23.9166 109.787 24.0311 109.693C24.1456 109.598 24.2814 109.533 24.4267 109.502C24.708 109.473 24.9902 109.549 25.2196 109.714C25.428 109.861 25.6186 110.032 25.7877 110.223C25.9573 110.401 26.1142 110.583 26.2669 110.762C26.5573 111.107 26.829 111.468 27.0809 111.843C27.8507 112.969 28.4414 114.208 28.8321 115.515C28.9347 115.869 29.0182 116.228 29.0822 116.592L29.1246 116.876C29.1265 116.908 29.1265 116.941 29.1246 116.973C29.1246 116.973 29.1246 116.943 29.0949 116.88L29.0313 116.6C28.9762 116.354 28.8872 115.994 28.743 115.54C28.329 114.259 27.7305 113.045 26.9665 111.936C26.714 111.569 26.4422 111.215 26.1524 110.876C25.9997 110.698 25.8429 110.52 25.6733 110.35C25.5118 110.17 25.3297 110.009 25.1305 109.871C24.9407 109.733 24.7068 109.67 24.4733 109.693C24.3596 109.716 24.2534 109.767 24.1639 109.841C24.0744 109.915 24.0045 110.01 23.9603 110.117C23.7441 110.575 23.9603 111.13 24.1935 111.618C24.7197 112.687 25.4286 113.655 26.2881 114.48C27.2074 115.359 28.1894 116.169 29.2264 116.905H29.1034L29.2603 116.812C30.3792 116.192 31.4246 115.449 32.3767 114.594C33.2529 113.799 33.8826 112.769 34.1914 111.626C34.3511 111.111 34.3511 110.56 34.1914 110.045C34.1446 109.935 34.0706 109.838 33.9765 109.764C33.8824 109.69 33.7711 109.641 33.6529 109.621C33.4141 109.601 33.175 109.657 32.9703 109.782C32.5607 110.038 32.1943 110.357 31.8849 110.728C31.5755 111.06 31.292 111.416 31.0369 111.792C30.2951 112.936 29.7598 114.202 29.4553 115.532C29.3451 116.002 29.2773 116.38 29.2306 116.621L29.1797 116.905L29.1501 116.973Z" fill="#263238"/>
<path d="M47.0641 135.603C47.0641 135.663 39.2116 135.714 29.5317 135.714C19.8517 135.714 11.9993 135.663 11.9993 135.603C11.9993 135.544 19.8475 135.493 29.5317 135.493C39.2158 135.493 47.0641 135.54 47.0641 135.603Z" fill="#263238"/>
<path d="M29.2179 151.109C29.1585 151.109 29.1077 143.384 29.1077 133.856C29.1077 124.329 29.1585 116.6 29.2179 116.6C29.2773 116.6 29.3281 124.325 29.3281 133.856C29.3281 143.388 29.2815 151.109 29.2179 151.109Z" fill="#263238"/>
</svg>
