<svg fill="none" height="60" viewBox="0 0 60 60" width="60" xmlns="http://www.w3.org/2000/svg" xmlns:xlink="http://www.w3.org/1999/xlink"><clipPath id="a"><path d="m0 0h60v60h-60z"/></clipPath><g clip-path="url(#a)"><path d="m11.7947 10.6425v-5.35307c0-1.01212.8204-1.83289 1.8325-1.83289h18.787c1.0122 0 1.8325.82077 1.8325 1.83289v5.35307l5.6277 6.6605v36.0241c0 1.7556-1.4232 3.1792-3.1791 3.1792h-27.34914c-1.75598 0-3.17917-1.4236-3.17917-3.1792v-36.0241z" fill="#e9e9ea"/><path d="m34.2467 10.6425v-5.35304c0-1.01212-.8203-1.83243-1.8324-1.83243h-3.2872c1.0121 0 1.8324.82031 1.8324 1.83243v5.35304l5.6277 6.6605v36.0242c0 1.7555-1.4236 3.1792-3.1791 3.1792h3.2872c1.7555 0 3.1792-1.4237 3.1792-3.1792v-36.0242z" fill="#c5c4cc"/><path d="m36.6953 56.5059h-27.34914c-1.75598 0-3.17917-1.4232-3.17917-3.1792v-36.0237h33.70741v36.0241c0 1.7556-1.4232 3.1788-3.1791 3.1788z" fill="#8cbafa"/><path d="m39.8745 17.303h-3.2873v36.0241c0 1.7556-1.4236 3.1792-3.1791 3.1792h3.2872c1.7555 0 3.1792-1.4236 3.1792-3.1792z" fill="#5692d8"/><path d="m32.4142 3.45703h-18.7871c-1.0121 0-1.8324.82031-1.8324 1.83243v5.35304h22.4519v-5.35304c0-1.01212-.8203-1.83243-1.8324-1.83243z" fill="#8cbafa"/><path d="m34.2467 10.6425v-5.35307c0-1.01212-.8203-1.83289-1.8324-1.83289h-3.2872c1.0121.00046 1.8324.82077 1.8324 1.83243v5.35353z" fill="#5692d8"/><path d="m42.4018 46.7453c0-3.4465-2.2962-6.2407-5.1288-6.2407-2.8322 0-5.1283 2.7942-5.1283 6.2407 0 3.447 2.2961 6.2407 5.1283 6.2407 2.8326 0 5.1288-2.7937 5.1288-6.2407z" fill="#ffd2c0"/><path d="m55.1358 46.7453c0-3.4465-2.2962-6.2407-5.1284-6.2407-2.8326 0-5.1287 2.7942-5.1287 6.2407 0 3.447 2.2961 6.2407 5.1287 6.2407 2.8322 0 5.1284-2.7937 5.1284-6.2407z" fill="#ffd2c0"/><path d="m50.0074 40.5046c-.2774 0-.5497.0275-.8148.0792 1.7748.4752 3.1307 3.0524 3.1307 6.1615 0 3.1092-1.3559 5.6864-3.1307 6.1615.2651.0513.5374.0792.8148.0792 2.8322 0 5.1284-2.7942 5.1284-6.2407s-2.2962-6.2407-5.1284-6.2407z" fill="#edaa9d"/><path d="m37.2729 40.5046c-.2774 0-.5493.0275-.8148.0792 1.7748.4752 3.1311 3.0524 3.1311 6.1615 0 3.1092-1.3563 5.6864-3.1311 6.1615.2655.0513.5374.0792.8148.0792 2.8327 0 5.1288-2.7942 5.1288-6.2407s-2.2961-6.2407-5.1288-6.2407z" fill="#edaa9d"/><path d="m44.333 47.3835h-14.1197l2.3629 8.4916c.1035.373.4436.6312.8309.6312h7.7321c.3872 0 .7269-.2582.8308-.6312l1.0291-3.6983c.0379-.1369.1629-.2321.3053-.2321h.6711c.1423 0 .2673.0952.3057.2321l1.0291 3.6983c.1035.373.4436.6312.8308.6312h7.7321c.3873 0 .727-.2582.8309-.6312l2.3629-8.4916z" fill="#f9aa4b"/><path d="m54.1374 47.3835-2.363 8.4911c-.1039.3731-.4435.6313-.8308.6313h2.9297c.3873 0 .7269-.2582.8308-.6313l2.363-8.4911z" fill="#c1762b"/><path d="m22.2079 50.4684c0-1.398 1.0689-2.546 2.434-2.6719.141-.0128.249-.1291.249-.2706v-2.839c0-.1351-.0966-.255-.2307-.2733-.8304-.1126-1.4704-.8244-1.4704-1.6855 0-.8615.64-1.5733 1.4704-1.6859.1341-.0179.2307-.1378.2307-.2733v-1.3513c0-.6143-.4976-1.1119-1.1115-1.1119h-19.61146c-1.81641 0-3.289034 1.4726-3.289034 3.289v11.6222c0 1.8164 1.472624 3.289 3.289034 3.289h19.61146c.6139 0 1.112-.4976 1.112-1.1115v-1.9839c0-.1415-.1085-.2573-.2495-.2701-1.3651-.1259-2.434-1.2739-2.434-2.672z" fill="#ffeb96"/><path d="m4.69528 53.2173v-11.6226c0-1.8164 1.47263-3.289 3.28903-3.289h-3.81637c-1.81641 0-3.289034 1.4726-3.289034 3.289v11.6226c0 1.8164 1.472624 3.289 3.289034 3.289h3.81637c-1.8164-.0004-3.28903-1.4726-3.28903-3.289z" fill="#f9aa4b"/><path d="m11.575 42.8292c0 .8341-.6761 1.5102-1.5102 1.5102-.83403 0-1.5106-.6761-1.5106-1.5102 0-.8345.67657-1.5106 1.5106-1.5106.8341 0 1.5102.6761 1.5102 1.5106z" fill="#ffcd34"/><path d="m18.5005 50.2648c0 1.3705-1.111 2.4811-2.4811 2.4811s-2.4811-1.1106-2.4811-2.4811c0-1.3701 1.111-2.4806 2.4811-2.4806s2.4811 1.1105 2.4811 2.4806z" fill="#ffcd34"/><path d="m14.5546 30.3991c5.6492-.1249 11.2985 5.8663 16.9482 5.707.379-.0105.6793-.3246.6793-.7036v-6.1601c0-.3974-.3291-.7109-.7269-.7018-5.6493.125-11.2985-5.8662-16.9482-5.7069-.3791.0105-.6794.3245-.6794.7036v6.1596c0 .3978.3292.7114.727.7022z" fill="#e9e9ea"/><g fill="#5b5b5b"><path d="m59.1211 46.5042h-3.1101c-.1075-3.8145-2.7594-6.8783-6.0035-6.8783-3.2451 0-5.8974 3.0638-6.005 6.8783h-.7251c-.0645-2.2906-1.0469-4.3107-2.5241-5.5591v-23.6242c0-.006 0-.0119 0-.0183 0-.2221-.0824-.4253-.2188-.58l-5.4089-6.4014v-5.03266c0-1.49459-1.2163-2.71042-2.7118-2.71042h-18.7862c-1.495 0-2.7118 1.21583-2.7118 2.71042v5.03266l-5.4208 6.4142c-.13413.1588-.20737.3598-.20737.5672v4.1532c0 .4853.39322.8789.8789.8789.48523 0 .87891-.3936.87891-.8789v-3.2743h31.95006v21.7424c-.5461-.1941-1.1243-.298-1.723-.298-3.2442 0-5.896 3.0638-6.0036 6.8783h-3.1096c-.4857 0-.8789.3932-.8789.8789s.3932.8789.8789.8789h1.3861l2.0494 7.3645h-5.8383c.0087-.0764.0133-.1538.0133-.2325v-1.9835c0-.5983-.4504-1.0909-1.0474-1.1458-.9324-.0856-1.6355-.8583-1.6355-1.7967s.7031-1.7107 1.636-1.7967c.5969-.055 1.0474-.5475 1.0474-1.1454v-2.839c0-.5759-.4267-1.0675-.992-1.1444-.4042-.055-.7095-.4051-.7095-.8148s.3053-.7599.7099-.8149c.5649-.0764.9916-.5685.9916-1.1444v-1.3513c0-1.0977-.8931-1.9908-1.9909-1.9908h-16.73396v-12.4548c0-.4857-.39368-.8789-.87891-.8789-.48568 0-.8789.3932-.8789.8789v12.4548h-1.11969c-.1799 0-.3566.0114-.53009.0339-2.04895.2609-3.63785 2.0155-3.63785 4.134v11.6227c0 2.1189 1.5889 3.8731 3.63785 4.1345.17349.022.35019.0334.53009.0334h19.61146c.0138 0 .0275 0 .0412-.0005h9.5476c.0133.0005.0261.0005.0389.0005h7.7321c.7787 0 1.4685-.5241 1.6777-1.2744l.8231-2.959.8235 2.959c.2092.7503.899 1.2744 1.6777 1.2744h7.7321c.7786 0 1.469-.5241 1.6777-1.2744l2.184-7.8484h1.3861c.4857 0 .8789-.3932.8789-.8789 0-.4852-.3932-.8789-.8789-.8789zm-21.14-30.0801h-29.92126l4.14366-4.9026h21.6348zm-24.3535-12.08816h18.7866c.526 0 .954.42755.954.9526v4.4751h-20.6946v-4.4751c0-.52505.4281-.9526.954-.9526zm36.3799 37.04776c2.2792 0 4.1446 2.2755 4.2448 5.1205h-8.491c.1002-2.845 1.9665-5.1205 4.2462-5.1205zm-12.735 0c.7397 0 1.436.2394 2.0421.6601.0316.0261.0641.0494.0989.0709 1.2094.8931 2.0393 2.5182 2.1052 4.3895h-8.4911c.1003-2.845 1.9657-5.1205 4.2449-5.1205zm-33.10456 14.2433c-1.32889 0-2.41013-1.0813-2.41013-2.4101v-11.6227c0-1.3288 1.08124-2.4096 2.41013-2.4096h.41748c-.48432.6807-.76904 1.5124-.76904 2.4096v2.0691c0 .4853.39367.8789.8789.8789.48569 0 .87891-.3936.87891-.8789v-2.0691c0-1.3288 1.08124-2.4096 2.41012-2.4096h15.79509c.1282 0 .2326.1043.2326.2325v.8849c-.9988.3634-1.7011 1.3266-1.7011 2.4257 0 1.0995.7018 2.0626 1.7011 2.4261v1.8608c-1.5628.3909-2.683 1.7903-2.683 3.4534 0 1.6635 1.1202 3.0629 2.683 3.4543v1.4721c0 .1236-.0966.2248-.2188.2321h-.0138c-.0091 0-.0183 0-.027.0005h-15.76809c-1.32888 0-2.41012-1.0813-2.41012-2.4101v-6.0379c0-.4857-.39322-.879-.87891-.879-.48523 0-.8789.3933-.8789.879v6.0379c0 .8976.28518 1.7294.7695 2.4101zm49.69296 0h-7.7073l-1.0254-3.6855c-.1433-.5154-.6175-.8757-1.1527-.8757h-.6711c-.5351 0-1.0089.3598-1.1521.8753l-1.0259 3.6859h-4.4046c-.0087 0-.0179-.0005-.027-.0005h-3.2753l-2.0494-7.3645h.7768c.0156.0005.0321.0005.0481 0h10.1578c.0077.0005.0155.0005.0233.0005s.0156 0 .0238-.0005h2.4806c.0156.0005.0321.0005.0481 0h10.1578c.0077.0005.0155.0005.0233.0005s.0156 0 .0238-.0005h.7768z"/><path d="m10.0648 45.2183c1.3175 0 2.3895-1.0716 2.3895-2.3895 0-1.3175-1.072-2.3891-2.3895-2.3891-1.31742 0-2.38951 1.0716-2.38951 2.3891 0 1.3174 1.07209 2.3895 2.38951 2.3895zm0-3.0208c.3484 0 .6317.2834.6317.6313 0 .3483-.2833.6317-.6317.6317-.34834 0-.63169-.2834-.63169-.6317 0-.3479.28335-.6313.63169-.6313z"/><path d="m16.0194 53.6248c1.853 0 3.36-1.5075 3.36-3.36 0-1.8526-1.507-3.36-3.36-3.36-1.8526 0-3.36 1.5074-3.36 3.36 0 1.8525 1.5074 3.36 3.36 3.36zm0-4.9622c.8835 0 1.6022.7187 1.6022 1.6022s-.7187 1.6021-1.6022 1.6021-1.6022-.7186-1.6022-1.6021.7187-1.6022 1.6022-1.6022z"/><path d="m14.5738 31.278c2.5951-.0567 5.2322 1.3088 8.0269 2.7558 2.807 1.4529 5.7069 2.9544 8.681 2.9544.0819 0 .1639-.0014.2458-.0037.8597-.0243 1.5335-.7191 1.5335-1.582v-6.1602c0-.4275-.1684-.828-.4742-1.1274-.3085-.3017-.7155-.4674-1.1508-.4532-2.5919.0554-5.2323-1.3092-8.0269-2.7558-2.8844-1.4932-5.8685-3.0381-8.9269-2.9507-.8601.0243-1.5335.7192-1.5335 1.582v6.1597c0 .428.1685.8286.4743 1.1279.309.3017.7155.4619 1.1508.4532zm.1327-7.5686h.0261c2.5411 0 5.1311 1.3403 7.8681 2.7575 2.807 1.453 5.7069 2.9544 8.6805 2.9544h.022v5.8086c-.0087.0005-.0174.0005-.0261.0005-2.541 0-5.1306-1.3408-7.868-2.7576-2.807-1.4534-5.707-2.9544-8.6806-2.9544h-.022z"/></g></g></svg>