<svg width="227" height="227" viewBox="0 0 227 227" fill="none" xmlns="http://www.w3.org/2000/svg">
<path d="M123.107 171.953H75.8225V208.423H123.107V171.953Z" fill="#EBEBEB"/>
<path d="M111.262 208.169C111.198 208.169 111.144 200.037 111.144 190.009C111.144 179.98 111.198 171.849 111.262 171.849C111.325 171.849 111.38 179.98 111.38 190.009C111.38 200.037 111.325 208.169 111.262 208.169Z" fill="#E0E0E0"/>
<path d="M119.098 200.124H115.475V204.224H119.098V200.124Z" fill="#FAFAFA"/>
<path d="M95.6214 172.048H90.2506V179.829H95.6214V172.048Z" fill="#E0E0E0"/>
<path d="M95.6214 200.532H90.2506V208.314H95.6214V200.532Z" fill="#E0E0E0"/>
<path d="M208.908 162.81H149.284V208.795H208.908V162.81Z" fill="#EBEBEB"/>
<path d="M193.967 208.468C193.903 208.468 193.849 198.221 193.849 185.577C193.849 172.933 193.903 162.687 193.967 162.687C194.03 162.687 194.085 172.933 194.085 185.577C194.085 198.221 194.035 208.468 193.967 208.468Z" fill="#E0E0E0"/>
<path d="M203.851 198.326H199.279V203.493H203.851V198.326Z" fill="#FAFAFA"/>
<path d="M174.245 162.928H167.472V172.739H174.245V162.928Z" fill="#E0E0E0"/>
<path d="M174.245 198.844H167.472V208.655H174.245V198.844Z" fill="#E0E0E0"/>
<path d="M36.9828 164.162C39.3981 162.918 42.2402 162.755 44.9188 163.199C46.3579 163.436 47.8561 163.867 48.8368 164.947C49.8174 166.028 49.999 167.93 48.8776 168.861C48.2057 169.415 47.275 169.496 46.4033 169.487C44.3059 169.46 41.9814 169.092 40.3061 170.354C39.3482 171.076 38.7126 172.27 37.5821 172.624C36.4517 172.979 35.2032 172.311 34.613 171.303C34.0669 170.252 33.9466 169.031 34.277 167.894C34.4107 167.106 34.7243 166.359 35.1936 165.712C35.6629 165.064 36.2752 164.534 36.9828 164.162Z" fill="#EBEBEB"/>
<path d="M31.4531 153.489C32.9286 155.596 35.7979 154.901 37.1281 153.612C38.4583 152.322 39.0213 150.461 39.5297 148.686C40.7011 144.623 41.8769 140.36 41.0098 136.224C40.801 134.969 40.2495 133.797 39.4162 132.837C38.9944 132.365 38.4566 132.012 37.8562 131.812C37.2557 131.612 36.6135 131.572 35.9931 131.697C34.5448 132.079 33.6459 133.513 32.9967 134.843C31.0826 138.82 30.0806 143.174 30.0638 147.587C30.0638 149.644 30.2954 151.796 31.4531 153.489Z" fill="#EBEBEB"/>
<path d="M27.4034 156.512C29.0061 154.61 29.3102 151.84 28.5975 149.457C27.8847 147.073 26.273 145.048 24.4161 143.391C22.2322 141.449 19.6909 139.95 16.9342 138.979C15.8658 138.547 14.7165 138.352 13.5655 138.406C12.9913 138.439 12.4339 138.612 11.9417 138.909C11.4495 139.207 11.0375 139.62 10.7416 140.114C9.95168 141.616 10.7099 143.437 11.5271 144.926C12.9661 147.546 14.6086 150.049 16.4393 152.412C17.9148 154.31 19.6173 156.185 21.8465 157.043C24.0756 157.901 26.4273 157.801 27.6168 156.244" fill="#EBEBEB"/>
<path d="M31.3532 185.278C31.4321 184.966 31.4777 184.646 31.4894 184.324C31.5575 183.625 31.6392 182.749 31.7437 181.709C31.8738 180.423 32.0693 179.144 32.3293 177.878C32.6705 176.329 33.1366 174.811 33.7231 173.338C34.2983 171.874 35.0762 170.499 36.034 169.252C36.8169 168.237 37.8136 167.408 38.9532 166.823C39.7282 166.441 40.5586 166.183 41.4139 166.06C41.7358 166.047 42.0554 166 42.3673 165.919C42.0459 165.884 41.7216 165.884 41.4002 165.919C40.5121 165.986 39.6433 166.212 38.8351 166.587C37.6317 167.154 36.5765 167.993 35.7525 169.038C34.7501 170.302 33.9422 171.708 33.3554 173.21C32.7695 174.701 32.3138 176.24 31.9934 177.809C31.7464 179.092 31.5751 180.388 31.4803 181.691C31.3986 182.803 31.3668 183.702 31.3532 184.324C31.3198 184.641 31.3198 184.961 31.3532 185.278Z" fill="#E0E0E0"/>
<path d="M31.5348 183.271C31.5618 183.122 31.5709 182.969 31.5621 182.817C31.5621 182.481 31.5621 182.059 31.5621 181.546C31.5621 180.443 31.5621 178.845 31.6165 176.874C31.7164 172.934 32.0705 168.702 32.7107 162.714C33.3327 157.089 34.1635 150.547 35.0442 146.293C35.2304 145.326 35.4211 144.454 35.6027 143.692C35.7843 142.929 35.9159 142.266 36.0567 141.735C36.1974 141.204 36.2746 140.827 36.3563 140.5C36.4007 140.352 36.4266 140.2 36.4335 140.046C36.3651 140.178 36.3132 140.319 36.2791 140.464C36.1792 140.786 36.0567 141.185 35.9068 141.68C35.757 142.175 35.5754 142.865 35.3847 143.623C35.1941 144.382 34.9761 145.253 34.7718 146.22C33.6812 151.251 32.8613 156.338 32.3157 161.457C31.6619 167.449 31.3668 172.906 31.3396 176.856C31.3396 178.831 31.3396 180.434 31.4077 181.537C31.4395 182.05 31.4667 182.472 31.4849 182.804C31.4827 182.961 31.4994 183.118 31.5348 183.271Z" fill="#E0E0E0"/>
<path d="M31.5621 172.747C31.5967 172.304 31.5967 171.86 31.5621 171.417C31.5121 170.563 31.3941 169.333 31.1535 167.821C30.8565 166.054 30.4594 164.305 29.964 162.582C29.3914 160.462 28.6584 158.389 27.7712 156.38C26.2522 152.679 24.0723 149.286 21.338 146.365C20.8636 145.864 20.3571 145.394 19.8216 144.958C19.5901 144.758 19.3676 144.563 19.177 144.408L18.614 144.004C18.2607 143.735 17.8856 143.495 17.4926 143.287C17.4291 143.373 19.0771 144.345 21.1564 146.556C23.8013 149.504 25.9232 152.882 27.4307 156.544C28.3026 158.539 29.0383 160.592 29.6326 162.687C30.1318 164.393 30.5455 166.123 30.872 167.871C31.1444 169.365 31.326 170.595 31.3986 171.431C31.4181 171.873 31.4727 172.313 31.5621 172.747Z" fill="#E0E0E0"/>
<path d="M20.6842 189.709L21.7375 204.16H40.3015L41.3548 189.709H20.6842Z" fill="#EBEBEB"/>
<path d="M43.5659 184.016H18.891V189.709H43.5659V184.016Z" fill="#EBEBEB"/>
<path d="M18.891 203.605V205.181H20.0532H43.1618V203.605H18.891Z" fill="#E0E0E0"/>
<path d="M21.1882 207.787L20.0532 205.009H42.2765L40.9508 207.787H21.1882Z" fill="#E0E0E0"/>
<path d="M41.0098 194.43C40.9866 194.479 40.9576 194.525 40.9235 194.567C40.8509 194.662 40.7555 194.785 40.6466 194.934L39.566 196.296L39.5161 196.36L39.4707 196.296L36.8148 192.624H36.9646L34.3496 196.324L34.2679 196.442L34.1771 196.333L31.0762 192.642H31.2533L31.0853 192.86L28.3114 196.333L28.216 196.451L28.1343 196.328L25.5147 192.628H25.6691L22.4457 196.296L22.3912 196.364L22.3458 196.287L21.3379 194.617C21.229 194.435 21.1473 194.285 21.0792 194.163C21.0449 194.112 21.0175 194.057 20.9974 193.999C21.0399 194.043 21.0765 194.091 21.1064 194.144L21.3924 194.576L22.4502 196.242H22.3504L25.5284 192.528L25.6055 192.433L25.6782 192.533L28.3205 196.219H28.1479L30.9128 192.737C30.9718 192.664 31.0308 192.592 31.0808 192.524L31.1716 192.41L31.2624 192.519L34.3541 196.219H34.1816L36.8239 192.537L36.9011 192.428L36.9737 192.537C38.0224 194.031 38.9123 195.298 39.5751 196.251H39.4798L40.6057 194.889C40.7283 194.748 40.8282 194.635 40.9053 194.539C40.9374 194.501 40.9723 194.464 41.0098 194.43Z" fill="#F5F5F5"/>
<path d="M41.6137 189.613C41.6137 189.677 36.9602 189.732 31.2261 189.732C25.4921 189.732 20.8386 189.677 20.8386 189.613C20.8386 189.55 25.4876 189.5 31.2261 189.5C36.9647 189.5 41.6137 189.55 41.6137 189.613Z" fill="#F5F5F5"/>
<path d="M171.804 25.788L167.999 25.8086L168.102 44.7401L171.906 44.7195L171.804 25.788Z" fill="#E0E0E0"/>
<path d="M144.891 25.8383L135.04 25.8916L135.096 36.3425L144.948 36.2892L144.891 25.8383Z" fill="#EBEBEB"/>
<path d="M154.697 25.7856L144.846 25.8389L144.902 36.2898L154.754 36.2365L154.697 25.7856Z" fill="#F5F5F5"/>
<path d="M135.051 28.7838C141.601 28.8382 148.154 28.808 154.71 28.693C154.737 28.693 154.764 28.682 154.783 28.6624C154.803 28.6428 154.814 28.6162 154.814 28.5885C154.814 28.5608 154.803 28.5343 154.783 28.5147C154.764 28.4951 154.737 28.4841 154.71 28.4841C148.163 28.4478 141.598 28.4841 135.051 28.6067C135.031 28.6113 135.013 28.6225 135.001 28.6386C134.988 28.6547 134.981 28.6747 134.981 28.6952C134.981 28.7158 134.988 28.7358 135.001 28.7519C135.013 28.7679 135.031 28.7792 135.051 28.7838Z" fill="#E0E0E0"/>
<path d="M146.799 36.116L128.898 36.2129L128.944 44.7298L146.845 44.633L146.799 36.116Z" fill="#EBEBEB"/>
<path d="M164.613 36.0194L146.712 36.1162L146.758 44.6331L164.659 44.5363L164.613 36.0194Z" fill="#F5F5F5"/>
<path d="M128.909 38.5906C140.799 38.7223 152.73 38.5906 164.625 38.4136C164.653 38.4136 164.679 38.4026 164.699 38.383C164.718 38.3634 164.729 38.3369 164.729 38.3092C164.729 38.2815 164.718 38.2549 164.699 38.2353C164.679 38.2158 164.653 38.2047 164.625 38.2047C152.735 38.1412 140.799 38.1457 128.909 38.409C128.885 38.409 128.862 38.4186 128.845 38.4356C128.828 38.4527 128.818 38.4758 128.818 38.4998C128.818 38.5239 128.828 38.547 128.845 38.5641C128.862 38.5811 128.885 38.5906 128.909 38.5906Z" fill="#E0E0E0"/>
<path d="M191.565 44.7373H122.212V47.7882H191.565V44.7373Z" fill="#E0E0E0"/>
<path d="M136.382 46.2041H133.567V56.6143H136.382V46.2041Z" fill="#E0E0E0"/>
<path d="M178.408 46.2041H175.594V56.6143H178.408V46.2041Z" fill="#E0E0E0"/>
<path d="M175.515 18.7265L171.711 18.7471L171.852 44.7836L175.656 44.763L175.515 18.7265Z" fill="#EBEBEB"/>
<path d="M181.457 23.5745L175.546 23.6064L175.66 44.7081L181.571 44.6761L181.457 23.5745Z" fill="#F5F5F5"/>
<path d="M181.418 27.6494C179.453 27.7882 177.481 27.7882 175.516 27.6494C177.481 27.5166 179.453 27.5166 181.418 27.6494Z" fill="#E0E0E0"/>
<path d="M181.418 26.7867C180.437 26.8861 179.449 26.9194 178.463 26.8866C177.477 26.9193 176.489 26.8859 175.507 26.7867C177.472 26.6479 179.444 26.6479 181.409 26.7867H181.418Z" fill="#E0E0E0"/>
<path d="M181.418 41.5097C179.453 41.6485 177.481 41.6485 175.516 41.5097C177.481 41.377 179.453 41.377 181.418 41.5097Z" fill="#E0E0E0"/>
<path d="M181.418 40.6246C179.453 40.7574 177.481 40.7574 175.516 40.6246C177.481 40.4858 179.453 40.4858 181.418 40.6246Z" fill="#E0E0E0"/>
<path d="M178.558 38.69C178.504 38.69 178.458 36.5608 178.458 33.9366C178.458 31.3125 178.504 29.1787 178.558 29.1787C178.613 29.1787 178.663 31.308 178.663 33.9366C178.663 36.5653 178.617 38.69 178.558 38.69Z" fill="#E0E0E0"/>
<path d="M187.92 28.7656H181.486V44.6919H187.92V28.7656Z" fill="#EBEBEB"/>
<path d="M173.555 24.2762C174.159 24.2762 174.649 23.7863 174.649 23.182C174.649 22.5778 174.159 22.0879 173.555 22.0879C172.951 22.0879 172.461 22.5778 172.461 23.182C172.461 23.7863 172.951 24.2762 173.555 24.2762Z" fill="#E0E0E0"/>
<path d="M173.896 26.1914H173.219V41.6819H173.896V26.1914Z" fill="#E0E0E0"/>
<path d="M210.956 208.545C210.956 208.613 167.317 208.663 113.504 208.663C59.6919 208.663 16.0443 208.613 16.0443 208.545C16.0443 208.477 59.6737 208.427 113.504 208.427C167.335 208.427 210.956 208.481 210.956 208.545Z" fill="#263238"/>
<path d="M67.7415 41.9268C69.8824 44.5469 71.0417 47.8321 71.0193 51.2156C70.9966 53.1315 70.6425 55.2426 71.7593 56.7998C72.6038 57.9802 74.1474 58.5749 74.8329 59.8552C75.6592 61.3943 74.9555 63.3419 75.464 65.0127C76.1813 67.3825 78.9598 68.3768 80.6078 70.2246C81.3103 71.0417 81.8018 72.0185 82.0392 73.0696C82.2767 74.1207 82.2528 75.214 81.9698 76.2537C81.6696 77.2891 81.1266 78.2379 80.3859 79.0212C79.6452 79.8045 78.7283 80.3997 77.7113 80.7574C76.6254 81.1855 75.4141 81.1659 74.3426 80.7029C73.2303 80.149 72.5266 79.0095 71.9818 77.8972C70.8877 75.7089 61.2765 63.8822 60.7317 61.4942" fill="#263238"/>
<path d="M60.7498 39.1395C56.8181 38.5039 53.0318 41.1144 51.3838 44.7373C49.7357 48.3602 49.6813 52.4553 49.5678 56.4505C49.4543 60.4457 49.1637 64.5862 47.1343 68.0094C45.845 70.184 43.8474 72.0954 43.5341 74.5969C43.2526 76.8397 44.4149 79.1006 44.029 81.3297C43.693 83.2728 42.213 84.9617 42.272 86.9275C42.3446 89.2974 44.7826 91.0816 47.1479 91.1452C49.5133 91.2088 51.7288 89.9693 53.5857 88.4984C56.611 86.0963 59.0318 83.0193 60.6544 79.5137" fill="#263238"/>
<path d="M54.2803 48.5095C54.1567 47.5206 54.2332 46.5168 54.505 45.5579C54.7769 44.5991 55.2386 43.7046 55.8627 42.9275C56.4869 42.1505 57.2608 41.5068 58.1385 41.0346C59.0162 40.5624 59.9799 40.2713 60.9722 40.1786C64.9356 39.7973 68.4632 42.7528 69.058 46.6935C69.58 50.1485 70.025 53.6352 70.0114 54.9019C69.9614 58.72 67.7414 60.2046 66.8334 60.6541C66.5067 60.7713 66.169 60.8549 65.8255 60.9037V60.931L66.6699 65.3166C67.0558 68.1904 65.4532 70.7646 62.5839 71.1687C59.7146 71.5727 57.4582 69.3799 57.0179 66.5061L54.2803 48.5095Z" fill="#FFBE9D"/>
<path d="M68.2771 48.3641C68.2136 48.4549 67.7096 48.187 67.0649 48.2823C66.4203 48.3777 65.989 48.7681 65.9072 48.7C65.8255 48.6319 65.9072 48.5184 66.107 48.3368C66.3553 48.095 66.6726 47.9363 67.015 47.8828C67.351 47.831 67.6947 47.8883 67.9957 48.0463C68.2227 48.1915 68.3089 48.3277 68.2771 48.3641Z" fill="#263238"/>
<path d="M62.5294 49.7631C62.4659 49.8539 61.962 49.5815 61.3127 49.6768C60.6635 49.7722 60.2413 50.1671 60.1596 50.099C60.0778 50.0309 60.1596 49.9129 60.3593 49.7359C60.6076 49.494 60.9249 49.3353 61.2673 49.2819C61.6037 49.234 61.9467 49.2927 62.248 49.4498C62.4704 49.5906 62.5612 49.7222 62.5294 49.7631Z" fill="#263238"/>
<path d="M64.8858 53.2263C65.2105 53.0701 65.5537 52.9557 65.9073 52.8858C66.0707 52.845 66.2205 52.7905 66.2341 52.6724C66.2194 52.5066 66.1563 52.3487 66.0525 52.2184L65.3761 51.0108C64.4363 49.3219 63.7326 47.9236 63.8007 47.8827C63.8688 47.8419 64.7087 49.1903 65.6167 50.8791C65.8482 51.2968 66.0707 51.6963 66.2705 52.0732C66.4024 52.2578 66.4665 52.4823 66.4521 52.7088C66.4371 52.7707 66.408 52.8284 66.367 52.8772C66.3261 52.926 66.2744 52.9647 66.216 52.9902C66.1275 53.029 66.0344 53.0564 65.939 53.072C65.5962 53.1691 65.2421 53.221 64.8858 53.2263Z" fill="#263238"/>
<path d="M65.7892 60.9082C65.7892 60.9082 63.324 61.4757 59.9281 60.0547C59.9281 60.0547 61.3945 63.21 66.0208 62.0886L65.7892 60.9082Z" fill="#EB996E"/>
<path d="M62.1981 48.0689C62.1618 48.255 61.5035 48.2641 60.7589 48.4684C60.0143 48.6727 59.4287 48.9633 59.3061 48.8225C59.2516 48.7544 59.3333 48.5728 59.5558 48.3685C59.8553 48.1123 60.2093 47.9277 60.5908 47.8286C60.9723 47.7294 61.3713 47.7185 61.7577 47.7965C62.0573 47.8646 62.1981 47.9826 62.1981 48.0689Z" fill="#263238"/>
<path d="M67.746 46.9343C67.6552 47.0977 67.1875 47.0115 66.6518 47.0796C66.1161 47.1477 65.6757 47.3247 65.5486 47.184C65.4941 47.1159 65.5486 46.9615 65.7211 46.7936C65.9592 46.5825 66.258 46.4522 66.5746 46.4213C66.8874 46.3836 67.2041 46.4422 67.4826 46.5893C67.7006 46.7118 67.7868 46.8526 67.746 46.9343Z" fill="#263238"/>
<path d="M61.1266 50.5976C61.1366 50.6679 61.1605 50.7355 61.1968 50.7964C61.2331 50.8574 61.2811 50.9105 61.3382 50.9528C61.3952 50.995 61.46 51.0255 61.5289 51.0425C61.5978 51.0594 61.6694 51.0626 61.7395 51.0516C61.8077 51.0438 61.8736 51.0224 61.9335 50.9889C61.9933 50.9553 62.0459 50.9102 62.0882 50.8561C62.1304 50.802 62.1615 50.7401 62.1796 50.6739C62.1977 50.6077 62.2024 50.5386 62.1935 50.4705C62.1722 50.3291 62.0958 50.202 61.9809 50.1169C61.866 50.0318 61.7221 49.9957 61.5806 50.0165C61.5122 50.0238 61.446 50.0447 61.3858 50.0781C61.3256 50.1115 61.2728 50.1566 61.2304 50.2108C61.1881 50.265 61.1571 50.3272 61.1392 50.3937C61.1214 50.4601 61.1171 50.5295 61.1266 50.5976Z" fill="#263238"/>
<path d="M66.8516 49.3584C66.8729 49.4997 66.9494 49.6269 67.0643 49.712C67.1791 49.7971 67.3231 49.8332 67.4645 49.8124C67.5327 49.8045 67.5986 49.7832 67.6585 49.7496C67.7183 49.716 67.7709 49.6709 67.8132 49.6168C67.8554 49.5628 67.8865 49.5008 67.9046 49.4346C67.9226 49.3684 67.9274 49.2993 67.9185 49.2312C67.8972 49.0899 67.8207 48.9627 67.7059 48.8776C67.591 48.7925 67.4471 48.7564 67.3056 48.7772C67.2372 48.7845 67.1709 48.8054 67.1108 48.8388C67.0506 48.8722 66.9978 48.9174 66.9554 48.9716C66.9131 49.0258 66.8821 49.088 66.8642 49.1544C66.8464 49.2209 66.8421 49.2902 66.8516 49.3584Z" fill="#263238"/>
<path d="M65.9027 54.4794C65.7245 54.424 65.5324 54.4327 65.36 54.504C65.1875 54.5753 65.0454 54.7048 64.9584 54.8699C64.8752 55.0215 64.8415 55.1953 64.8619 55.367C64.8822 55.5387 64.9556 55.6998 65.0719 55.8278C65.1956 55.9494 65.3585 56.023 65.5315 56.0354C65.7045 56.0479 65.8763 55.9985 66.0162 55.8959C66.1913 55.7365 66.2972 55.5149 66.3113 55.2785C66.3421 55.0617 66.2903 54.8413 66.166 54.661C66.1022 54.5729 66.0112 54.5082 65.907 54.4771C65.8027 54.4459 65.6911 54.4499 65.5894 54.4885" fill="#EB996E"/>
<path d="M68.5541 43.5838C68.1977 42.1454 67.3085 40.8959 66.0661 40.088C65.0493 39.3535 63.8414 38.9293 62.5885 38.8667C61.3279 38.8124 60.097 39.2597 59.1653 40.1107C58.5042 40.766 58.1261 41.6542 58.1121 42.585L58.1847 41.9494C57.9939 42.4666 57.9939 43.0348 58.1847 43.552C58.2891 43.8289 58.4162 44.1104 58.5252 44.3874C58.8502 45.1877 59.4531 45.8438 60.2232 46.2351C60.5719 46.4222 60.9625 46.5175 61.3582 46.5121C61.5563 46.5081 61.7511 46.4609 61.9291 46.3739C62.1071 46.2869 62.264 46.162 62.3887 46.0081C62.6706 45.516 62.7581 44.9362 62.6339 44.3828C62.9318 44.9297 63.3569 45.3968 63.8733 45.7448C64.137 45.9133 64.4506 45.9859 64.7615 45.9503C65.0724 45.9148 65.3615 45.7733 65.5804 45.5496C65.9526 45.0956 65.8074 44.3783 65.5804 43.8153C65.9316 44.3463 66.4236 44.7692 67.0014 45.0366C67.1534 45.1238 67.3219 45.1785 67.4962 45.1973C67.6704 45.216 67.8467 45.1984 68.0138 45.1455C68.1474 45.0793 68.2642 44.9836 68.3554 44.8656C68.4467 44.7476 68.5099 44.6105 68.5404 44.4645C68.6078 44.1753 68.6125 43.875 68.5541 43.5838Z" fill="#263238"/>
<path d="M65.2716 44.7911C65.2308 44.7911 65.2399 44.2508 65.0628 43.4291C64.8586 42.3371 64.3096 41.3394 63.4965 40.5825C63.0496 40.1761 62.5105 39.8847 61.9257 39.7335C61.4467 39.6159 60.948 39.6036 60.4638 39.6972C60.0175 39.8015 59.5912 39.9778 59.2017 40.2193C59.2017 40.2193 59.2788 40.1058 59.4786 39.9605C59.7653 39.76 60.0872 39.6152 60.4275 39.5337C60.9366 39.4145 61.4664 39.4145 61.9756 39.5337C62.603 39.6904 63.1807 40.0026 63.6554 40.4417C64.5067 41.2299 65.0627 42.2857 65.2308 43.4336C65.2848 43.7729 65.3121 44.116 65.3125 44.4596C65.3181 44.5716 65.3043 44.6838 65.2716 44.7911Z" fill="#455A64"/>
<path d="M107.085 97.723L89.6287 90.7995C89.6287 90.7995 80.6895 79.0727 80.8756 78.8457L74.5968 85.7193L83.7222 98.0635L104.874 103.021L108.506 102.013C107.707 98.1589 107.085 97.723 107.085 97.723Z" fill="#FFBE9D"/>
<path d="M69.0398 64.2684L66.6608 63.3604L56.3913 64.6633V66.4793L56.0962 66.5157C53.8825 66.9863 51.7593 67.8111 49.8083 68.9582C47.9809 70.0737 46.5288 71.7104 45.6389 73.6578C44.749 75.6051 44.4618 77.7741 44.8143 79.886C45.232 82.4828 46.0401 85.6381 47.6019 87.4632C50.5847 90.9545 53.3087 86.6415 53.3087 86.6415C53.3087 86.6415 55.1792 90.9091 55.0702 92.9294C54.9794 94.6228 54.2348 98.1458 53.9942 99.2445C53.9843 99.2884 53.9835 99.3339 53.9918 99.3781C54 99.4224 54.0172 99.4645 54.0423 99.5019C54.0673 99.5392 54.0998 99.5711 54.1375 99.5956C54.1753 99.62 54.2177 99.6365 54.2621 99.644L75.927 103.653L76.0314 98.3547L75.3413 76.5627L74.3652 68.1001C74.3652 68.1001 74.397 64.0595 69.0398 64.2684Z" fill="#00A63E"/>
<path d="M74.0338 66.6924L82.2966 78.628L75.6455 86.7274L74.0338 66.6924Z" fill="#00A63E"/>
<path d="M75.818 91.8074C75.7884 91.5513 75.7777 91.2933 75.7862 91.0356C75.7862 90.4999 75.7862 89.7962 75.759 88.9382C75.7188 86.6352 75.5536 84.3361 75.2642 82.051C74.9237 79.3724 74.4015 76.9798 74.0066 75.241L73.5253 73.198C73.4556 72.9509 73.404 72.699 73.371 72.4443C73.4742 72.6802 73.5563 72.9248 73.6161 73.1753C73.7569 73.6293 73.9476 74.342 74.1655 75.2046C74.7517 77.4447 75.1975 79.7191 75.5002 82.0147C75.7921 84.3093 75.9346 86.6205 75.927 88.9336C75.927 89.8416 75.9043 90.5408 75.8771 91.0356C75.8794 91.2941 75.8596 91.5523 75.818 91.8074Z" fill="#263238"/>
<path d="M55.4788 73.6608C55.4788 73.6971 54.8523 73.6926 53.8489 73.7425C52.5398 73.8135 51.2377 73.982 49.9536 74.2465C48.6698 74.5159 47.4074 74.8785 46.1763 75.3315C45.232 75.6811 44.6645 75.9399 44.6464 75.9036C44.7627 75.8124 44.8911 75.7375 45.0277 75.6811C45.2774 75.5449 45.6497 75.3724 46.1173 75.1772C48.5671 74.1655 51.1852 73.6234 53.8353 73.5791C54.3438 73.5791 54.7433 73.5791 55.0384 73.6063C55.1872 73.6016 55.3357 73.6199 55.4788 73.6608Z" fill="#FAFAFA"/>
<path d="M74.615 79.1233C74.2829 79.2439 73.9364 79.3202 73.5844 79.3503C71.9056 79.5953 70.2048 79.6532 68.5132 79.5228C68.1599 79.5167 67.8089 79.4648 67.469 79.3684C67.8194 79.3373 68.1719 79.3373 68.5223 79.3684C69.167 79.3684 70.0613 79.3684 71.0465 79.3684C72.0317 79.3684 72.9215 79.2686 73.5662 79.2095C73.9125 79.149 74.2635 79.1202 74.615 79.1233Z" fill="#FAFAFA"/>
<path d="M78.4058 73.7252C77.9054 74.3034 77.3058 74.7877 76.6352 75.1552C76.0022 75.5832 75.2958 75.891 74.5514 76.0632C74.5241 75.9997 75.4594 75.6093 76.5126 74.9373C77.5659 74.2654 78.3604 73.6707 78.4058 73.7252Z" fill="#FAFAFA"/>
<path d="M75.0689 68.1908C73.6366 69.4793 71.8115 70.2471 69.8888 70.37C69.8888 70.2973 71.1373 70.1067 72.5719 69.4938C74.0066 68.8809 75.0235 68.1318 75.0689 68.1908Z" fill="#FAFAFA"/>
<path d="M75.5184 88.3667C75.3849 88.4565 75.2417 88.5311 75.0917 88.5891C74.8056 88.7253 74.3925 88.8933 73.8659 89.0885C72.4976 89.5802 71.0852 89.939 69.6482 90.16C68.2113 90.3818 66.7561 90.4624 65.3034 90.4006C64.745 90.3779 64.2956 90.337 63.9868 90.2962C63.8252 90.2855 63.6653 90.2565 63.5101 90.2099C63.5101 90.1691 64.2002 90.2099 65.3261 90.2372C68.2127 90.2641 71.0845 89.8225 73.8295 88.9296C74.8647 88.5891 75.5048 88.3304 75.5184 88.3667Z" fill="#FAFAFA"/>
<path d="M75.6863 94.5176C75.6863 94.5176 75.6228 94.563 75.4911 94.6311L74.91 94.8853C74.4106 95.1214 73.6706 95.4301 72.7444 95.7933C71.8183 96.1565 70.6969 96.5061 69.4348 96.8511C66.6909 97.59 63.8745 98.0269 61.0358 98.1541C59.7282 98.2041 58.5524 98.1995 57.5627 98.1541C56.5729 98.1087 55.7784 98.0361 55.2291 97.9589L54.598 97.8726C54.5237 97.8672 54.4504 97.852 54.3801 97.8272C54.4538 97.8155 54.5289 97.8155 54.6026 97.8272L55.2382 97.8681C55.7875 97.9135 56.6002 97.9589 57.5672 97.9861C58.5342 98.0134 59.7282 97.9861 61.0267 97.9407C62.3251 97.8953 63.7507 97.7319 65.2353 97.4867C66.7198 97.2416 68.1182 96.9465 69.3803 96.6287C70.6424 96.3109 71.7593 95.9522 72.6854 95.6208C73.6116 95.2894 74.3652 95.0124 74.8737 94.8036L75.4639 94.5721C75.5359 94.5462 75.6105 94.5279 75.6863 94.5176Z" fill="#FAFAFA"/>
<path d="M35.8661 191.034L33.4099 202.125L28.9289 210.338C28.8527 210.478 28.8061 210.633 28.792 210.792C28.7778 210.951 28.7964 211.111 28.8466 211.262C28.8968 211.414 28.9776 211.554 29.0839 211.673C29.1902 211.792 29.3198 211.888 29.4647 211.954C29.6328 212.032 29.8171 212.067 30.0019 212.059C30.1868 212.05 30.3668 211.997 30.527 211.905C32.6063 210.706 40.2381 206.243 40.3697 205.421C40.5286 204.473 43.7384 193.894 43.7384 193.894L35.8661 191.034Z" fill="#00A63E"/>
<g opacity="0.6">
<path d="M29.4647 211.954L40.5559 204.69L40.4379 205.144C40.3408 205.55 40.1026 205.907 39.766 206.152C38.858 206.802 36.3292 208.545 30.5634 211.914C30.3979 212.011 30.2109 212.065 30.0192 212.072C29.8275 212.079 29.637 212.039 29.4647 211.954Z" fill="white"/>
</g>
<g opacity="0.6">
<path d="M39.162 200.564C39.0019 200.631 38.872 200.754 38.7974 200.911C38.7228 201.068 38.7088 201.246 38.758 201.413C38.8186 201.575 38.939 201.707 39.0943 201.783C39.2497 201.859 39.4283 201.873 39.5933 201.821C39.7649 201.75 39.9037 201.618 39.9826 201.45C40.0616 201.282 40.0749 201.091 40.0201 200.913C39.9397 200.753 39.8009 200.629 39.632 200.567C39.4632 200.505 39.2772 200.511 39.1121 200.582" fill="white"/>
</g>
<path d="M33.1693 207.75C32.9862 207.342 32.7291 206.971 32.4112 206.656C32.0449 206.401 31.6336 206.218 31.199 206.116C31.199 206.084 31.3579 206.034 31.6257 206.062C31.9743 206.106 32.3023 206.252 32.5701 206.479C32.8398 206.698 33.0389 206.992 33.1421 207.324C33.2193 207.582 33.1966 207.75 33.1693 207.75Z" fill="#263238"/>
<path d="M32.0207 209.035C31.9571 209.071 31.6893 208.626 31.1581 208.322C30.8192 208.165 30.4704 208.03 30.1139 207.918C30.3099 207.854 30.5184 207.837 30.722 207.87C30.9257 207.902 31.1188 207.982 31.2852 208.104C31.889 208.454 32.0843 209.021 32.0207 209.035Z" fill="#263238"/>
<path d="M35.0942 206.216C34.7082 205.787 34.2892 205.389 33.8412 205.026C33.3476 204.725 32.8315 204.463 32.2976 204.241C32.9116 204.228 33.5101 204.434 33.9865 204.822C34.5117 205.138 34.9051 205.633 35.0942 206.216Z" fill="#263238"/>
<path d="M36.1248 202.906C36.0794 202.965 35.5301 202.561 34.7628 202.338C33.9955 202.116 33.3009 202.152 33.2964 202.075C33.8017 201.944 34.333 201.952 34.8341 202.098C35.3351 202.245 35.7874 202.524 36.143 202.906H36.1248Z" fill="#263238"/>
<path d="M36.9284 199.669C36.4855 199.395 36.0075 199.183 35.5074 199.038C34.9922 198.968 34.4699 198.968 33.9547 199.038C33.9547 199.011 34.0955 198.902 34.386 198.815C34.7679 198.712 35.1688 198.699 35.5567 198.777C35.9445 198.856 36.3086 199.025 36.6197 199.269C36.8512 199.487 36.9466 199.651 36.9284 199.669Z" fill="#263238"/>
<path d="M35.6754 198.425C35.6757 198.281 35.7067 198.139 35.7662 198.008C35.8948 197.633 36.0988 197.288 36.3655 196.995C36.54 196.763 36.7854 196.594 37.0646 196.514C37.1597 196.498 37.2572 196.512 37.3447 196.552C37.4321 196.593 37.5053 196.658 37.555 196.741C37.6384 196.91 37.6562 197.104 37.6049 197.286C37.4885 197.65 37.2491 197.962 36.9278 198.169C36.6064 198.376 36.2231 198.465 35.8434 198.421C35.4689 198.367 35.1187 198.204 34.8367 197.952C34.5548 197.7 34.3537 197.37 34.2589 197.004C34.2371 196.911 34.2352 196.815 34.2531 196.721C34.2711 196.627 34.3087 196.538 34.3633 196.459C34.4261 196.386 34.5105 196.335 34.6044 196.313C34.6982 196.291 34.7967 196.299 34.8854 196.337C35.1421 196.465 35.3611 196.657 35.521 196.895C35.7617 197.21 35.9446 197.565 36.0613 197.944C36.1166 198.079 36.1429 198.225 36.1385 198.371C35.9555 197.881 35.6999 197.422 35.3803 197.009C35.2315 196.815 35.0385 196.659 34.8173 196.555C34.7687 196.534 34.7146 196.529 34.663 196.541C34.6114 196.553 34.5652 196.582 34.5313 196.623C34.4996 196.676 34.4792 196.736 34.4714 196.797C34.4636 196.859 34.4685 196.922 34.4859 196.982C34.5806 197.29 34.7604 197.565 35.0046 197.775C35.2487 197.986 35.5474 198.123 35.8661 198.171C36.1872 198.208 36.5115 198.136 36.786 197.965C37.0606 197.794 37.2692 197.536 37.3779 197.231C37.4219 197.108 37.4219 196.973 37.3779 196.85C37.3522 196.803 37.3125 196.766 37.2644 196.743C37.2164 196.72 37.1624 196.713 37.11 196.723C36.8734 196.788 36.6626 196.924 36.5062 197.113C36.1579 197.501 35.8771 197.945 35.6754 198.425Z" fill="#263238"/>
<g opacity="0.3">
<path d="M35.5665 192.237L35.0353 194.78L43.0665 196.114L43.7385 193.894L35.8525 191.034L35.5665 192.237Z" fill="black"/>
</g>
<path d="M71.732 195.138L71.0692 204C71.0692 204 79.8586 207.632 79.8949 209.303L62.6429 208.635L63.0969 194.779L71.732 195.138Z" fill="#00A63E"/>
<g opacity="0.6">
<path d="M65.7801 203.046C65.6127 203.091 65.4675 203.196 65.3721 203.341C65.2767 203.486 65.2377 203.66 65.2625 203.832C65.3007 204.001 65.4018 204.149 65.5452 204.246C65.6885 204.343 65.8634 204.381 66.0343 204.354C66.2124 204.307 66.3666 204.195 66.4673 204.041C66.5679 203.887 66.6077 203.701 66.5791 203.519C66.5218 203.346 66.4 203.203 66.2392 203.118C66.0784 203.033 65.8911 203.014 65.7165 203.065" fill="white"/>
</g>
<g opacity="0.6">
<path d="M62.6521 208.636L62.752 207.237L79.2549 208.386C79.2549 208.386 80.0131 208.749 79.9041 209.294L62.6521 208.636Z" fill="white"/>
</g>
<path d="M71.3598 203.923C71.3598 204.009 70.933 204.032 70.5108 204.286C70.0886 204.54 69.8525 204.885 69.7753 204.849C69.6982 204.813 69.8434 204.331 70.361 204.032C70.8786 203.732 71.3825 203.846 71.3598 203.923Z" fill="#263238"/>
<path d="M73.1395 204.753C73.1395 204.84 72.7853 204.967 72.4857 205.312C72.1861 205.657 72.0907 206.029 72.0045 206.025C71.9182 206.02 71.8864 205.539 72.2678 205.117C72.6491 204.694 73.1395 204.663 73.1395 204.753Z" fill="#263238"/>
<path d="M74.0838 206.947C74.0066 206.947 73.9067 206.533 74.1383 206.084C74.3698 205.634 74.7739 205.462 74.8056 205.535C74.8374 205.607 74.5877 205.843 74.4016 206.216C74.2154 206.588 74.1655 206.942 74.0838 206.947Z" fill="#263238"/>
<path d="M71.2781 201.889C71.2418 201.962 70.8604 201.83 70.3701 201.844C69.8798 201.857 69.5166 201.993 69.4621 201.921C69.4076 201.848 69.789 201.562 70.3701 201.553C70.9512 201.544 71.3326 201.825 71.2781 201.889Z" fill="#263238"/>
<g opacity="0.3">
<path d="M71.6094 196.895L71.4914 198.475L63.0243 198.066L63.0833 196.241L71.6094 196.895Z" fill="black"/>
</g>
<path d="M71.3915 200.096C71.1063 200.165 70.8074 200.152 70.5289 200.06C70.2142 199.994 69.9091 199.889 69.6209 199.746C69.4529 199.664 69.2906 199.57 69.1352 199.465C69.0404 199.407 68.9547 199.335 68.8809 199.251C68.8309 199.186 68.8037 199.107 68.8037 199.024C68.8037 198.942 68.8309 198.863 68.8809 198.797C68.9251 198.74 68.9823 198.694 69.0478 198.663C69.1134 198.632 69.1854 198.618 69.2577 198.62C69.3671 198.625 69.4754 198.643 69.5801 198.675C69.7618 198.728 69.9381 198.798 70.1067 198.884C70.3934 199.024 70.6556 199.209 70.8831 199.433C71.269 199.819 71.3915 200.141 71.3643 200.155C71.3371 200.169 71.1418 199.91 70.7469 199.587C70.515 199.406 70.2619 199.254 69.9932 199.133C69.833 199.067 69.6694 199.009 69.5029 198.961C69.3213 198.906 69.1669 198.902 69.117 198.961C69.0671 199.02 69.117 199.006 69.117 199.061C69.1715 199.121 69.2341 199.173 69.3031 199.215C69.4488 199.317 69.6004 199.409 69.7571 199.492C70.0189 199.636 70.2942 199.755 70.5789 199.846C70.8554 199.91 71.1269 199.993 71.3915 200.096Z" fill="#263238"/>
<path d="M71.278 200.214C71.1271 199.959 71.0589 199.664 71.0828 199.37C71.0846 199.05 71.1367 198.733 71.2371 198.43C71.3023 198.252 71.3828 198.08 71.4778 197.917C71.5288 197.804 71.6077 197.707 71.7071 197.634C71.8064 197.561 71.9229 197.514 72.0453 197.499C72.1228 197.504 72.1973 197.531 72.26 197.577C72.3227 197.623 72.3711 197.685 72.3994 197.758C72.4388 197.86 72.4633 197.967 72.472 198.076C72.5019 198.268 72.5019 198.464 72.472 198.657C72.4113 198.978 72.2725 199.278 72.068 199.533C71.7138 199.987 71.3597 200.055 71.3506 200.028C71.3416 200.001 71.623 199.833 71.9 199.41C72.0589 199.17 72.1628 198.897 72.2042 198.611C72.2271 198.446 72.2271 198.278 72.2042 198.112C72.1815 197.93 72.1179 197.776 72.0498 197.794C71.9817 197.812 71.8137 197.921 71.7365 198.067C71.6479 198.212 71.5705 198.364 71.505 198.521C71.3999 198.795 71.3327 199.082 71.3052 199.374C71.2462 199.883 71.3234 200.214 71.278 200.214Z" fill="#263238"/>
<path d="M53.8989 99.5618C53.8989 99.5618 51.1749 99.6844 49.3589 109C47.5429 118.317 33.7004 193.803 33.7004 193.803L43.7384 193.894L62.652 122.126L61.3944 196.128L71.5913 196.908C71.5913 196.908 79.2412 115.057 79.3093 110.294C79.4001 104.356 75.9905 98.3496 75.9905 98.3496L53.8989 99.5618Z" fill="#263238"/>
<path d="M67.696 98.7676C67.7596 98.7676 66.7154 104.102 65.367 110.653C64.0186 117.205 62.8746 122.507 62.811 122.494C62.7474 122.48 63.7871 117.159 65.1355 110.608C66.4839 104.057 67.6461 98.754 67.696 98.7676Z" fill="#455A64"/>
<path d="M69.2578 100.098C69.2578 100.071 69.5302 99.989 69.8435 100.266C69.9324 100.347 70.0029 100.446 70.0499 100.556C70.0969 100.667 70.1194 100.786 70.1159 100.906C70.1045 101.058 70.0502 101.203 69.9594 101.326C69.8686 101.448 69.7449 101.542 69.6028 101.596C69.4642 101.659 69.3107 101.682 69.1598 101.662C69.0089 101.642 68.8667 101.58 68.7493 101.483C68.6615 101.4 68.5922 101.3 68.5461 101.189C68.4999 101.078 68.4779 100.958 68.4815 100.838C68.4815 100.42 68.7629 100.275 68.7675 100.302C68.6909 100.469 68.6507 100.65 68.6494 100.833C68.6555 100.926 68.6799 101.016 68.7213 101.098C68.7626 101.181 68.82 101.255 68.8901 101.315C68.9796 101.376 69.0833 101.415 69.1915 101.426C69.2997 101.437 69.409 101.421 69.5094 101.379C69.6097 101.337 69.6979 101.27 69.7658 101.185C69.8337 101.1 69.8791 101 69.8979 100.892C69.9046 100.8 69.8928 100.708 69.8632 100.621C69.8335 100.533 69.7867 100.453 69.7254 100.384C69.503 100.125 69.2533 100.134 69.2578 100.098Z" fill="#455A64"/>
<path d="M68.8265 103.784C68.8265 103.757 69.1079 103.784 69.2805 104.161C69.3243 104.268 69.3442 104.384 69.3387 104.5C69.3332 104.616 69.3025 104.73 69.2487 104.833C69.1706 104.955 69.0607 105.054 68.9307 105.118C68.8007 105.183 68.6555 105.211 68.5108 105.199C68.3661 105.188 68.2274 105.137 68.1094 105.052C67.9914 104.968 67.8987 104.852 67.8413 104.719C67.805 104.61 67.7931 104.494 67.8064 104.379C67.8198 104.265 67.858 104.154 67.9185 104.056C68.1318 103.716 68.4224 103.725 68.4133 103.752C68.4042 103.779 68.1954 103.843 68.0637 104.133C67.9971 104.296 67.9971 104.479 68.0637 104.642C68.1111 104.732 68.1806 104.809 68.2655 104.865C68.3505 104.921 68.4483 104.955 68.5497 104.963C68.6512 104.971 68.7531 104.953 68.8459 104.911C68.9388 104.87 69.0195 104.805 69.0807 104.724C69.1662 104.568 69.1874 104.386 69.1397 104.215C69.0081 103.906 68.8038 103.816 68.8265 103.784Z" fill="#455A64"/>
<path d="M59.2062 100.189C59.1875 100.345 59.1478 100.497 59.0881 100.643C58.9463 101.058 58.7686 101.461 58.5569 101.846C57.8642 103.13 56.8638 104.222 55.6452 105.025C54.4265 105.828 53.0279 106.316 51.5744 106.445C51.1379 106.483 50.6989 106.483 50.2623 106.445C50.1085 106.44 49.956 106.416 49.8083 106.372C49.8083 106.327 50.4939 106.404 51.579 106.268C52.9931 106.096 54.3482 105.599 55.5377 104.815C56.7272 104.031 57.7188 102.982 58.4344 101.75C58.9655 100.833 59.1653 100.175 59.2062 100.189Z" fill="#455A64"/>
<path d="M78.7373 106.812C78.7373 106.812 78.6192 106.758 78.4331 106.631C78.173 106.444 77.9299 106.234 77.7067 106.004C76.96 105.248 76.3775 104.347 75.9954 103.355C75.6134 102.364 75.4402 101.304 75.4866 100.243C75.497 99.9235 75.5381 99.6057 75.6092 99.2941C75.6591 99.0716 75.6909 98.9536 75.7091 98.9581C75.7272 98.9627 75.6546 99.453 75.6546 100.247C75.6553 102.333 76.4303 104.344 77.8293 105.891C78.3604 106.476 78.76 106.776 78.7373 106.812Z" fill="#455A64"/>
<path d="M113.954 107.076C114.104 106.713 114.063 106.858 111.657 105.26C111.657 105.26 115.107 107.53 114.749 106.45C114.438 106.04 114.059 105.688 113.627 105.41C114.535 105.946 115.062 106.005 115.221 105.787C115.493 105.41 113.518 103.971 112.578 103.321C113.438 103.936 114.339 104.49 115.275 104.979C115.834 105.151 115.566 104.497 115.189 104.021C114.812 103.544 111.888 100.729 111.103 99.8892C111.028 99.8253 110.968 99.7459 110.927 99.6566C110.886 99.5672 110.864 99.47 110.864 99.3717C110.864 99.2733 110.886 99.1761 110.927 99.0867C110.968 98.9974 111.028 98.918 111.103 98.8541C112.51 97.9461 113.128 96.4978 113.11 96.0211C113.094 95.9138 113.045 95.8142 112.969 95.7366C112.893 95.659 112.795 95.6074 112.688 95.5893C112.581 95.5711 112.471 95.5873 112.374 95.6355C112.277 95.6838 112.197 95.7615 112.147 95.8577C111.792 96.2993 111.378 96.6903 110.917 97.0199C110.559 97.2988 110.157 97.5153 109.727 97.6601C109.228 97.8235 106.772 97.6873 106.245 97.4195L104.57 103.099C104.57 103.099 110.649 105.941 111.802 106.495C113.219 107.167 113.85 107.353 113.954 107.076Z" fill="#FFBE9D"/>
<path d="M110.563 104.42C110.513 104.488 111.303 105.065 112.324 105.714C113.346 106.363 114.204 106.831 114.245 106.763C114.285 106.695 113.496 106.113 112.479 105.469C111.462 104.824 110.608 104.334 110.563 104.42Z" fill="#EB996E"/>
<path d="M111.135 103.308C111.089 103.376 111.897 104.039 112.951 104.792C114.004 105.546 114.876 106.104 114.921 106.041C114.967 105.977 114.163 105.31 113.105 104.556C112.047 103.803 111.185 103.244 111.135 103.308Z" fill="#EB996E"/>
<path d="M111.739 102.182C111.693 102.245 112.447 102.89 113.423 103.617C114.399 104.343 115.239 104.879 115.275 104.815C115.312 104.752 114.571 104.107 113.595 103.38C112.619 102.654 111.788 102.118 111.739 102.182Z" fill="#EB996E"/>
<path d="M49.9082 81.6106L54.3665 81.8557C54.6823 83.1003 55.1046 84.3155 55.6286 85.4877C59.2198 79.2588 61.9846 70.9098 62.6929 67.5547C62.593 67.2248 62.4704 66.8525 62.3251 66.4379C62.2164 65.8111 62.2349 65.1687 62.3796 64.5492C62.5022 63.8047 62.711 62.7968 62.7701 62.3337C62.9653 60.9172 63.1923 60.6902 63.6781 60.8537C64.35 61.0716 63.4011 64.8353 63.9505 64.917C64.2501 64.9578 64.6088 63.6685 64.7177 62.6107C64.8267 61.5528 65.2988 58.3022 65.6484 58.0707C66.1614 57.7529 66.6064 58.2568 66.4792 59.3101C66.3521 60.3634 66.1841 63.555 66.7426 63.5958C67.301 63.6367 67.755 58.2432 67.755 58.2432C67.755 58.2432 67.6687 57.0719 68.3134 57.0991C69.4802 57.149 68.5722 62.8377 68.4723 63.3779C68.3997 63.7502 69.008 63.8319 69.0625 63.4142C69.117 62.9966 69.3985 58.0162 70.5834 58.057C71.4914 58.0888 69.8797 62.7423 70.3927 63.8228C70.9057 64.9034 71.2599 60.1591 72.1315 60.2226C72.4539 60.2499 72.6945 60.3134 72.0998 62.9966C71.5193 65.1301 70.8237 67.2307 70.0159 69.289C68.6539 76.7346 62.5748 100.551 53.0772 96.193C47.7654 93.7551 45.282 81.665 45.282 81.665L49.9082 81.6106Z" fill="#FFBE9D"/>
<path d="M70.025 69.3297C70.0328 69.2734 70.0481 69.2184 70.0704 69.1662C70.1113 69.0482 70.1612 68.8938 70.2293 68.7122C70.3791 68.2809 70.5834 67.6816 70.8513 66.8962C71.1191 66.1108 71.4415 65.1574 71.7593 64.0315C71.9227 63.4731 72.0589 62.8647 72.1815 62.2155C72.2451 61.8886 72.3041 61.5526 72.3449 61.2076C72.3562 61.0368 72.3562 60.8654 72.3449 60.6946C72.3449 60.5175 72.3041 60.3722 72.1633 60.3677C72.0226 60.3632 71.9227 60.4494 71.8228 60.5992C71.7324 60.7596 71.6579 60.9283 71.6004 61.1032C71.4733 61.4618 71.3734 61.8432 71.2735 62.2291C71.1736 62.615 71.0828 63.0191 70.9648 63.4277C70.9133 63.6515 70.821 63.8639 70.6924 64.0542C70.66 64.0914 70.6174 64.1183 70.5698 64.1314C70.5398 64.1379 70.5087 64.1377 70.4789 64.1306C70.449 64.1235 70.4211 64.1098 70.3973 64.0905C70.3451 64.0426 70.302 63.9857 70.2702 63.9225C70.2222 63.811 70.1901 63.6933 70.1748 63.5729C70.1541 62.6572 70.2456 61.7424 70.4472 60.8489C70.5244 60.3949 70.6061 59.9409 70.6651 59.4869C70.6924 59.2554 70.7196 59.0329 70.7242 58.7878C70.7287 58.5426 70.6924 58.2838 70.597 58.243C70.5017 58.2021 70.2702 58.3292 70.143 58.5199C70.0175 58.7213 69.9184 58.938 69.8479 59.1646C69.6931 59.6388 69.5762 60.1246 69.4984 60.6174C69.4121 61.1168 69.344 61.6253 69.285 62.1428C69.2623 62.4016 69.235 62.6604 69.2123 62.9237L69.176 63.3187C69.1809 63.4031 69.1671 63.4874 69.1357 63.5659C69.1043 63.6444 69.0561 63.715 68.9944 63.7727C68.9167 63.8295 68.8229 63.8601 68.7266 63.8601C68.6303 63.8601 68.5364 63.8295 68.4587 63.7727C68.4147 63.7436 68.3773 63.7055 68.3491 63.6609C68.321 63.6163 68.3026 63.5662 68.2953 63.5139C68.2884 63.4657 68.2884 63.4168 68.2953 63.3686V63.2733L68.4178 62.4788C68.495 61.9431 68.5586 61.4074 68.6085 60.8626C68.6585 60.3178 68.6993 59.7684 68.7084 59.2191C68.735 58.6752 68.6799 58.1304 68.545 57.6028C68.5136 57.469 68.4325 57.3521 68.318 57.276C68.2632 57.2584 68.2043 57.2585 68.1496 57.2765C68.095 57.2944 68.0474 57.3292 68.0138 57.3758C67.8668 57.6446 67.8065 57.9522 67.8413 58.2566C67.7414 59.3235 67.6279 60.3722 67.4735 61.4028C67.3963 61.9158 67.3101 62.4289 67.183 62.9328C67.1466 63.0554 67.1103 63.1825 67.0649 63.3096C67.0217 63.4637 66.9312 63.6003 66.8061 63.7001C66.7508 63.7272 66.6879 63.7348 66.6277 63.7216C66.5675 63.7084 66.5136 63.6752 66.4747 63.6274C66.4193 63.5692 66.3774 63.4994 66.3521 63.4231C66.3032 63.2972 66.2681 63.1662 66.2477 63.0327C66.1413 62.0447 66.1322 61.0487 66.2205 60.059C66.2876 59.5976 66.3134 59.1312 66.2977 58.6652C66.283 58.4663 66.1918 58.2808 66.0434 58.1476C66.0086 58.126 65.9697 58.1116 65.9291 58.1053C65.8885 58.0991 65.8471 58.1011 65.8073 58.1113C65.7649 58.1256 65.7238 58.1439 65.6848 58.1658C65.6439 58.2021 65.6484 58.1658 65.6212 58.243C65.457 58.6513 65.3368 59.0759 65.2625 59.5096C65.1717 59.9636 65.0946 60.3768 65.0265 60.8035C64.9584 61.2303 64.8948 61.648 64.8403 62.0657C64.7858 62.4833 64.7586 62.8919 64.6769 63.3005C64.6063 63.6997 64.5 64.0917 64.3591 64.4719C64.3217 64.5686 64.2777 64.6626 64.2274 64.7533C64.1639 64.8396 64.1275 64.9486 63.955 65.003C63.9109 65.0111 63.8653 65.006 63.8241 64.9882C63.7829 64.9704 63.7479 64.9408 63.7235 64.9032C63.6917 64.8507 63.6673 64.7942 63.6508 64.7352C63.6304 64.6365 63.6183 64.5362 63.6145 64.4355C63.6145 63.6592 63.7189 62.951 63.7598 62.2654C63.7894 61.9377 63.7894 61.608 63.7598 61.2802C63.7598 61.135 63.6917 60.9624 63.61 60.9307C63.5527 60.9026 63.4898 60.888 63.4261 60.888C63.3624 60.888 63.2995 60.9026 63.2422 60.9307C63.0517 61.1353 62.9336 61.3969 62.9063 61.6752C62.8382 61.9522 62.8109 62.2336 62.761 62.5015C62.5703 63.5729 62.3706 64.4991 62.2752 65.2527C62.2305 65.5842 62.2305 65.9201 62.2752 66.2515C62.3388 66.5239 62.4341 66.7691 62.4841 66.9598C62.534 67.1505 62.5839 67.2867 62.6157 67.4138C62.6326 67.4624 62.6448 67.5126 62.652 67.5636C62.6248 67.5196 62.6035 67.4723 62.5885 67.4229L62.4341 66.9689C62.3706 66.7736 62.2752 66.5557 62.198 66.2561C62.1495 65.9158 62.1495 65.5703 62.198 65.23C62.2843 64.4628 62.4659 63.5457 62.652 62.4697C62.702 62.2019 62.7292 61.9204 62.7882 61.6298C62.8207 61.4764 62.8617 61.3248 62.9108 61.1758C62.9562 61.0107 63.0552 60.8653 63.1923 60.7627C63.2748 60.7189 63.3668 60.6961 63.4602 60.6961C63.5535 60.6961 63.6455 60.7189 63.728 60.7627C63.8168 60.8186 63.8897 60.8964 63.9398 60.9887C63.9899 61.0809 64.0154 61.1844 64.014 61.2893C64.0458 61.6306 64.0458 61.9741 64.014 62.3154C63.9823 63.0054 63.8733 63.7273 63.8915 64.4628C63.8948 64.5498 63.9054 64.6363 63.9232 64.7216C63.9232 64.8078 63.9868 64.8441 63.9777 64.826C63.9686 64.8078 64.064 64.7533 64.1003 64.6807C64.1451 64.6001 64.1845 64.5167 64.2183 64.431C64.3528 64.063 64.4516 63.6829 64.5134 63.296C64.5906 62.901 64.6179 62.4924 64.6723 62.0702C64.7268 61.648 64.7813 61.2303 64.8494 60.799C64.9175 60.3677 64.9947 59.9364 65.0809 59.496C65.1548 59.0361 65.2828 58.5865 65.4623 58.1567C65.4986 58.0846 65.5534 58.0235 65.6212 57.9797C65.6815 57.9466 65.7455 57.9207 65.8119 57.9025C65.888 57.8807 65.9679 57.8755 66.0463 57.8873C66.1246 57.899 66.1995 57.9274 66.2659 57.9706C66.3712 58.0542 66.4582 58.1587 66.5215 58.2774C66.5848 58.3961 66.6229 58.5266 66.6336 58.6607C66.6677 58.9077 66.6677 59.1582 66.6336 59.4052C66.6109 59.6368 66.5882 59.8592 66.5746 60.1135C66.4861 61.0805 66.4952 62.0539 66.6018 63.0191C66.6213 63.1337 66.6517 63.2462 66.6926 63.355C66.7063 63.3989 66.7295 63.4393 66.7607 63.4731C66.7607 63.4731 66.7607 63.4731 66.7834 63.4731C66.7834 63.5775 66.7834 63.4731 66.7834 63.5139C66.7834 63.5548 66.7834 63.5139 66.7834 63.4776C66.8401 63.4017 66.8845 63.3175 66.9151 63.2279C66.9575 63.1159 66.9938 62.9979 67.0241 62.8738C67.1466 62.3925 67.2284 61.8841 67.3055 61.3756C67.4599 60.3541 67.5734 59.3053 67.6687 58.243V58.2657C67.6284 57.8915 67.7095 57.5142 67.9003 57.1897C67.9731 57.097 68.073 57.0292 68.1861 56.9958C68.2992 56.9625 68.4198 56.9652 68.5313 57.0036C68.6266 57.0564 68.7102 57.1278 68.7773 57.2136C68.8443 57.2994 68.8935 57.3978 68.9218 57.503C69.0672 58.0612 69.1269 58.6383 69.0988 59.2145C69.0988 59.7775 69.0489 60.3314 68.999 60.8807C68.949 61.4301 68.8809 61.9703 68.8037 62.506C68.7629 62.7784 68.722 63.0418 68.6812 63.3096C68.6448 63.4776 68.6539 63.4821 68.6812 63.5321C68.7127 63.5534 68.7498 63.5647 68.7878 63.5647C68.8259 63.5647 68.863 63.5534 68.8945 63.5321C68.949 63.4912 68.9581 63.414 68.9717 63.2642L69.0035 62.8692L69.0852 62.0838C69.1397 61.5663 69.2123 61.0487 69.2986 60.5448C69.3826 60.0386 69.504 59.5393 69.6618 59.0511C69.7442 58.8043 69.8555 58.5681 69.9932 58.3474C70.0682 58.2284 70.1672 58.1264 70.2838 58.0478C70.3485 58.0009 70.4235 57.9703 70.5025 57.9584C70.5815 57.9466 70.6622 57.9539 70.7378 57.9797C70.8073 58.0226 70.866 58.0809 70.9093 58.1502C70.9526 58.2195 70.9794 58.2979 70.9875 58.3792C71.0062 58.5069 71.0138 58.636 71.0102 58.7651C71.0102 59.0148 70.9784 59.2554 70.9512 59.496C70.8876 59.95 70.8013 60.4313 70.7196 60.8898C70.5246 61.7522 70.4301 62.6343 70.4381 63.5185C70.4509 63.6134 70.4753 63.7064 70.5108 63.7954C70.5272 63.8276 70.547 63.8581 70.5698 63.8862C70.5698 63.8862 70.5698 63.8862 70.5698 63.8544C70.6717 63.6903 70.7468 63.511 70.7923 63.3232C70.9103 62.9283 71.0056 62.5287 71.1101 62.1383C71.2037 61.7498 71.3173 61.3664 71.4506 60.9897C71.5134 60.8031 71.5956 60.6235 71.6957 60.454C71.7499 60.3615 71.8207 60.28 71.9046 60.2133C71.9502 60.1738 72.0047 60.1457 72.0635 60.1316C72.1221 60.1224 72.1819 60.1224 72.2405 60.1316C72.3025 60.1378 72.3616 60.1604 72.4119 60.1971C72.4622 60.2339 72.5018 60.2833 72.5265 60.3405C72.5645 60.4359 72.5845 60.5374 72.5856 60.6401C72.5891 60.8238 72.5785 61.0074 72.5538 61.1894C72.5129 61.5436 72.4448 61.8795 72.3813 62.2109C72.2496 62.8602 72.1043 63.4776 71.9273 64.0269C71.5868 65.1529 71.2463 66.1063 70.9693 66.8826C70.6924 67.6589 70.4563 68.2446 70.2974 68.6623C70.2202 68.853 70.1567 69.0028 70.1113 69.1163C70.0909 69.1905 70.062 69.2621 70.025 69.3297Z" fill="#EB996E"/>
<path d="M45.2412 82.1237C46.1038 85.17 47.7927 89.8689 49.6042 94.8357C49.6612 94.9957 49.7646 95.1352 49.901 95.2364C50.0374 95.3377 50.2009 95.3961 50.3706 95.4044C50.5403 95.4127 50.7086 95.3704 50.8542 95.2829C50.9999 95.1954 51.1162 95.0666 51.1886 94.9129L55.6287 85.5196C55.6287 85.5196 54.5573 77.8016 54.6481 78.0786C54.7389 78.3555 45.4864 79.0774 45.4864 79.0774L45.2412 82.1237Z" fill="#00A63E"/>
<path d="M55.2474 80.6125C55.2474 80.6488 54.6935 80.8122 53.8172 81.1482C52.6721 81.5829 51.5689 82.1208 50.5212 82.7554C49.4749 83.3929 48.4874 84.1222 47.5702 84.9346C46.8665 85.5565 46.4624 85.9833 46.4352 85.9561C46.408 85.9288 46.5124 85.8289 46.6849 85.6246C46.9281 85.3407 47.1857 85.0695 47.4567 84.812C48.3516 83.9503 49.3381 83.1891 50.3986 82.542C51.4595 81.9028 52.5858 81.3792 53.7582 80.9802C54.1126 80.8581 54.4733 80.7551 54.8387 80.6715C54.9709 80.6302 55.1089 80.6102 55.2474 80.6125Z" fill="#FAFAFA"/>
<path d="M57.0089 82.9545C56.7204 82.6636 56.4702 82.3371 56.2643 81.9829C55.7341 81.1562 55.2783 80.2842 54.9023 79.3769C54.526 78.467 54.2328 77.5249 54.0261 76.5621C53.9203 76.1683 53.8669 75.7623 53.8672 75.3545C54.0026 75.7352 54.1103 76.1251 54.1895 76.5213C54.4327 77.4614 54.736 78.3849 55.0975 79.2861C55.4752 80.1827 55.9089 81.0545 56.396 81.8966C56.6227 82.2358 56.8274 82.5891 57.0089 82.9545Z" fill="#263238"/>
<path d="M59.969 41.3587C59.1987 42.6282 58.7212 44.0534 58.5712 45.5307C58.4212 47.008 58.6025 48.5001 59.1018 49.8985C59.5558 51.147 60.2822 52.3773 60.1506 53.703C60.0189 55.0287 58.9838 56.3407 59.347 57.6483C59.5649 58.4246 60.2277 59.0103 60.4865 59.7639C60.7816 60.6719 60.4865 61.6298 60.3276 62.5605C59.9644 64.9395 60.7271 67.3321 60.9133 69.7292C61.0994 72.1263 60.4593 74.9366 58.3164 75.9808C57.6672 76.2986 56.8182 76.3894 56.2779 75.9036C55.5879 75.2907 55.7785 74.1829 55.9692 73.2749C57.8488 64.1949 52.0421 55.3329 53.3678 46.1439C53.5812 44.6729 54.4029 42.1759 55.4607 41.1499C56.5186 40.1239 59.4559 40.2419 60.4547 41.3315" fill="#263238"/>
<path d="M51.0251 67.6999C51.0251 67.6999 51.3021 67.3731 51.7107 66.7284C52.2841 65.8179 52.6857 64.81 52.8956 63.7547C53.0326 63.0277 53.0799 62.2867 53.0364 61.5483C52.957 60.6896 52.9251 59.8272 52.941 58.965C52.9681 58.4928 53.0551 58.026 53.1998 57.5758C53.3657 57.1119 53.5755 56.665 53.8263 56.241C54.3348 55.3829 54.9749 54.5839 55.5651 53.7304C56.1712 52.9237 56.5928 51.9938 56.8 51.0064C56.9007 50.0763 56.847 49.1359 56.6411 48.2234C56.4694 47.3752 56.4023 46.5091 56.4414 45.6446C56.4954 44.8895 56.648 44.1446 56.8954 43.4291C57.2422 42.3908 57.7881 41.4301 58.5025 40.6007C58.6923 40.3752 58.8987 40.1643 59.12 39.9696C59.1901 39.8949 59.2694 39.8293 59.356 39.7744C59.356 39.7744 59.0519 40.0695 58.5706 40.6824C57.4244 42.1052 56.7542 43.8521 56.6547 45.6764C56.6244 46.5268 56.6991 47.3777 56.8772 48.2097C57.0938 49.1468 57.1521 50.1136 57.0497 51.0699C56.8345 52.0849 56.4007 53.0408 55.7785 53.8711C55.1838 54.7383 54.5436 55.5328 54.0442 56.3681C53.7986 56.7763 53.5948 57.2083 53.4359 57.6575C53.2923 58.0893 53.2053 58.538 53.1771 58.9922C53.157 59.8449 53.1813 60.6981 53.2497 61.5483C53.2858 62.3016 53.2278 63.0565 53.0772 63.7956C52.8497 64.8653 52.4181 65.8811 51.806 66.7874C51.6403 67.0324 51.4583 67.266 51.2612 67.4866C51.1906 67.5661 51.1114 67.6377 51.0251 67.6999Z" fill="#455A64"/>
<path d="M46.7212 68.3767C46.7578 68.2708 46.8049 68.1689 46.8619 68.0725C46.9754 67.8591 47.1207 67.5776 47.3159 67.2235C47.6973 66.4835 48.2648 65.4075 48.8232 64.0455C49.5063 62.4548 49.8851 60.75 49.94 59.0197C49.9403 58.5212 49.9024 58.0233 49.8265 57.5306C49.7494 57.0221 49.6313 56.5091 49.5542 55.9734C49.4597 55.4192 49.4721 54.8522 49.5905 54.3027C49.744 53.7385 50.0597 53.2318 50.4985 52.8453C51.352 52.069 52.3826 51.5605 52.9183 50.648C53.3824 49.7431 53.6559 48.7526 53.7219 47.7378C53.818 46.8075 54.0284 45.8926 54.3484 45.0138C55.068 43.1272 56.3502 41.5074 58.0213 40.3739C58.2877 40.1946 58.5651 40.0324 58.8521 39.8882C58.9489 39.8301 59.0526 39.7844 59.1608 39.752C59.1608 39.752 58.7522 39.9699 58.0757 40.4511C57.1223 41.1315 56.2969 41.9753 55.6378 42.9436C55.1806 43.6073 54.8085 44.3257 54.53 45.0819C54.2241 45.9628 54.0259 46.8774 53.9398 47.8059C53.8036 48.7729 53.6946 49.8535 53.1135 50.8114C52.5324 51.7693 51.47 52.3141 50.6574 53.0814C50.2432 53.4408 49.9447 53.9147 49.7993 54.4434C49.6889 54.9633 49.6782 55.4994 49.7675 56.0233C49.8402 56.5454 49.9537 57.063 50.0308 57.576C50.1094 58.0806 50.1458 58.5908 50.1398 59.1014C50.0781 60.8635 49.679 62.5973 48.9639 64.2089C48.4995 65.2981 47.972 66.3592 47.384 67.3869L46.9028 68.0997C46.8522 68.1982 46.7913 68.291 46.7212 68.3767Z" fill="#455A64"/>
<path d="M196.932 196.663C196.953 196.597 196.98 196.533 197.013 196.473C197.077 196.336 197.163 196.155 197.268 195.923C197.583 195.214 197.837 194.479 198.026 193.726C198.525 191.774 198.702 188.791 197.962 185.25C197.56 183.319 197.034 181.415 196.387 179.552C195.724 177.532 194.948 175.389 194.317 173.069C193.604 170.649 193.26 168.136 193.295 165.614C193.39 162.976 194.171 160.348 195.029 157.724C195.887 155.1 196.773 152.544 197.036 149.956C197.329 147.474 196.83 144.964 195.61 142.783C194.475 140.69 193.045 138.896 191.978 137.044C190.98 135.323 190.244 133.462 189.795 131.523C189.151 128.716 189.103 125.806 189.654 122.979C189.855 121.945 190.159 120.933 190.562 119.96C190.55 120.028 190.532 120.095 190.508 120.16L190.326 120.736C190.172 121.245 189.967 122.007 189.772 123.006C189.265 125.82 189.34 128.708 189.994 131.492C190.45 133.407 191.189 135.243 192.187 136.94C193.254 138.756 194.689 140.572 195.851 142.674C197.1 144.899 197.613 147.462 197.318 149.997C197.05 152.621 196.16 155.204 195.302 157.824C194.444 160.443 193.672 163.045 193.577 165.637C193.536 168.134 193.873 170.623 194.575 173.019C195.197 175.325 195.96 177.468 196.618 179.498C197.259 181.371 197.775 183.285 198.162 185.227C198.884 188.795 198.68 191.81 198.162 193.767C197.959 194.521 197.687 195.255 197.349 195.96L197.068 196.5C197.029 196.559 196.983 196.614 196.932 196.663Z" fill="#263238"/>
<path d="M193.431 138.873C193.431 138.873 191.261 131.923 195.156 127.855C195.187 127.822 195.225 127.798 195.268 127.786C195.311 127.774 195.356 127.774 195.399 127.787C195.442 127.799 195.481 127.823 195.511 127.856C195.541 127.888 195.561 127.929 195.57 127.973C195.778 129.121 196.037 132.617 193.431 138.873Z" fill="#00A63E"/>
<path d="M194.734 130.171C194.727 130.601 194.679 131.03 194.589 131.451C194.444 132.336 194.276 133.372 194.094 134.516C193.913 135.66 193.745 136.699 193.604 137.58C193.564 138.01 193.488 138.435 193.377 138.851C193.334 138.422 193.343 137.989 193.404 137.562C193.477 136.768 193.617 135.678 193.813 134.479C194.008 133.281 194.221 132.209 194.389 131.424C194.455 130.994 194.571 130.574 194.734 130.171Z" fill="#263238"/>
<path d="M195.983 155.268C195.983 155.268 197.313 148.108 202.661 146.338C202.703 146.323 202.749 146.32 202.792 146.33C202.836 146.34 202.876 146.361 202.908 146.392C202.94 146.423 202.963 146.463 202.974 146.506C202.985 146.549 202.983 146.595 202.97 146.637C202.616 147.741 201.213 150.95 195.983 155.268Z" fill="#00A63E"/>
<path d="M201.204 148.176C200.996 148.554 200.753 148.911 200.477 149.243L198.602 151.717L196.741 154.2C196.507 154.561 196.241 154.899 195.946 155.213C196.112 154.813 196.326 154.435 196.582 154.087C197.036 153.419 197.653 152.521 198.398 151.554C199.143 150.587 199.819 149.738 200.332 149.12C200.587 148.774 200.879 148.458 201.204 148.176Z" fill="#263238"/>
<path d="M194.539 173.215C194.539 173.215 193.731 165.978 198.334 162.732C198.37 162.704 198.413 162.687 198.457 162.683C198.502 162.678 198.547 162.687 198.587 162.708C198.628 162.728 198.661 162.76 198.684 162.799C198.706 162.837 198.718 162.882 198.716 162.927C198.702 164.094 198.289 167.571 194.539 173.215Z" fill="#00A63E"/>
<path d="M197.49 164.92C197.406 165.343 197.276 165.755 197.104 166.15L196.033 169.065C195.633 170.155 195.275 171.14 194.97 171.98C194.854 172.393 194.702 172.795 194.516 173.183C194.558 172.752 194.653 172.328 194.798 171.921C195.02 171.158 195.365 170.105 195.788 168.97C196.21 167.835 196.623 166.813 196.936 166.082C197.081 165.677 197.266 165.287 197.49 164.92Z" fill="#263238"/>
<path d="M198.566 191.274C198.566 191.274 198.021 184.01 202.734 180.932C202.771 180.907 202.814 180.892 202.858 180.89C202.903 180.888 202.948 180.898 202.987 180.92C203.026 180.941 203.058 180.974 203.08 181.013C203.102 181.052 203.112 181.096 203.111 181.141C203.056 182.308 202.52 185.772 198.566 191.274Z" fill="#00A63E"/>
<path d="M201.798 183.093C201.697 183.512 201.552 183.92 201.367 184.309C201.031 185.136 200.632 186.125 200.191 187.183C199.751 188.241 199.365 189.226 199.029 190.057C198.895 190.467 198.723 190.864 198.516 191.242C198.576 190.813 198.687 190.392 198.847 189.989C199.097 189.235 199.478 188.2 199.942 187.079C200.405 185.958 200.85 184.95 201.19 184.232C201.352 183.832 201.556 183.45 201.798 183.093Z" fill="#263238"/>
<path d="M190.308 132.768C190.308 132.768 183.87 129.39 183.729 123.765C183.729 123.721 183.74 123.677 183.763 123.639C183.785 123.601 183.817 123.57 183.856 123.548C183.894 123.527 183.938 123.516 183.982 123.518C184.026 123.519 184.069 123.532 184.106 123.556C185.064 124.219 187.724 126.507 190.308 132.768Z" fill="#00A63E"/>
<path d="M185.069 125.698C185.371 126.007 185.64 126.346 185.872 126.711C186.399 127.433 187.012 128.286 187.688 129.226L189.504 131.732C189.781 132.062 190.027 132.416 190.24 132.79C189.908 132.513 189.61 132.198 189.354 131.85C188.841 131.242 188.169 130.37 187.461 129.385C186.753 128.4 186.131 127.487 185.704 126.82C185.454 126.469 185.241 126.093 185.069 125.698Z" fill="#263238"/>
<path d="M197.24 147.691C197.24 147.691 190.594 144.717 190.126 139.101C190.122 139.057 190.131 139.013 190.151 138.973C190.17 138.933 190.201 138.9 190.238 138.876C190.276 138.853 190.319 138.84 190.363 138.84C190.408 138.839 190.451 138.851 190.489 138.874C191.484 139.478 194.276 141.593 197.24 147.691Z" fill="#00A63E"/>
<path d="M191.588 140.953C191.908 141.241 192.197 141.562 192.451 141.911L194.421 144.313L196.396 146.705C196.692 147.018 196.959 147.357 197.195 147.718C196.847 147.461 196.53 147.163 196.251 146.832C195.706 146.251 194.979 145.425 194.212 144.485C193.445 143.545 192.773 142.669 192.301 142.029C192.024 141.698 191.785 141.337 191.588 140.953Z" fill="#263238"/>
<path d="M193.404 164.347C193.404 164.347 188.864 158.672 190.984 153.451C191.001 153.41 191.029 153.375 191.064 153.348C191.1 153.322 191.142 153.306 191.186 153.303C191.231 153.299 191.275 153.307 191.315 153.327C191.354 153.347 191.387 153.377 191.411 153.415C192.042 154.4 193.554 157.56 193.404 164.347Z" fill="#00A63E"/>
<path d="M191.443 155.758C191.598 156.161 191.711 156.58 191.779 157.006C191.969 157.878 192.192 158.904 192.437 160.039C192.682 161.174 192.914 162.196 193.104 163.067C193.226 163.481 193.309 163.905 193.354 164.334C193.155 163.948 193.002 163.539 192.9 163.117C192.678 162.35 192.405 161.301 192.151 160.094C191.897 158.886 191.697 157.824 191.57 157.043C191.481 156.62 191.438 156.189 191.443 155.758Z" fill="#263238"/>
<path d="M197.944 183.919C197.944 183.919 191.347 180.837 190.975 175.216C190.971 175.171 190.979 175.126 190.999 175.086C191.019 175.046 191.05 175.012 191.088 174.988C191.127 174.964 191.171 174.952 191.216 174.952C191.261 174.952 191.305 174.965 191.343 174.989C192.319 175.611 195.075 177.777 197.944 183.919Z" fill="#00A63E"/>
<path d="M192.392 177.087C192.704 177.385 192.986 177.711 193.236 178.063L195.166 180.492L197.1 182.921C197.39 183.239 197.652 183.582 197.88 183.947C197.542 183.682 197.238 183.377 196.972 183.039C196.432 182.449 195.724 181.609 194.97 180.655C194.217 179.702 193.563 178.817 193.1 178.167C192.823 177.836 192.585 177.473 192.392 177.087Z" fill="#263238"/>
<path d="M211.069 155.3C211.069 155.3 211.069 155.354 211.069 155.459C211.069 155.563 211.069 155.736 211.069 155.913C211.069 156.367 211.024 156.943 210.992 157.679C210.91 159.231 210.788 161.397 210.647 163.985C210.193 166.618 208.831 169.537 207.015 172.375C205.694 174.463 204.291 176.361 203.111 178.127C202.033 179.677 201.065 181.3 200.214 182.985C199.65 184.123 199.194 185.312 198.852 186.535C198.739 186.966 198.648 187.307 198.598 187.538C198.576 187.659 198.544 187.777 198.502 187.892C198.504 187.77 198.519 187.648 198.548 187.529C198.58 187.293 198.648 186.948 198.752 186.508C199.058 185.263 199.491 184.054 200.046 182.898C200.89 181.2 201.856 179.566 202.938 178.009C204.127 176.229 205.503 174.327 206.82 172.252C208.613 169.428 209.948 166.554 210.452 163.962C210.633 161.379 210.783 159.218 210.906 157.665C210.965 156.93 211.015 156.344 211.051 155.904C211.051 155.722 211.083 155.568 211.096 155.45C211.081 155.401 211.072 155.351 211.069 155.3Z" fill="#263238"/>
<path d="M207.142 171.852C207.142 171.852 209.934 165.133 206.425 160.725C206.398 160.689 206.361 160.662 206.319 160.646C206.278 160.631 206.232 160.627 206.188 160.635C206.145 160.644 206.104 160.664 206.071 160.694C206.038 160.725 206.015 160.763 206.003 160.806C205.689 161.932 205.113 165.387 207.142 171.852Z" fill="#00A63E"/>
<path d="M206.634 163.072C206.754 163.487 206.829 163.913 206.856 164.343C206.956 165.133 207.065 166.228 207.151 167.44C207.237 168.652 207.278 169.751 207.278 170.55C207.306 170.981 207.28 171.414 207.201 171.839C207.123 171.415 207.085 170.985 207.088 170.554C207.029 169.646 206.956 168.616 206.879 167.458C206.802 166.3 206.729 165.251 206.665 164.362C206.612 163.934 206.602 163.502 206.634 163.072Z" fill="#263238"/>
<g opacity="0.3">
<path d="M207.142 171.852C207.142 171.852 209.934 165.133 206.425 160.725C206.398 160.689 206.361 160.662 206.319 160.646C206.278 160.631 206.232 160.627 206.188 160.635C206.145 160.644 206.104 160.664 206.071 160.694C206.038 160.725 206.015 160.763 206.003 160.806C205.689 161.932 205.113 165.387 207.142 171.852Z" fill="black"/>
</g>
<path d="M198.493 188.056C198.493 188.056 200.732 181.128 196.873 177.024C196.843 176.991 196.804 176.967 196.762 176.955C196.719 176.942 196.674 176.942 196.631 176.954C196.589 176.966 196.55 176.989 196.52 177.021C196.489 177.054 196.468 177.094 196.459 177.137C196.242 178.281 195.946 181.777 198.493 188.056Z" fill="#00A63E"/>
<path d="M197.272 179.329C197.429 179.733 197.539 180.153 197.599 180.582C197.762 181.358 197.958 182.444 198.144 183.642C198.33 184.841 198.457 185.935 198.525 186.729C198.584 187.158 198.592 187.593 198.548 188.023C198.44 187.606 198.367 187.181 198.33 186.752C198.198 185.867 198.044 184.832 197.876 183.683C197.708 182.534 197.545 181.499 197.422 180.614C197.33 180.192 197.28 179.761 197.272 179.329Z" fill="#263238"/>
<g opacity="0.3">
<path d="M198.493 188.056C198.493 188.056 200.732 181.128 196.873 177.024C196.843 176.991 196.804 176.967 196.762 176.955C196.719 176.942 196.674 176.942 196.631 176.954C196.589 176.966 196.55 176.989 196.52 177.021C196.489 177.054 196.468 177.094 196.459 177.137C196.242 178.281 195.946 181.777 198.493 188.056Z" fill="black"/>
</g>
<path d="M210.701 163.639C210.701 163.639 216.662 159.462 216.063 153.86C216.059 153.816 216.042 153.774 216.015 153.739C215.988 153.704 215.952 153.677 215.911 153.661C215.869 153.645 215.824 153.64 215.781 153.648C215.737 153.656 215.697 153.676 215.664 153.706C214.796 154.487 212.472 157.083 210.701 163.639Z" fill="#00A63E"/>
<g opacity="0.3">
<path d="M210.701 163.639C210.701 163.639 216.662 159.462 216.063 153.86C216.059 153.816 216.042 153.774 216.015 153.739C215.988 153.704 215.952 153.677 215.911 153.661C215.869 153.645 215.824 153.64 215.781 153.648C215.737 153.656 215.697 153.676 215.664 153.706C214.796 154.487 212.472 157.083 210.701 163.639Z" fill="black"/>
</g>
<path d="M214.983 155.953C214.864 156.369 214.698 156.77 214.488 157.147C214.147 157.864 213.652 158.845 213.076 159.917C212.499 160.988 211.945 161.937 211.519 162.609C211.309 162.986 211.054 163.337 210.76 163.653C210.92 163.254 211.118 162.87 211.351 162.509C211.777 161.723 212.281 160.806 212.835 159.785L214.315 157.061C214.501 156.671 214.725 156.3 214.983 155.953Z" fill="#263238"/>
<path d="M200.9 181.186C200.9 181.186 208.091 180.065 210.016 174.771C210.031 174.73 210.035 174.685 210.027 174.641C210.019 174.598 209.999 174.558 209.97 174.525C209.94 174.492 209.902 174.468 209.86 174.455C209.817 174.443 209.773 174.442 209.73 174.453C208.608 174.789 205.358 176.083 200.9 181.186Z" fill="#00A63E"/>
<g opacity="0.3">
<path d="M200.9 181.186C200.9 181.186 208.091 180.065 210.016 174.771C210.031 174.73 210.035 174.685 210.027 174.641C210.019 174.598 209.999 174.558 209.97 174.525C209.94 174.492 209.902 174.468 209.86 174.455C209.817 174.443 209.773 174.442 209.73 174.453C208.608 174.789 205.358 176.083 200.9 181.186Z" fill="black"/>
</g>
<path d="M208.127 176.174C207.836 176.492 207.51 176.777 207.156 177.023C206.534 177.522 205.657 178.185 204.672 178.893C203.687 179.602 202.766 180.205 202.085 180.623C201.729 180.871 201.345 181.073 200.94 181.227C201.263 180.94 201.611 180.683 201.98 180.46L204.513 178.671L207.042 176.855C207.379 176.59 207.742 176.362 208.127 176.174Z" fill="#263238"/>
<path d="M194.035 194.425L191.938 208.544H205.013L203.319 194.425H194.035Z" fill="#455A64"/>
<path d="M203.846 198.797C203.846 198.874 201.485 198.933 198.575 198.933C195.665 198.933 193.3 198.874 193.3 198.797C195.055 198.662 196.815 198.617 198.575 198.661C200.333 198.617 202.092 198.662 203.846 198.797Z" fill="#263238"/>
<path d="M204.1 199.923C204.1 200 201.662 200.06 198.652 200.06C195.642 200.06 193.204 200 193.204 199.923C193.204 199.846 195.642 199.787 198.652 199.787C201.662 199.787 204.1 199.846 204.1 199.923Z" fill="#263238"/>
<path d="M153.257 57.449C153.257 57.449 153.134 57.449 152.898 57.449C152.553 57.4286 152.208 57.4286 151.863 57.449C150.53 57.5271 149.219 57.8342 147.99 58.357C146.042 59.1737 144.346 60.4948 143.078 62.1843C142.296 63.2392 141.714 64.4287 141.362 65.6937C140.567 68.7069 140.997 71.9122 142.556 74.6102C142.981 75.3572 143.5 76.0468 144.1 76.6623C144.705 77.3144 145.41 77.8661 146.188 78.2967C146.987 78.7462 147.891 78.9735 148.808 78.955C149.752 78.9437 150.658 78.5774 151.345 77.929C151.678 77.5809 151.938 77.1708 152.112 76.7221C152.285 76.2735 152.369 75.7949 152.358 75.3139C152.351 74.3146 152.034 73.3421 151.45 72.5309C150.274 70.8738 148.367 69.7615 146.338 69.1622C144.233 68.5712 142.011 68.5399 139.891 69.0714C138.809 69.353 137.766 69.7678 136.786 70.3063C135.796 70.8646 134.898 71.5704 134.121 72.3993C133.934 72.6126 133.721 72.8079 133.553 73.0439L133.04 73.734C132.728 74.2203 132.449 74.7269 132.205 75.2504C131.719 76.3133 131.387 77.4399 131.22 78.5963C130.89 80.9067 131.204 83.2631 132.128 85.4063C133.01 87.5006 134.547 89.2526 136.509 90.4004C137.46 90.9437 138.521 91.265 139.614 91.3401C140.685 91.4001 141.751 91.1444 142.679 90.6047C143.599 90.0958 144.327 89.2981 144.749 88.3347C145.147 87.3851 145.174 86.3207 144.826 85.3519C144.467 84.4171 143.88 83.5868 143.119 82.9366C142.38 82.2983 141.529 81.804 140.608 81.4793C138.813 80.9132 136.892 80.8801 135.079 81.3839C133.382 81.8437 131.823 82.7119 130.539 83.9127C129.369 85.0334 128.478 86.4126 127.937 87.9397C126.991 90.5894 127.035 93.4915 128.06 96.1117C128.859 98.0677 130.145 99.7869 131.796 101.106C132.836 101.94 133.994 102.615 135.233 103.108C135.66 103.267 135.991 103.385 136.218 103.448L136.554 103.557C136.554 103.557 136.436 103.535 136.209 103.471C135.874 103.381 135.543 103.274 135.219 103.149C133.964 102.677 132.791 102.012 131.742 101.178C130.063 99.8604 128.751 98.1328 127.933 96.1616C126.89 93.5167 126.837 90.5843 127.783 87.9034C128.324 86.3531 129.225 84.953 130.411 83.8174C131.714 82.5925 133.296 81.7042 135.02 81.2295C136.871 80.7129 138.833 80.7445 140.667 81.3203C141.615 81.6508 142.491 82.1576 143.251 82.814C144.042 83.4855 144.651 84.346 145.021 85.3155C145.395 86.3278 145.378 87.4426 144.976 88.4436C144.528 89.445 143.768 90.2747 142.81 90.809C141.848 91.3695 140.744 91.6377 139.632 91.5808C138.513 91.5026 137.426 91.1704 136.454 90.6092C134.448 89.4454 132.873 87.663 131.964 85.5289C131.021 83.3464 130.697 80.9462 131.029 78.5918C131.202 77.412 131.542 76.2626 132.037 75.1777C132.286 74.6431 132.571 74.1259 132.89 73.6296L133.417 72.9259C133.585 72.6853 133.803 72.4719 133.994 72.2631C134.789 71.4185 135.707 70.6991 136.718 70.1293C137.72 69.5804 138.788 69.1595 139.896 68.8762C142.056 68.3348 144.321 68.3676 146.465 68.9716C148.535 69.589 150.474 70.7195 151.695 72.4356C152.309 73.2806 152.642 74.2968 152.648 75.3412C152.67 76.369 152.283 77.3635 151.572 78.106C150.846 78.7879 149.89 79.1719 148.894 79.182C147.941 79.2036 146.999 78.9667 146.17 78.4965C145.373 78.0568 144.652 77.491 144.036 76.8212C143.428 76.1919 142.902 75.4888 142.47 74.7283C140.882 71.9801 140.451 68.7142 141.271 65.6483C141.634 64.3687 142.23 63.1668 143.028 62.1025C144.32 60.4002 146.044 59.0755 148.022 58.2662C149.261 57.7535 150.582 57.4646 151.922 57.4127C152.27 57.3898 152.618 57.3898 152.966 57.4127L153.257 57.449Z" fill="#263238"/>
<path d="M168.416 102.876H104.76V151.972H168.416V102.876Z" fill="#00A63E"/>
<path d="M104.76 102.876L116.519 113.845H179.094L168.416 102.876H104.76Z" fill="#00A63E"/>
<path d="M104.76 102.876L168.434 102.763H168.484L168.52 102.794L179.089 113.65L179.198 113.763L179.394 113.963H179.112L116.537 113.913H116.51L104.76 102.876L116.564 113.772H116.515L179.089 113.727L179.008 113.927L178.894 113.813L168.33 102.958L168.411 102.994L104.76 102.876Z" fill="#263238"/>
<path d="M123.883 125.518C123.538 125.53 123.212 125.677 122.975 125.928C122.737 126.178 122.608 126.512 122.614 126.857C122.62 127.202 122.762 127.531 123.008 127.773C123.254 128.014 123.586 128.15 123.931 128.15C124.276 128.15 124.607 128.014 124.853 127.773C125.099 127.531 125.241 127.202 125.247 126.857C125.253 126.512 125.124 126.178 124.887 125.928C124.649 125.677 124.323 125.53 123.978 125.518" fill="#263238"/>
<path d="M138.924 125.518C138.581 125.531 138.256 125.678 138.02 125.928C137.784 126.178 137.656 126.51 137.662 126.854C137.669 127.197 137.81 127.525 138.055 127.765C138.3 128.006 138.63 128.141 138.974 128.141C139.318 128.141 139.648 128.006 139.893 127.765C140.138 127.525 140.279 127.197 140.286 126.854C140.292 126.51 140.164 126.178 139.928 125.928C139.692 125.678 139.367 125.531 139.024 125.518" fill="#263238"/>
<path d="M139.01 137.266C138.748 136.263 138.321 135.311 137.748 134.447C137.111 133.523 136.292 132.739 135.342 132.141C134.196 131.38 132.859 130.957 131.484 130.919C130.109 130.881 128.751 131.231 127.565 131.927C126.585 132.474 125.725 133.212 125.036 134.097C124.415 134.929 123.938 135.859 123.624 136.849C123.628 136.775 123.64 136.702 123.66 136.631C123.704 136.426 123.76 136.225 123.828 136.027C124.077 135.298 124.44 134.613 124.904 133.998C125.589 133.071 126.459 132.298 127.46 131.728C128.677 131.001 130.075 130.636 131.492 130.675C132.908 130.713 134.285 131.154 135.46 131.945C136.426 132.567 137.252 133.383 137.884 134.343C138.316 134.983 138.642 135.688 138.851 136.431C138.907 136.633 138.951 136.837 138.983 137.044C138.999 137.117 139.008 137.192 139.01 137.266Z" fill="#263238"/>
<path opacity="0.5" d="M104.906 103.417L116.165 117.691H168.416V113.845H116.519L104.906 103.417Z" fill="black"/>
<path d="M155.863 151.863C155.799 151.863 155.745 143.323 155.745 132.795C155.745 122.266 155.799 113.727 155.863 113.727C155.926 113.727 155.985 122.262 155.985 132.795C155.985 143.327 155.931 151.863 155.863 151.863Z" fill="#263238"/>
<path d="M165.86 140.73H160.248V147.073H165.86V140.73Z" fill="#F5F5F5"/>
<path d="M104.76 102.876L91.6943 113.845H104.76V102.876Z" fill="#00A63E"/>
<g opacity="0.4">
<path d="M104.76 102.876L91.6943 113.845H104.76V102.876Z" fill="black"/>
</g>
<path d="M170.295 151.972H97.106V208.422H170.295V151.972Z" fill="#00A63E"/>
<path opacity="0.3" d="M170.295 151.972H97.106V208.422H170.295V151.972Z" fill="black"/>
<path d="M151.958 208.023C151.895 208.023 151.84 195.443 151.84 179.925C151.84 164.407 151.895 151.822 151.958 151.822C152.022 151.822 152.076 164.403 152.076 179.925C152.076 195.447 152.022 208.023 151.958 208.023Z" fill="#263238"/>
<path d="M164.089 195.574H158.478V201.917H164.089V195.574Z" fill="#F5F5F5"/>
<path d="M127.746 152.122H119.434V164.167H127.746V152.122Z" fill="#263238"/>
<path d="M127.746 196.21H119.434V208.255H127.746V196.21Z" fill="#263238"/>
<path d="M169.66 151.971H169.469H168.92L166.809 151.994L159.032 152.03L133.385 152.089L107.73 152.058L99.9571 152.021L97.846 151.999L99.9571 151.976L107.73 151.94L133.385 151.903L159.032 151.94L166.809 151.976L168.92 151.999H169.469L169.66 151.971Z" fill="#263238"/>
<path d="M44.2287 54.2398L36.2565 52.2786H36.3155C34.257 53.5879 31.8767 54.3028 29.4374 54.3443C27.9933 54.3508 26.5564 54.1412 25.1743 53.7223C22.7446 52.9421 20.589 51.4827 18.9622 49.5164C17.3355 47.5502 16.3057 45.1594 15.9945 42.6265C15.75 40.7109 15.93 38.765 16.5215 36.9267C17.1131 35.0884 18.1018 33.4028 19.4176 31.9893C20.1093 31.2296 20.8845 30.5503 21.7285 29.9645C22.1552 29.6966 22.582 29.4197 23.0269 29.1881L23.7034 28.8612L24.0393 28.6978L24.3935 28.5707C26.2165 27.864 28.172 27.565 30.1229 27.6945C32.7375 27.8642 35.2433 28.8041 37.3245 30.3958C39.4057 31.9874 40.9692 34.1595 41.818 36.6383C42.2895 38.0249 42.5378 39.4776 42.5535 40.9422C42.5648 43.3761 41.9034 45.7658 40.6421 47.8475V47.7749C42.8576 51.7746 43.9745 53.7949 44.2242 54.2398C43.9654 53.7858 42.8077 51.8019 40.515 47.843V47.8067V47.7703C41.731 45.7088 42.359 43.3536 42.331 40.9603C42.3099 39.5192 42.0586 38.0908 41.5864 36.7291C40.7469 34.301 39.2098 32.1745 37.1674 30.6159C35.1251 29.0573 32.6683 28.1358 30.1048 27.9669C28.1923 27.8422 26.2757 28.1366 24.4888 28.8295L24.1438 28.952L23.8123 29.1155L23.1495 29.4333C22.6955 29.6648 22.296 29.9327 21.8738 30.196C21.046 30.7662 20.2846 31.427 19.6038 32.1664C18.312 33.554 17.3411 35.2086 16.7598 37.013C16.1784 38.8175 16.0009 40.7277 16.2396 42.6084C16.6605 46.0539 18.4282 49.1927 21.1564 51.3388C22.3761 52.3052 23.7604 53.0435 25.2424 53.518C26.5996 53.9375 28.0123 54.1503 29.4329 54.149C31.8429 54.1232 34.1992 53.4336 36.2429 52.156H36.2701H36.32L44.2287 54.2398Z" fill="#263238"/>
<path d="M28.1481 35.095L28.5521 41.7688C28.5683 42.032 28.6801 42.2803 28.8666 42.4667C29.0531 42.6532 29.3013 42.7651 29.5646 42.7812C29.8415 42.7969 30.114 42.7058 30.3259 42.5268C30.5379 42.3478 30.6732 42.0944 30.7041 41.8187L31.4441 35.1313C31.457 35.0117 31.4443 34.8906 31.4069 34.7763C31.3694 34.6619 31.3081 34.5568 31.227 34.4679C31.1459 34.3791 31.0467 34.3085 30.9362 34.2608C30.8258 34.2132 30.7064 34.1895 30.5861 34.1915H28.9653C28.8516 34.1949 28.7397 34.2212 28.6364 34.269C28.5331 34.3167 28.4405 34.3847 28.3642 34.4691C28.2879 34.5535 28.2294 34.6524 28.1922 34.76C28.1551 34.8675 28.1401 34.9815 28.1481 35.095Z" fill="#00A63E"/>
<path d="M31.3261 46.5083C31.2245 46.8132 31.0348 47.0811 30.781 47.2782C30.5272 47.4753 30.2207 47.5927 29.9001 47.6156C29.5796 47.6386 29.2595 47.566 28.9802 47.407C28.7009 47.2481 28.475 47.0099 28.331 46.7226C28.1871 46.4353 28.1315 46.1118 28.1714 45.7929C28.2112 45.4741 28.3447 45.1742 28.5549 44.9311C28.7652 44.6881 29.0427 44.5128 29.3525 44.4275C29.6623 44.3422 29.9905 44.3506 30.2955 44.4517C30.4983 44.5189 30.6859 44.6255 30.8475 44.7652C31.0091 44.905 31.1415 45.0753 31.2372 45.2663C31.3329 45.4573 31.3901 45.6653 31.4053 45.8785C31.4206 46.0916 31.3936 46.3056 31.3261 46.5083Z" fill="#00A63E"/>
</svg>
