<svg fill="none" height="60" viewBox="0 0 60 60" width="60" xmlns="http://www.w3.org/2000/svg" xmlns:xlink="http://www.w3.org/1999/xlink"><clipPath id="a"><path d="m0 0h60v60h-60z"/></clipPath><g clip-path="url(#a)"><path d="m21.0408 1.16113c15.2483 0 21.4826 10.94477 19.5169 24.46487-1.9658 13.52-6.9755 20.795-11.4686 20.795-7.1609 0-.9716-15.1617-8.0483-15.1617s-.8874 15.1617-8.0483 15.1617c-4.4931 0-9.50286-7.275-11.46859-20.795-1.965731-13.5201 4.26854-24.46487 19.51689-24.46487z" fill="#c16a73"/><path d="m29.0891 43.6085c-.3776 0-.4457 0-.6552-.5579-.388-1.0331-.4934-2.753-.5954-4.4161-.1264-2.0623-.2571-4.1947-.9313-6.0019-1.007-2.6992-3.0904-4.1858-5.8664-4.1858s-4.8594 1.4866-5.8665 4.1858c-.6742 1.8072-.8049 3.9396-.9313 6.0019-.102 1.6631-.2074 3.383-.5954 4.4161-.2095.5579-.2776.5579-.6552.5579-.9399 0-2.5517-1.0347-4.25653-3.9388-1.41168-2.4047-3.32594-6.8635-4.42875-14.4484-.97017-6.6728.27209-12.4013 3.498-16.1301 2.93778-3.3958 7.39088-5.11757 13.23568-5.11757 5.8447 0 10.2978 1.72177 13.2356 5.11757 3.2259 3.7288 4.4682 9.4573 3.498 16.1301-1.1028 7.5849-3.0171 12.0437-4.4288 14.4484-1.7048 2.9041-3.3166 3.9388-4.2565 3.9388z" fill="#db7d8b"/><path d="m27.1254 1.16113h-5.3344l.0041.00958c14.6991.35636 20.6956 11.16049 18.7626 24.45529-1.9657 13.52-6.9755 20.795-11.4686 20.795h6.0846c4.4931 0 9.5028-7.275 11.4686-20.795 1.9657-13.5201-4.2686-24.46487-19.5169-24.46487z" fill="#6cacdd"/><path d="m21.0408 31.2593c-7.0766 0-.8875 15.1613-8.048 15.1617h6.0843c5.5709 0 3.0628-9.1753 5.006-13.2503-.5546-1.163-1.471-1.9114-3.0423-1.9114z" fill="#964551"/><path d="m21.0407 25.0472c1.4033 0 2.5408-2.893 2.5408-6.4617s-1.1375-6.4617-2.5408-6.4617c-1.4032 0-2.5407 2.893-2.5407 6.4617s1.1375 6.4617 2.5407 6.4617z" fill="#ef97a8"/><path d="m21.0408 21.1221c1.4009 0 2.5365-1.1356 2.5365-2.5365s-1.1356-2.5365-2.5365-2.5365-2.5365 1.1356-2.5365 2.5365 1.1356 2.5365 2.5365 2.5365z" fill="#fffff5"/><path d="m45.2651 31.2421s-2.9537-2.3293-5.8043-3.2948c0 0-5.0576 4.1379-5.6553 10.4369-.5977 6.2989 1.8289 7.0815 1.8289 7.0815z" fill="#91caed"/><path d="m45.2391 48.361c-1.493 2.543.798 4.1238 1.7777 4.1238 0-4.2914 2.2676-3.8121 3.7395-3.7793 1.4707.0328 2.7585-.0328 2.7585-.0328 0 4.7262-4.0464 5.0836-4.0464 5.0836s4.0464.3574 4.0464 5.0824c0 0-1.2878-.0644-2.7585-.0328-1.4719.0328-3.7395.5122-3.7395-3.7793-9.0738 1.2879-15.9387-10.4051-7.8469-19.5386 8.0918-9.1348 19.6172-3.3715 19.6172-3.3715s.9117 6.9327-5.8242 12.3211c-2.4527 1.9617-6.0691 1.1039-7.7238 3.9234z" fill="#afeeff"/><path d="m42.1041 51.2954c-1.2514-.7754-2.2911-1.9644-2.9643-3.46-1.5087-3.3517-.7104-7.2704 2.1353-10.4824 2.4792-2.7988 5.6243-4.2177 9.3481-4.2177 2.1528 0 4.0723.4752 5.3396.891-.2096 1.9346-1.1296 5.3135-4.7568 8.215-.5756.4603-1.4577.6868-2.4792.949-1.8456.4737-4.3731 1.1225-5.9134 3.7471-.8369 1.4255-1.076 2.956-.7093 4.358z" fill="#caf8ff"/><path d="m46.6513 39.4889c-.3649-.6883-1.0042-1.1911-1.7604-1.3783-1.5513-.3841-3.5613-.2073-2.6309 1.6579 1.2425 2.491 3.3492 5.2752 4.551 1.9314.261-.7259.2016-1.5294-.1597-2.211z" fill="#91caed"/><g fill="#5b5b5b"><path d="m23.4992 23.4121c1.0494-2.5549 1.0495-7.0979 0-9.6528-.5929-1.5079-1.4633-2.3384-2.4509-2.3384-2.5909.164-3.2401 4.647-3.244 7.1648.0001 1.8119.2816 3.526.793 4.8264 1.1763 3.1119 3.7255 3.1128 4.9019 0zm-2.4509-10.585c.5061 0 1.1912 1.0998 1.5656 2.9237-.9151-.5342-2.2162-.5342-3.1313 0 .3744-1.8239 1.0596-2.9237 1.5657-2.9237zm1.8333 5.7586c0 1.0109-.8224 1.8333-1.8333 1.8333-2.4322-.1007-2.4315-3.5663 0-3.6666 1.0109 0 1.8333.8224 1.8333 1.8333zm-3.399 2.8349c.9151.5342 2.2162.5342 3.1313 0-.3744 1.8239-1.0595 2.9237-1.5656 2.9237s-1.1913-1.0998-1.5657-2.9237z"/><path d="m59.4913 32.0242c-.0304-.2314-.1738-.4327-.3827-.537-.1226-.0614-3.0503-1.5059-7.0346-1.8118-1.9374-.1484-3.7839.0034-5.5165.4432 3.8637-15.7364-1.9501-29.661504-19.4248-29.660455.0002-.000043-5.3342-.000043-5.3342-.000043-.0321 0-.0638.002718-.095.007153-15.26208-.492796-23.12484 10.605045-20.867728 25.262245 1.203658 8.13 4.633438 20.8282 12.164128 21.397.0003-.0001 6.0844-.0002 6.0847-.0001 5.4891-.1046 4.3832-7.2538 5.0031-11.1631.63 3.8431-.4932 11.0632 5.0089 11.1631.0329-.0027 6.0928.0035 6.1213-.0014 1.1319 5.1874 6.0046 9.1053 11.129 8.6808.2368 3.1673 1.8142 3.9476 4.432 3.7055 1.4272-.0312 2.6953.0312 2.7079.0318.1914.0098.3805-.0599.5198-.1927.1396-.1328.2186-.3169.2186-.5095-.0552-2.9707-1.2893-4.249-2.6311-5.0828 1.3417-.8318 2.5761-2.1138 2.6312-5.0829-.0001-.1926-.0791-.3767-.2187-.5095-.1396-.1329-.3273-.203-.5199-.1927-.0126.0006-1.2814.0625-2.7078.0318-2.5192-.2273-4.1227.4555-4.4167 3.5176-.9473-.6132-1.195-1.6954-.5097-2.8031 1.4558-2.4842 5.2746-1.7671 7.5571-3.7303 4.4744-3.4581 6.5034-8.9544 6.0817-12.9628zm-33.4215 10.1686c-.1599-.9714-.249-2.1221-.3292-3.4291-.0099-.1615-.0199-.3236-.0301-.4857 1.1096-3.0573 5.6012-3.3222 8.5931-4.4726-.7459 1.6407-1.2293 3.7518-1.2729 5.7217-2.4068.5199-5.4733.8805-6.9609 2.6657zm-2.3923-10.7408c-.3272-.2808-.7044-.4995-1.1097-.6464.4126-1.6888 1.8215-2.9861 3.305-4.3513 2.1421-1.9714 4.5701-4.2057 4.3985-8.0665-.3151-7.0788-4.8592-10.24865-9.223-10.24865-4.364 0-8.9084 3.16895-9.223 10.24865-.1716 3.8608 2.2564 6.0951 4.3986 8.0665 1.4837 1.3654 2.8929 2.6628 3.3052 4.352-.625.2263-1.1537.6068-1.5832 1.1404-1.0645-2.053-3.0625-3.2686-5.007-4.4506-3.13398-1.9049-6.09422-3.7044-5.78969-8.869.24908-4.2245 1.89376-7.6742 4.75609-9.97629 4.9134-4.0762 13.7859-4.07636 18.6993.00006 2.8624 2.30203 4.507 5.75173 4.7561 9.97623.3045 5.1646-2.6557 6.9639-5.7897 8.869-2.0499 1.2461-4.159 2.5296-5.1712 4.7923-.2019-.3073-.4458-.5997-.7223-.8364zm-2.7608-.8939c-1.1994-4.93-8.0208-6.4478-7.6864-12.1079.378-11.88638 15.2593-11.88393 15.6361.0001.3345 5.6596-6.4871 7.1783-7.6865 12.1077-.0876-.0008-.1756-.0009-.2632.0001zm13.9972 12.9389c-.4849-1.2723-.5258-2.665-.4741-4.0121.1281-4.8294 2.8965-8.5778 5.1829-10.7343 1.5676.5928 3.2475 1.6453 4.2329 2.3303-4.7542 2.0904-8.8335 7.7064-8.9417 12.4161zm-4.8536-41.48273c14.9319 1.59336 18.4117 14.69823 15.0335 28.21693-.8383-.6049-2.4313-1.679-4.1616-2.4578 2.0314-10.3062-.183-21.57624-10.8719-25.75913zm-23.84287 5.69698c3.54669-4.35282 10.53337-6.38954 17.18557-5.75067 3.9813.32665 7.9006 1.58577 10.9403 4.21797 5.9327 5.13115 6.6538 13.74995 5.251 21.07705-.2-.0369-.4136.0195-.5712.1476-.1317.1077-2.0739 1.7227-3.7081 4.4463-3.0872 1.6031-7.3496 1.6052-9.8002 4.1331-.0801-.6549-.1884-1.2848-.343-1.868.0949-.0898.1663-.2066.1997-.3429 1.8203-6.2566 11.9406-5.0323 11.393-15.2275-.9614-19.215911-30.05703-19.216659-31.01913 0-.52719 10.0942 9.30343 8.9628 11.34073 15.0324-.2453.7248-.3989 1.5442-.5043 2.406-1.4147-1.5022-3.5824-2.1087-5.6978-2.6993-3.89067-1.0862-7.90804-2.2089-8.76067-8.5412-.84989-6.9576.59212-12.9828 4.0941-17.03085zm4.28847 26.92655c2.6918.7515 5.0222 1.4036 5.8802 3.6402-.0102.1621-.0202.3242-.0301.4857-.0836 1.3002-.1487 2.2976-.3292 3.4291-2.225-2.9015-9.41443-1.969-10.62809-4.5265-.84204-1.9802-1.557-4.2351-2.14962-6.7302 2.00712 2.2354 4.81074 3.0188 7.25681 3.7017zm-3.58157 6.1c-.07789-.1327-.15486-.268-.23134-.4048 2.75811 1.0316 8.39641 1.0646 8.76891 3.8543-.465.9689-1.1935 1.5052-2.3823 1.5284-2.1027.036-4.23757-1.734-6.15527-4.9779zm16.38677-7.5398c-.6229 1.541-.7484 3.585-.8699 5.566-.2656 4.3269-.624 6.9541-3.3566 6.9541h-2.9315c2.8838-3.3398.0703-13.4274 4.5637-13.7393 1.0742-.1091 2.0751.2692 2.5943 1.2192zm3.3236 10.9893c.283-2.0567 3.4805-2.6705 6.3966-3.2228.0309.7573.1391 1.61.3317 2.3165-.7419.8363-1.6007 1.6011-2.6272 2.0642-1.5388.7063-3.4087.4635-4.1011-1.1579zm6.2935 1.4458c.3565-.2787.6913-.5837 1.0109-.9068.2635.4619.5464.778.7958.9918h-1.9139c.0359-.0273.0715-.0569.1072-.085zm24.7829-9.4888c-.6097 2.344-1.8002 4.4382-3.5437 6.2516-3.2455 1.378-5.6227-1.0386-6.6803-2.7492-.9071-1.4297-1.3832-3.6308-.6898-4.9534.1707-.3488.0263-.7699-.3225-.9406-.3485-.1709-.7699-.0265-.9406.3224-.4744.9693-.5795 2.1573-.3648 3.3801-.9574-.2255-2.2737-.4492-3.2663.2663-.3102.2476-.957.9734-.2648 2.3609.8906 1.7856 2.2503 3.8599 3.7595 3.8598 1.0905.0037 1.7406-1.0367 2.0833-1.996 1.31 1.394 2.9732 2.1986 4.6003 2.2581-2.4424 1.4547-5.7554.8994-7.4416 3.8012-.7138 1.216-.7775 2.4608-.1796 3.505.6239 1.0897 1.7865 1.6776 2.5638 1.6776.3883 0 .7031-.3148.7031-.7031 0-1.3536.2352-2.2648.699-2.7084.5482-.5323 1.5336-.3849 2.3219-.368.786.0175 1.5147.0076 2.0331-.0056-.1428 1.3208-.6891 2.3178-1.6292 2.9695-.8508.5897-1.7324.6826-1.7377.6832-.3629.0321-.6412.336-.6412.7004s.2783.6683.6413.7004c.1301.0115 2.9997.3055 3.3663 3.6527-.5861-.0114-1.6065-.0313-2.4201.0088-.7207.0322-1.4659.0654-1.9345-.3826-.4637-.4435-.6989-1.3547-.6989-2.7082 0-.2037-.0884-.3975-.2422-.531-.1537-.1337-.3598-.1939-.5597-.1651-3.784.5356-7.4635-1.4137-9.3755-4.9691-3.6666-6.7493 1.1454-14.8859 7.8675-17.432 4.0995-1.662 9.6186-.7451 12.7064.6535.0257.6158.011 1.9324-.4125 3.5608zm-12.0502 3.0013c.2057.4965.459.9803.7513 1.4355-.3506 1.4784-.7779 1.9265-.9848 1.953-.3631.0471-1.3683-.749-2.5307-3.0795-.0434-.0867-.2525-.5254-.1164-.634.5109-.3914 2.3168-.0496 2.8806.325z"/><path d="m38.0721 41.7011c-.8904.2724-.543 1.5681.3645 1.3582.3234-.0867.6571.1057.7438.4291.0597.2234.2327.4081.4511.4828.132.0441.2753.0496.4103.014.3237-.0865.657.1059.7439.4291.0993.3782.4965.598.8614.4968.375-.1007.5974-.4863.4968-.8614-.2329-.8673-1.0015-1.45-1.8543-1.489-.4606-.7188-1.3501-1.0924-2.2175-.8596z"/><path d="m39.8664 47.301c-.7048.6086.1362 1.654.8816 1.0957.2607-.2098.6437-.1684.8537.0924.2445.304.6881.3494.9886.1071.3025-.2434.3504-.686.107-.9885-.6959-.865-1.9657-1.0026-2.8309-.3067z"/><path d="m50.4318 32.4061c-.471.2217-.5328 1.0812-.138 1.9198.995 1.993 2.6075 1.2336 1.7055-.8029-.3947-.8386-1.0966-1.3386-1.5675-1.1169z"/></g></g></svg>