<svg fill="none" height="60" viewBox="0 0 60 60" width="60" xmlns="http://www.w3.org/2000/svg"><g clip-rule="evenodd" fill-rule="evenodd"><path d="m27.6112 17.3971c-.5717-9.919 1.5381-14.20502 2.2107-15.30166.0438-.07148.1159-.1118.1998-.1118.0838 0 .1559.04032.1997.1118.6728 1.09664 2.7824 5.38266 2.2107 15.30166l-2.3547 2.6149z" fill="#9acd68"/><path d="m24.2175 15.5072s-.4478-5.0901-3.4461-7.71658c-.0842-.07383-.1049-.19348-.0499-.29122.0548-.0975.1673-.14214.2741-.10875 2.7201.85348 9.026 3.68785 9.026 11.62275l5.8042-3.5062s.4567-5.1911 3.5357-7.79369c.0846-.07149.1079-.18879.0567-.287-.051-.09797-.1599-.14648-.2667-.11871-2.5183.65602-8.4525 2.9423-9.0765 10.0061-.035.3966-.0533 1.2721-.0533 1.6995z" fill="#afe269"/><path d="m35.826 20.2112s.8983-4.7798 5.7137-7.4571c.0992-.0551.1443-.17.109-.2777-.0353-.1075-.1391-.1735-.2514-.1596-2.8954.3588-9.8862 1.827-11.3755 7.6933l-5.8041.2011s-.8983-4.7798-5.7138-7.4571c-.0991-.0551-.1442-.17-.1089-.2777.0352-.1075.1391-.1735.2513-.1596 2.8955.3588 9.8863 1.827 11.3755 7.6933z" fill="#c6ea94"/><path d="m30.0218 18.5498c7.2056 0 13.1011 5.8955 13.1011 13.101v8.0393c0 7.2055-5.8955 13.101-13.101 13.101-7.2056 0-13.101-5.8955-13.101-13.101v-8.0393c-.0001-7.2055 5.8954-13.101 13.1009-13.101z" fill="#fdcd56"/><path d="m48.174 38.513c.1715-2.0901 1.332-4.0644 3.2857-5.1923 1.9536-1.1279 4.2437-1.1457 6.1395-.2494.2249.1064.3539.3297.3335.5778-.1715 2.0901-1.332 4.0644-3.2857 5.1923-1.9536 1.1279-4.2437 1.1458-6.1395.2494-.2249-.1064-.3538-.3298-.3335-.5778z" fill="#c6ea94"/><path d="m43.8154 38.9028c1.0903 0 2.1194.3168 3.0282.8781.1935.1196.4224.1196.6158 0 .9088-.5613 1.938-.8781 3.0282-.8781 3.6849 0 6.6722 3.6161 6.6722 8.0767s-2.9873 8.0767-6.6722 8.0767c-1.0902 0-2.1195-.3166-3.0282-.878-.1934-.1195-.4223-.1195-.6158 0-.9088.5614-1.9379.878-3.0282.878-3.685 0-6.6722-3.6161-6.6722-8.0767s2.9872-8.0767 6.6722-8.0767z" fill="#eb5463"/><path d="m3.85529 20.2627c-4.396756 8.9005-1.17996 19.8063 7.54001 24.8407 8.7199 5.0345 19.7729 2.3675 25.2826-5.8905.1865-.2795.2425-.5896.1663-.9169-.0764-.3272-.2643-.5805-.5553-.7485l-30.79685-17.7805c-.29098-.1679-.60422-.2041-.92578-.1066-.32168.0973-.56227.301-.71098.6023z" fill="#c6ea94"/><path d="m34.7533 36.6609c-4.4208 7.657-14.2096 10.2799-21.8668 5.8591-7.657-4.4207-10.27989-14.2095-5.85911-21.8667z" fill="#f76c82"/><path d="m7.43768 36.4573c-.94371.545-.39715 3.2583 1.22086 6.0607 1.61796 2.8025 3.69456 4.6325 4.63826 4.0877.9437-.5449.3972-3.2583-1.2208-6.0608-1.6179-2.8024-3.69461-4.6325-4.63832-4.0876zm-4.40824 16.4515c-.54481-.9437 1.28531-3.0204 4.08761-4.6384 2.80243-1.618 5.51575-2.1646 6.06075-1.2208.5449.9437-1.2852 3.0203-4.08766 4.6384-2.8023 1.6178-5.51578 2.1645-6.0607 1.2208z" fill="#9acd68"/><path d="m1.72355 43.8323c.30117-1.0526 3.2509-1.227 6.5884-.3894 3.33745.8375 5.79895 2.3698 5.49775 3.4223-.3012 1.0526-3.2509 1.227-6.58842.3894-3.3375-.8375-5.7989-2.3697-5.49773-3.4223z" fill="#afe269"/><path d="m49.074 54.6051-25.0729-12.8889c-4.3824-2.2528-9.5061.4176-10.777 5.161-1.2532 4.6771 1.9421 9.5264 6.7783 9.7624l28.1583 1.3744c.8798.0429 1.6702-.4671 1.8983-1.3181.228-.8511-.2015-1.6879-.985-2.0908z" fill="#fc9314"/><path d="m19.7371 33.4828c0 .4524-.3666.8203-.8199.8203-.4539 0-.8206-.3679-.8206-.8203 0-.4536.3667-.8202.8206-.8202.4533 0 .8199.3666.8199.8202zm8.6343 3.7581c0-.4534.3673-.8203.8205-.8203.4522 0 .8205.3669.8205.8203 0 .4523-.3683.8204-.8205.8204-.4532.0001-.8205-.3681-.8205-.8204zm-3.7331-.7078c0 .4536-.3673.8204-.8206.8204-.4527 0-.8205-.3668-.8205-.8204 0-.4524.3678-.8203.8205-.8203.4533.0001.8206.3679.8206.8203zm-8.9057-6.8495c0 .4523-.3678.8202-.82.8202-.4538 0-.8205-.3679-.8205-.8202 0-.4534.3667-.8203.8205-.8203.4523 0 .82.3669.82.8203zm-6.51561-3.2871c-.45329 0-.81997-.3668-.81997-.8204 0-.4524.36668-.8202.81997-.8202.45269 0 .82051.3678.82051.8202 0 .4536-.36782.8204-.82051.8204zm1.27441 5.3801c0 .4534-.3673.8203-.82055.8203-.45211 0-.81996-.3668-.81996-.8203 0-.4537.36785-.8205.81996-.8205.45325.0001.82055.3669.82055.8205zm4.8337 3.6985c0 .4534-.3666.8203-.8205.8203-.4533 0-.82-.3669-.82-.8203 0-.4523.3667-.8204.82-.8204.4539-.0001.8205.3681.8205.8204zm35.1409 18.8377c-.0446 0-.0876-.0024-.1323-.0034-.1604-.1336-.3363-.2532-.5311-.3529l-11.8221-6.0773c-.0242-.2729-.038-.5485-.038-.8237 0-4.0009 2.6247-7.2563 5.8507-7.2563 1.0046 0 1.9945.3223 2.8668.9327.2823.1982.6585.1982.9408 0 .4897-.3433 1.0113-.5941 1.5561-.7487.7676.2589 1.5623.3879 2.3569.3879.3573 0 .7146-.0271 1.0698-.0786 2.2432 1.0828 3.7349 3.7652 3.7349 6.763-.0001 4.0019-2.625 7.2573-5.8525 7.2573zm-.8366 2.2688c.1219-.4582-.1091-.9257-.5768-1.166l-9.0787-4.6676-.8167 3.048c-.0982.3668-.4301.6083-.7918.6083-.0706 0-.1418-.0095-.2134-.0282-.4372-.1172-.697-.5672-.579-1.0042l.9082-3.3914-13.8023-7.0946-1.7579 6.5601c-.0982.3668-.429.6082-.7918.6082-.0706 0-.1407-.0095-.2124-.0281-.4384-.1172-.6975-.5672-.58-1.0042l1.8412-6.8707c-1.6212-.641-3.3896-.5989-5.0477.1359-1.9918.8823-3.4592 2.6038-4.0271 4.7237-.5861 2.1879-.1808 4.459 1.1128 6.2333 1.1861 1.6266 2.9413 2.5758 4.943 2.673l7.9268.3879 1.2523-4.6746c.1174-.437.5674-.6963 1.0046-.5801.4378.1172.6971.5672.5801 1.0054l-1.1602 4.33 18.785.9176c.5238.0237.9589-.2646 1.0818-.7217zm-40.96988-5.3695c-2.7048 1.5611-4.58894 1.7202-4.97824 1.5233.0259-.4333 1.10508-1.9872 3.80871-3.5482.50403-.2906 1.01239-.5484 1.51536-.7712.61265.0845 1.20215.129 1.74465.129.198 0 .3916-.0048.5768-.0177.2691-.0164.5123-.0455.7334-.0843-.6458.8695-1.9173 1.9125-3.40068 2.7691zm-5.95441-7.2552c.32484-.2905 2.18531-.6244 5.20219.1829 3.0163.8086 4.4611 2.0297 4.5973 2.4422-.3248.2905-2.187.6248-5.20222-.1838-3.01629-.8077-4.46157-2.0287-4.59727-2.4413zm2.03426-23.5885 1.16519.6726c-2.57461 5.011-2.47148 11.0133.29883 15.9444-.11519.4688-.12797 1.0982.04301 1.9453.05625.2838.13348.5801.225.886-4.2068-5.4948-5.00578-13.1309-1.73203-19.4483zm15.79673 3.5671 3.2242 3.2227-1.4569 1.4565-3.4602-1.998c.45-.9738 1.0219-1.8726 1.6929-2.6812zm6.1424-4.0182c-1.8694.5356-3.591 1.5104-5.0136 2.8252l3.2557 3.2555 3.9195-3.9187zm-5.5529-6.2204c2.3976.606 5.3489 1.8199 7.0141 4.2363-1.207.1617-2.3828.4827-3.5015.9538-.4736-1.3159-1.4849-3.396-3.5126-5.1901zm1.608-4.80237c.9164 1.34647 1.484 2.88877 1.8341 4.23637 1.6091.7148 3.1944 1.7333 4.4053 3.185-.5216-2.7596-2.0243-4.9393-4.4864-6.49793-.5939-.37617-1.1906-.67969-1.753-.92344zm7.2667-5.30484c.5581 1.2866 1.3174 3.68285 1.5859 7.57601-.6176.7897-1.1673 1.7168-1.5859 2.7997-.418-1.0829-.9677-2.01-1.5865-2.7997.2697-3.89422 1.029-6.29187 1.5865-7.57601zm5.5138 6.22828c-2.4633 1.55863-3.9642 3.73833-4.4858 6.49793 1.2092-1.4518 2.7951-2.4702 4.4042-3.185.3512-1.3477.9188-2.8899 1.8335-4.23637-.5614.24375-1.1575.54727-1.7519.92344zm-.15 9.06313c-1.1029-.4616-2.2768-.7862-3.5005-.9502 1.6619-2.4072 4.6093-3.6211 7.0053-4.2293-2.0198 1.7907-3.0301 3.8648-3.5048 5.1795zm3.71 21.2721c.9154-.8848 2.0089-1.5187 3.2065-1.8118v-2.822l-2.1197-2.121-3.5032 3.5039 1.0676.6165c.1886.1076.3259.2871.3822.498.0562.2098.0269.4336-.0822.6224-.0562.0984-.1158.1932-.1743.2905zm-4.0602-2.3063c-1.4789 2.2992-3.463 4.1767-5.823 5.5136l1.4061.7231c2.2373-1.4156 4.1485-3.3224 5.5815-5.564zm-5.8197-5.2537-5.4183-3.1286 1.1448-1.1461zm4.7263-5.435-3.9202 3.9198-3.9196-3.9198 3.9196-3.9199zm1.1601-1.1602 3.2684-3.2682c-1.4062-1.3066-3.1184-2.2876-5.0158-2.823l-2.1726 2.1725zm-.3964 9.764-3.5236-3.5237 3.92-3.9199 3.9202 3.9199-3.8148 3.8144zm5.4767-4.6826-3.92-3.9211 3.2352-3.2355c1.2424 1.5069 2.134 3.3139 2.5465 5.2932zm2.1197.6479v1.4718l-.96-.9608.9518-.9517c.0044.1467.0082.2932.0082.4407zm-12.2803-12.2813c.471 0 .9353.0282 1.3923.0799l-1.3923 1.3932-1.3907-1.3911c.4582-.0538.9231-.082 1.3907-.082zm-20.19105 23.5735c1.01685.3692 1.92895.8111 2.64845 1.289.1296.0858.2482.1713.3607.2554-.2333-1.0066-.7478-2.2498-1.4497-3.4661-1.56109-2.7035-3.11335-3.7842-3.54847-3.8089-.1957.3893-.0375 2.2737 1.52473 4.9783.14777.2567.30492.5074.46429.7523zm14.71655-2.0577 2.8779 1.48c2.5371-1.2048 4.6568-3.0633 6.1864-5.4165l-26.26288-15.1628c-2.20465 4.3453-2.1859 9.5074.04688 13.8398 1.65433-.4289 3.9151 1.9747 5.4162 4.5749.3573.6199.6695 1.2447.9308 1.8539.344.184.6958.3563 1.0533.5133.7632-.7711 1.6697-1.4051 2.6915-1.8574 2.2933-1.0159 4.8658-.9526 7.0599.1748zm7.7387 3.9784 4.038 2.0754c.0072-2.127.6474-4.0806 1.7068-5.6075l-1.0797-1.0792c-1.2887 1.7859-2.8685 3.3481-4.6651 4.6113zm19.7775-11.0929c1.6201-.9353 3.5407-1.0325 5.2303-.2861-.1979 1.8362-1.2435 3.45-2.8642 4.3865-1.2948.7476-2.7808.9574-4.188.6315l3.4161-1.9711c.3909-.2272.5261-.7289.3-1.1214-.226-.3914-.729-.5263-1.1205-.3001l-3.4162 1.9723c.4219-1.3817 1.3466-2.564 2.6425-3.3116zm2.6044 5.8242c.1968-.0926.3909-.1935.5823-.3035 2.2697-1.3103 3.6598-3.6586 3.7172-6.2825.006-.3048-.1582-.5895-.4252-.736-2.3005-1.262-5.0302-1.2327-7.2987.0773-1.5478.8931-2.6859 2.2689-3.2721 3.8859v-3.3678c0-.4523-.3667-.8204-.8199-.8204-.4523 0-.8206.3681-.8206.8204v5.728c-.7626-.3209-1.5688-.4956-2.3883-.512v-6.4336c0-5.189-2.8536-9.7243-7.0748-12.1182.5436-1.6043 2.1003-4.8411 6.1165-6.5754.3606-.1573.5613-.5487.4742-.9329-.0866-.3845-.4335-.6539-.8283-.6397-.1946.0058-2.542.103-5.2419.9457.5646-1.6197 1.5682-3.55199 3.2943-4.54938.3396-.19558.4935-.60351.3667-.97383-.1252-.37136-.4969-.60117-.8846-.54949-.1113.015-2.7703.38321-5.453 2.06356-.5212.32695-1.0638.71836-1.5976 1.18254-.6396-5.89571-2.3728-8.11899-2.4521-8.21825-.156-.19476-.3915-.30726-.6402-.30726-.2482 0-.4842.1125-.6396.30715-.0795.09925-1.8142 2.32265-2.4527 8.21824-.5332-.46418-1.0758-.85559-1.597-1.18254-2.6838-1.68035-5.3417-2.04856-5.453-2.06356-.3893-.05168-.7593.17813-.8846.5495-.1268.37031.0265.77824.3651.97383 1.7275.99726 2.7307 2.92859 3.2959 4.54929-2.7004-.8427-5.0478-.9398-5.2436-.9457-.3948-.0165-.7417.2553-.8271.6398-.0866.3842.1125.7756.4748.9329 4.0232 1.7365 5.5772 4.9827 6.1182 6.5836-.3679.2098-.7273.4346-1.078.6785-2.0227 1.4074-3.6202 3.2952-4.6629 5.4973l-12.58245-7.2658c-.18855-.1077-.4125-.137-.62203-.0807-.21117.0562-.39047.1935-.49957.3819-2.39508 4.1497-3.206249 9.0223-2.28258 13.7204.70864 3.6035 2.39649 6.9177 4.8443 9.5848-2.48086-.3491-4.77539-.0668-5.16691 1.3945-.479184 1.7873 2.38711 3.4699 5.38136 4.3453-2.73398 1.622-5.18285 4.0547-4.2389 5.6895.24867.4312.77812.8767 1.90687.8767.33422 0 .71965-.0388 1.16731-.1291 1.23855-.2494 2.71464-.846 4.15664-1.678 1.10726-.6399 2.08826-1.3559 2.85696-2.0729.2315 1.309.7543 2.557 1.5539 3.6515 1.4833 2.0342 3.6819 3.2226 6.187 3.3455l28.3887 1.3853h.0016c.0469.0024.0948.0034.1429.0034 1.2341 0 2.2923-.7817 2.6027-1.9394.0998-.3704.1125-.7454.0507-1.1039 3.7569-.4745 6.6948-4.2598 6.6948-8.8464.0003-3.0003-1.2795-5.7576-3.3127-7.3841z" fill="#5b5b5b"/></g></svg>