<svg width="60" height="60" viewBox="0 0 60 60" fill="none" xmlns="http://www.w3.org/2000/svg">
<path fill-rule="evenodd" clip-rule="evenodd" d="M27.6112 17.3971C27.0395 7.4781 29.1493 3.19208 29.8219 2.09544C29.8657 2.02396 29.9378 1.98364 30.0217 1.98364C30.1055 1.98364 30.1776 2.02396 30.2214 2.09544C30.8942 3.19208 33.0038 7.4781 32.4321 17.3971L30.0774 20.012L27.6112 17.3971Z" fill="#9ACD68"/>
<path fill-rule="evenodd" clip-rule="evenodd" d="M24.2175 15.5072C24.2175 15.5072 23.7697 10.4171 20.7714 7.79062C20.6872 7.71679 20.6665 7.59714 20.7215 7.4994C20.7763 7.4019 20.8888 7.35726 20.9956 7.39065C23.7157 8.24413 30.0216 11.0785 30.0216 19.0134L35.8258 15.5072C35.8258 15.5072 36.2825 10.3161 39.3615 7.71351C39.4461 7.64202 39.4694 7.52472 39.4182 7.42651C39.3672 7.32854 39.2583 7.28003 39.1515 7.3078C36.6332 7.96382 30.699 10.2501 30.075 17.3139C30.04 17.7105 30.0217 18.586 30.0217 19.0134L24.2175 15.5072Z" fill="#AFE269"/>
<path fill-rule="evenodd" clip-rule="evenodd" d="M35.826 20.2112C35.826 20.2112 36.7243 15.4314 41.5397 12.7541C41.6389 12.699 41.684 12.5841 41.6487 12.4764C41.6134 12.3689 41.5096 12.3029 41.3973 12.3168C38.5019 12.6756 31.5111 14.1438 30.0218 20.0101L24.2177 20.2112C24.2177 20.2112 23.3194 15.4314 18.5039 12.7541C18.4048 12.699 18.3597 12.5841 18.395 12.4764C18.4302 12.3689 18.5341 12.3029 18.6463 12.3168C21.5418 12.6756 28.5326 14.1438 30.0218 20.0101L35.826 20.2112Z" fill="#C6EA94"/>
<path fill-rule="evenodd" clip-rule="evenodd" d="M30.0218 18.5498C37.2274 18.5498 43.1229 24.4453 43.1229 31.6508V39.6901C43.1229 46.8956 37.2274 52.7911 30.0219 52.7911C22.8163 52.7911 16.9209 46.8956 16.9209 39.6901V31.6508C16.9208 24.4453 22.8163 18.5498 30.0218 18.5498Z" fill="#FDCD56"/>
<path fill-rule="evenodd" clip-rule="evenodd" d="M48.174 38.513C48.3455 36.4229 49.506 34.4486 51.4597 33.3207C53.4133 32.1928 55.7034 32.175 57.5992 33.0713C57.8241 33.1777 57.9531 33.401 57.9327 33.6491C57.7612 35.7392 56.6007 37.7135 54.647 38.8414C52.6934 39.9693 50.4033 39.9872 48.5075 39.0908C48.2826 38.9844 48.1537 38.761 48.174 38.513Z" fill="#C6EA94"/>
<path fill-rule="evenodd" clip-rule="evenodd" d="M43.8154 38.9028C44.9057 38.9028 45.9348 39.2196 46.8436 39.7809C47.0371 39.9005 47.266 39.9005 47.4594 39.7809C48.3682 39.2196 49.3974 38.9028 50.4876 38.9028C54.1725 38.9028 57.1598 42.5189 57.1598 46.9795C57.1598 51.4401 54.1725 55.0562 50.4876 55.0562C49.3974 55.0562 48.3681 54.7396 47.4594 54.1782C47.266 54.0587 47.0371 54.0587 46.8436 54.1782C45.9348 54.7396 44.9057 55.0562 43.8154 55.0562C40.1304 55.0562 37.1432 51.4401 37.1432 46.9795C37.1432 42.5189 40.1304 38.9028 43.8154 38.9028Z" fill="#EB5463"/>
<path fill-rule="evenodd" clip-rule="evenodd" d="M3.85529 20.2627C-0.541466 29.1632 2.67533 40.069 11.3953 45.1034C20.1152 50.1379 31.1682 47.4709 36.6779 39.2129C36.8644 38.9334 36.9204 38.6233 36.8442 38.296C36.7678 37.9688 36.5799 37.7155 36.2889 37.5475L5.49205 19.767C5.20107 19.5991 4.88783 19.5629 4.56627 19.6604C4.24459 19.7577 4.004 19.9614 3.85529 20.2627Z" fill="#C6EA94"/>
<path fill-rule="evenodd" clip-rule="evenodd" d="M34.7533 36.6609C30.3325 44.3179 20.5437 46.9408 12.8865 42.52C5.2295 38.0993 2.60661 28.3105 7.02739 20.6533L34.7533 36.6609Z" fill="#F76C82"/>
<path fill-rule="evenodd" clip-rule="evenodd" d="M7.43768 36.4573C6.49397 37.0023 7.04053 39.7156 8.65854 42.518C10.2765 45.3205 12.3531 47.1505 13.2968 46.6057C14.2405 46.0608 13.694 43.3474 12.076 40.5449C10.4581 37.7425 8.38139 35.9124 7.43768 36.4573ZM3.02944 52.9088C2.48463 51.9651 4.31475 49.8884 7.11705 48.2704C9.91948 46.6524 12.6328 46.1058 13.1778 47.0496C13.7227 47.9933 11.8926 50.0699 9.09014 51.688C6.28784 53.3058 3.57436 53.8525 3.02944 52.9088Z" fill="#9ACD68"/>
<path fill-rule="evenodd" clip-rule="evenodd" d="M1.72355 43.8323C2.02472 42.7797 4.97445 42.6053 8.31195 43.4429C11.6494 44.2804 14.1109 45.8127 13.8097 46.8652C13.5085 47.9178 10.5588 48.0922 7.22128 47.2546C3.88378 46.4171 1.42238 44.8849 1.72355 43.8323Z" fill="#AFE269"/>
<path fill-rule="evenodd" clip-rule="evenodd" d="M49.074 54.6051L24.0011 41.7162C19.6187 39.4634 14.495 42.1338 13.2241 46.8772C11.9709 51.5543 15.1662 56.4036 20.0024 56.6396L48.1607 58.014C49.0405 58.0569 49.8309 57.5469 50.059 56.6959C50.287 55.8448 49.8575 55.008 49.074 54.6051Z" fill="#FC9314"/>
<path fill-rule="evenodd" clip-rule="evenodd" d="M19.7371 33.4828C19.7371 33.9352 19.3705 34.3031 18.9172 34.3031C18.4633 34.3031 18.0966 33.9352 18.0966 33.4828C18.0966 33.0292 18.4633 32.6626 18.9172 32.6626C19.3705 32.6626 19.7371 33.0292 19.7371 33.4828ZM28.3714 37.2409C28.3714 36.7875 28.7387 36.4206 29.1919 36.4206C29.6441 36.4206 30.0124 36.7875 30.0124 37.2409C30.0124 37.6932 29.6441 38.0613 29.1919 38.0613C28.7387 38.0614 28.3714 37.6932 28.3714 37.2409ZM24.6383 36.5331C24.6383 36.9867 24.271 37.3535 23.8177 37.3535C23.365 37.3535 22.9972 36.9867 22.9972 36.5331C22.9972 36.0807 23.365 35.7128 23.8177 35.7128C24.271 35.7129 24.6383 36.0807 24.6383 36.5331ZM15.7326 29.6836C15.7326 30.1359 15.3648 30.5038 14.9126 30.5038C14.4588 30.5038 14.0921 30.1359 14.0921 29.6836C14.0921 29.2302 14.4588 28.8633 14.9126 28.8633C15.3649 28.8633 15.7326 29.2302 15.7326 29.6836ZM9.21699 26.3965C8.7637 26.3965 8.39702 26.0297 8.39702 25.5761C8.39702 25.1237 8.7637 24.7559 9.21699 24.7559C9.66968 24.7559 10.0375 25.1237 10.0375 25.5761C10.0375 26.0297 9.66968 26.3965 9.21699 26.3965ZM10.4914 31.7766C10.4914 32.23 10.1241 32.5969 9.67085 32.5969C9.21874 32.5969 8.85089 32.2301 8.85089 31.7766C8.85089 31.3229 9.21874 30.9561 9.67085 30.9561C10.1241 30.9562 10.4914 31.323 10.4914 31.7766ZM15.3251 35.4751C15.3251 35.9285 14.9585 36.2954 14.5046 36.2954C14.0513 36.2954 13.6846 35.9285 13.6846 35.4751C13.6846 35.0228 14.0513 34.6547 14.5046 34.6547C14.9585 34.6546 15.3251 35.0228 15.3251 35.4751ZM50.466 54.3128C50.4214 54.3128 50.3784 54.3104 50.3337 54.3094C50.1733 54.1758 49.9974 54.0562 49.8026 53.9565L37.9805 47.8792C37.9563 47.6063 37.9425 47.3307 37.9425 47.0555C37.9425 43.0546 40.5672 39.7992 43.7932 39.7992C44.7978 39.7992 45.7877 40.1215 46.66 40.7319C46.9423 40.9301 47.3185 40.9301 47.6008 40.7319C48.0905 40.3886 48.6121 40.1378 49.1569 39.9832C49.9245 40.2421 50.7192 40.3711 51.5138 40.3711C51.8711 40.3711 52.2284 40.344 52.5836 40.2925C54.8268 41.3753 56.3185 44.0577 56.3185 47.0555C56.3184 51.0574 53.6935 54.3128 50.466 54.3128ZM49.6294 56.5816C49.7513 56.1234 49.5203 55.6559 49.0526 55.4156L39.9739 50.748L39.1572 53.796C39.059 54.1628 38.7271 54.4043 38.3654 54.4043C38.2948 54.4043 38.2236 54.3948 38.152 54.3761C37.7148 54.2589 37.455 53.8089 37.573 53.3719L38.4812 49.9805L24.6789 42.8859L22.921 49.446C22.8228 49.8128 22.492 50.0542 22.1292 50.0542C22.0586 50.0542 21.9885 50.0447 21.9168 50.0261C21.4784 49.9089 21.2193 49.4589 21.3368 49.0219L23.178 42.1512C21.5568 41.5102 19.7884 41.5523 18.1303 42.2871C16.1385 43.1694 14.6711 44.8909 14.1032 47.0108C13.5171 49.1987 13.9224 51.4698 15.216 53.2441C16.4021 54.8707 18.1573 55.8199 20.159 55.9171L28.0858 56.305L29.3381 51.6304C29.4555 51.1934 29.9055 50.9341 30.3427 51.0503C30.7805 51.1675 31.0398 51.6175 30.9228 52.0557L29.7626 56.3857L48.5476 57.3033C49.0714 57.327 49.5065 57.0387 49.6294 56.5816ZM8.65952 51.2121C5.95472 52.7732 4.07058 52.9323 3.68128 52.7354C3.70718 52.3021 4.78636 50.7482 7.48999 49.1872C7.99402 48.8966 8.50238 48.6388 9.00535 48.416C9.618 48.5005 10.2075 48.545 10.75 48.545C10.948 48.545 11.1416 48.5402 11.3268 48.5273C11.5959 48.5109 11.8391 48.4818 12.0602 48.443C11.4144 49.3125 10.1429 50.3555 8.65952 51.2121ZM2.70511 43.9569C3.02995 43.6664 4.89042 43.3325 7.9073 44.1398C10.9236 44.9484 12.3684 46.1695 12.5046 46.582C12.1798 46.8725 10.3176 47.2068 7.30238 46.3982C4.28609 45.5905 2.84081 44.3695 2.70511 43.9569ZM4.73937 20.3684L5.90456 21.041C3.32995 26.052 3.43308 32.0543 6.20339 36.9854C6.0882 37.4542 6.07542 38.0836 6.2464 38.9307C6.30265 39.2145 6.37988 39.5108 6.4714 39.8167C2.2646 34.3219 1.46562 26.6858 4.73937 20.3684ZM20.5361 23.9355L23.7603 27.1582L22.3034 28.6147L18.8432 26.6167C19.2932 25.6429 19.8651 24.7441 20.5361 23.9355ZM26.6785 19.9173C24.8091 20.4529 23.0875 21.4277 21.6649 22.7425L24.9206 25.998L28.8401 22.0793L26.6785 19.9173ZM21.1256 13.6969C23.5232 14.3029 26.4745 15.5168 28.1397 17.9332C26.9327 18.0949 25.7569 18.4159 24.6382 18.887C24.1646 17.5711 23.1533 15.491 21.1256 13.6969ZM22.7336 8.89453C23.65 10.241 24.2176 11.7833 24.5677 13.1309C26.1768 13.8457 27.7621 14.8642 28.973 16.3159C28.4514 13.5563 26.9487 11.3766 24.4866 9.81797C23.8927 9.4418 23.296 9.13828 22.7336 8.89453ZM30.0003 3.58969C30.5584 4.87629 31.3177 7.27254 31.5862 11.1657C30.9686 11.9554 30.4189 12.8825 30.0003 13.9654C29.5823 12.8825 29.0326 11.9554 28.4138 11.1657C28.6835 7.27148 29.4428 4.87383 30.0003 3.58969ZM35.5141 9.81797C33.0508 11.3766 31.5499 13.5563 31.0283 16.3159C32.2375 14.8641 33.8234 13.8457 35.4325 13.1309C35.7837 11.7832 36.3513 10.241 37.266 8.89453C36.7046 9.13828 36.1085 9.4418 35.5141 9.81797ZM35.3641 18.8811C34.2612 18.4195 33.0873 18.0949 31.8636 17.9309C33.5255 15.5237 36.4729 14.3098 38.8689 13.7016C36.8491 15.4923 35.8388 17.5664 35.3641 18.8811ZM39.0741 40.1532C39.9895 39.2684 41.083 38.6345 42.2806 38.3414V35.5194L40.1609 33.3984L36.6577 36.9023L37.7253 37.5188C37.9139 37.6264 38.0512 37.8059 38.1075 38.0168C38.1637 38.2266 38.1344 38.4504 38.0253 38.6392C37.9691 38.7376 37.9095 38.8324 37.851 38.9297L39.0741 40.1532ZM35.0139 37.8469C33.535 40.1461 31.5509 42.0236 29.1909 43.3605L30.597 44.0836C32.8343 42.668 34.7455 40.7612 36.1785 38.5196L35.0139 37.8469ZM29.1942 32.5932L23.7759 29.4646L24.9207 28.3185L29.1942 32.5932ZM33.9205 27.1582L30.0003 31.078L26.0807 27.1582L30.0003 23.2383L33.9205 27.1582ZM35.0806 25.998L38.349 22.7298C36.9428 21.4232 35.2306 20.4422 33.3332 19.9068L31.1606 22.0793L35.0806 25.998ZM34.6842 35.762L31.1606 32.2383L35.0806 28.3184L39.0008 32.2383L35.186 36.0527L34.6842 35.762ZM40.1609 31.0794L36.2409 27.1583L39.4761 23.9228C40.7185 25.4297 41.6101 27.2367 42.0226 29.216L40.1609 31.0794ZM42.2806 31.7273V33.1991L41.3206 32.2383L42.2724 31.2866C42.2768 31.4333 42.2806 31.5798 42.2806 31.7273ZM30.0003 19.446C30.4713 19.446 30.9356 19.4742 31.3926 19.5259L30.0003 20.9191L28.6096 19.528C29.0678 19.4742 29.5327 19.446 30.0003 19.446ZM9.80925 43.0195C10.8261 43.3887 11.7382 43.8306 12.4577 44.3085C12.5873 44.3943 12.7059 44.4798 12.8184 44.5639C12.5851 43.5573 12.0706 42.3141 11.3687 41.0978C9.80761 38.3943 8.25535 37.3136 7.82023 37.2889C7.62453 37.6782 7.78273 39.5626 9.34496 42.2672C9.49273 42.5239 9.64988 42.7746 9.80925 43.0195ZM24.5258 40.9618L27.4037 42.4418C29.9408 41.237 32.0605 39.3785 33.5901 37.0253L7.32722 21.8625C5.12257 26.2078 5.14132 31.3699 7.3741 35.7023C9.02843 35.2734 11.2892 37.677 12.7903 40.2772C13.1476 40.8971 13.4598 41.5219 13.7211 42.1311C14.0651 42.3151 14.4169 42.4874 14.7744 42.6444C15.5376 41.8733 16.4441 41.2393 17.4659 40.787C19.7592 39.7711 22.3317 39.8344 24.5258 40.9618ZM32.2645 44.9402L36.3025 47.0156C36.3097 44.8886 36.9499 42.935 38.0093 41.4081L36.9296 40.3289C35.6409 42.1148 34.0611 43.677 32.2645 44.9402ZM52.042 33.8473C53.6621 32.912 55.5827 32.8148 57.2723 33.5612C57.0744 35.3974 56.0288 37.0112 54.4081 37.9477C53.1133 38.6953 51.6273 38.9051 50.2201 38.5792L53.6362 36.6081C54.0271 36.3809 54.1623 35.8792 53.9362 35.4867C53.7102 35.0953 53.2072 34.9604 52.8157 35.1866L49.3995 37.1589C49.8214 35.7772 50.7461 34.5949 52.042 33.8473ZM54.6464 39.6715C54.8432 39.5789 55.0373 39.478 55.2287 39.368C57.4984 38.0577 58.8885 35.7094 58.9459 33.0855C58.9519 32.7807 58.7877 32.496 58.5207 32.3495C56.2202 31.0875 53.4905 31.1168 51.222 32.4268C49.6742 33.3199 48.5361 34.6957 47.9499 36.3127V32.9449C47.9499 32.4926 47.5832 32.1245 47.13 32.1245C46.6777 32.1245 46.3094 32.4926 46.3094 32.9449V38.6729C45.5468 38.352 44.7406 38.1773 43.9211 38.1609V31.7273C43.9211 26.5383 41.0675 22.003 36.8463 19.6091C37.3899 18.0048 38.9466 14.768 42.9628 13.0337C43.3234 12.8764 43.5241 12.485 43.437 12.1008C43.3504 11.7163 43.0035 11.4469 42.6087 11.4611C42.4141 11.4669 40.0667 11.5641 37.3668 12.4068C37.9314 10.7871 38.935 8.85481 40.6611 7.85742C41.0007 7.66184 41.1546 7.25391 41.0278 6.88359C40.9026 6.51223 40.5309 6.28242 40.1432 6.3341C40.0319 6.3491 37.3729 6.71731 34.6902 8.39766C34.169 8.72461 33.6264 9.11602 33.0926 9.5802C32.453 3.68449 30.7198 1.46121 30.6405 1.36195C30.4845 1.16719 30.249 1.05469 30.0003 1.05469C29.7521 1.05469 29.5161 1.16719 29.3607 1.36184C29.2812 1.46109 27.5465 3.68449 26.908 9.58008C26.3748 9.1159 25.8322 8.72449 25.311 8.39754C22.6272 6.71719 19.9693 6.34898 19.858 6.33398C19.4687 6.2823 19.0987 6.51211 18.9734 6.88348C18.8466 7.25379 18.9999 7.66172 19.3385 7.85731C21.066 8.85457 22.0692 10.7859 22.6344 12.4066C19.934 11.5639 17.5866 11.4668 17.3908 11.4609C16.996 11.4444 16.6491 11.7162 16.5637 12.1007C16.4771 12.4849 16.6762 12.8763 17.0385 13.0336C21.0617 14.7701 22.6157 18.0163 23.1567 19.6172C22.7888 19.827 22.4294 20.0518 22.0787 20.2957C20.056 21.7031 18.4585 23.5909 17.4158 25.793L4.83335 18.5272C4.6448 18.4195 4.42085 18.3902 4.21132 18.4465C4.00015 18.5027 3.82085 18.64 3.71175 18.8284C1.31667 22.9781 0.505501 27.8507 1.42917 32.5488C2.13781 36.1523 3.82566 39.4665 6.27347 42.1336C3.79261 41.7845 1.49808 42.0668 1.10656 43.5281C0.627376 45.3154 3.49367 46.998 6.48792 47.8734C3.75394 49.4954 1.30507 51.9281 2.24902 53.5629C2.49769 53.9941 3.02714 54.4396 4.15589 54.4396C4.49011 54.4396 4.87554 54.4008 5.3232 54.3105C6.56175 54.0611 8.03784 53.4645 9.47984 52.6325C10.5871 51.9926 11.5681 51.2766 12.3368 50.5596C12.5683 51.8686 13.0911 53.1166 13.8907 54.2111C15.374 56.2453 17.5726 57.4337 20.0777 57.5566L48.4664 58.9419H48.468C48.5149 58.9443 48.5628 58.9453 48.6109 58.9453C49.845 58.9453 50.9032 58.1636 51.2136 57.0059C51.3134 56.6355 51.3261 56.2605 51.2643 55.902C55.0212 55.4275 57.9591 51.6422 57.9591 47.0556C57.9594 44.0553 56.6796 41.298 54.6464 39.6715Z" fill="#5B5B5B"/>
</svg>
