<svg fill="none" height="60" viewBox="0 0 60 60" width="60" xmlns="http://www.w3.org/2000/svg" xmlns:xlink="http://www.w3.org/1999/xlink"><clipPath id="a"><path d="m0 0h60v60h-60z"/></clipPath><g clip-path="url(#a)"><path d="m45.4084 7.55763c-4.2773.00595-8.0887 1.99173-10.573 5.08807-.4014.5003-1.1645.5003-1.566 0-2.4838-3.09634-6.2952-5.08212-10.5725-5.08807-7.4652-.01053-13.5828 6.08227-13.59653 13.54797-.02609 14.0786 18.94233 27.8852 23.81973 31.2026.6839.4651 1.5812.4651 2.2651 0 4.8774-3.3174 23.8454-17.124 23.8197-31.2026-.0142-7.4652-6.1313-13.5585-13.5965-13.54797z" fill="#ff592a"/><path d="m23.6765 7.59521c.3433.38819.9142.44175 1.3202.16068-.433-.07507-.8739-.12817-1.3202-.16068z" fill="#f63511"/><path d="m46.4072 7.59326c1.8526 2.31583 2.9659 5.24594 2.9718 8.42514.0257 13.7792-18.1412 27.296-23.4874 30.9751 2.9929 2.4921 5.6085 4.3483 7.0285 5.3142.6839.4651 1.5811.4651 2.265 0 4.8775-3.3174 23.8454-17.1236 23.8198-31.2021-.0133-7.1297-5.5934-13.00697-12.5977-13.51234z" fill="#f63511"/><path d="m25.5277 30.7581c-.3864 0-.7274-.2526-.84-.6225l-2.6679-8.7635h-7.9907c-.4852 0-.8785-.3932-.8785-.8784 0-.4848.3933-.878.8785-.878h8.6412c.3868 0 .7278.2527.8405.6226l2.0169 6.6261 2.9461-9.6771c.1122-.3699.4537-.6226.84-.6226.3864 0 .7274.2527.84.6226l1.2749 4.188h7.7234c.4848 0 .878.3933.878.8785 0 .4848-.3932.878-.878.878h-8.3739c-.3863 0-.7278-.2527-.84-.6221l-.6244-2.0513-2.9461 9.6772c-.1122.3699-.4532.6225-.84.6225z" fill="#ffc5b2"/><path d="m7.53345 35.5618h24.79615v5.4345h-24.79615z" fill="#848489"/><path d="m27.2805 35.5618v1.3582c0 1.0075-.8171 1.8246-1.8247 1.8246h-17.92235v2.2517h24.79615v-5.4345z" fill="#5b5b5b"/><path d="m33.6755 46.6045h-1.9112c-.6473 0-1.1719-.5246-1.1719-1.1719v-14.22c0-.6472.5246-1.1718 1.1719-1.1718h1.9112c.6472 0 1.1718.5246 1.1718 1.1718v14.22c0 .6473-.5246 1.1719-1.1718 1.1719z" fill="#848489"/><path d="m37.9305 44.5044h-1.9112c-.6473 0-1.1719-.5246-1.1719-1.1719v-10.02c0-.6473.5246-1.1719 1.1719-1.1719h1.9112c.6472 0 1.1718.5246 1.1718 1.1719v10.02c0 .6473-.5246 1.1719-1.1718 1.1719z" fill="#848489"/><path d="m6.18811 30.0408h1.91117c.64728 0 1.17188.5246 1.17188 1.1718v14.22c0 .6473-.5246 1.1719-1.17188 1.1719h-1.91117c-.64728 0-1.17187-.5246-1.17187-1.1719v-14.22c0-.6472.52459-1.1718 1.17187-1.1718z" fill="#848489"/><path d="m1.93274 32.1406h1.91162c.64683 0 1.17188.5246 1.17188 1.1719v10.02c0 .6473-.52505 1.1719-1.17188 1.1719h-1.91162c-.64682 0-1.171876-.5246-1.171876-1.1719v-10.02c0-.6473.525056-1.1719 1.171876-1.1719z" fill="#848489"/><g fill="#5b5b5b"><path d="m33.6411 30.0408h-1.8104c.6665 0 1.2062.5401 1.2062 1.2062v14.1509c0 .6665-.5397 1.2066-1.2062 1.2066h1.8104c.6661 0 1.2063-.5401 1.2063-1.2066v-14.1509c0-.6661-.5402-1.2062-1.2063-1.2062z"/><path d="m37.896 32.1406h-1.8104c.6665 0 1.2066.5402 1.2066 1.2067v9.9509c0 .666-.5401 1.2062-1.2066 1.2062h1.8104c.6661 0 1.2062-.5402 1.2062-1.2062v-9.9509c0-.6665-.5401-1.2067-1.2062-1.2067z"/><path d="m8.06449 30.0408h-1.81046c.6665 0 1.20667.5401 1.20667 1.2062v14.1509c0 .6665-.54017 1.2066-1.20667 1.2066h1.81046c.6665 0 1.20666-.5401 1.20666-1.2066v-14.1509c0-.6661-.54016-1.2062-1.20666-1.2062z"/><path d="m3.80948 32.1406h-1.81046c.66651 0 1.20667.5402 1.20667 1.2067v9.9509c0 .666-.54016 1.2062-1.20667 1.2062h1.81046c.66605 0 1.20621-.5402 1.20621-1.2062v-9.9509c.00046-.6665-.5397-1.2067-1.20621-1.2067z"/><path d="m25.5277 30.7581c-.3864 0-.7274-.2526-.84-.6225l-2.6679-8.7635h-7.9907c-.4852 0-.8785-.3932-.8785-.8784 0-.4848.3933-.878.8785-.878h8.6412c.3868 0 .7278.2527.8405.6226l2.0169 6.6261 2.9461-9.6771c.1122-.3699.4537-.6226.84-.6226.3864 0 .7274.2527.84.6226l1.2749 4.188h7.7234c.4848 0 .878.3933.878.8785 0 .4848-.3932.878-.878.878h-8.3739c-.3863 0-.7278-.2527-.84-.6221l-.6244-2.0513-2.9461 9.6772c-.1122.3699-.4532.6225-.84.6225z"/><path d="m58.0303 14.0717c-.2385-.423-.7741-.5722-1.1966-.3337-.422.238-.5717.7736-.3332 1.1961 1.0597 1.8796 1.6223 4.0141 1.626 6.1729.0109 5.7555-3.2964 12.1583-9.8292 19.0302-5.3187 5.5948-11.2871 9.8676-13.6061 11.4446-.3877.2641-.889.2641-1.2771 0-2.0559-1.398-7.0533-4.9658-11.8932-9.7069h8.1935v3.5587c0 1.1297.9192 2.0489 2.049 2.0489h1.9129c1.1303 0 2.0495-.9192 2.0495-2.0489v-.0742c.0956.0137.1931.0233.2925.0233h1.913c1.1297 0 2.0489-.9191 2.0489-2.0489v-10.0223c0-1.1298-.9192-2.049-2.0489-2.049h-1.913c-.0994 0-.1969.0097-.2925.0239v-.0747c0-1.1297-.9192-2.0489-2.0495-2.0489h-1.9129c-1.1298 0-2.049.9192-2.049 2.0489v3.4722h-2.7686c-.4852 0-.8784.3932-.8784.878 0 .4852.3932.8784.8784.8784h2.7686v3.6786h-19.5653v-3.6786h12.8247c.4852 0 .8785-.3932.8785-.8784 0-.4848-.3933-.878-.8785-.878h-7.7367c-3.4968-4.8372-5.26608-9.4034-5.25829-13.5764.01281-6.991 5.70789-12.67137 12.69879-12.67137h.0179c3.8626.00503 7.4671 1.73997 9.8891 4.75937.3589.4477.894.704 1.468.704.5741 0 1.1092-.2568 1.4681-.704 2.422-3.0194 6.0264-4.75388 9.8891-4.75937h.0178c3.246 0 6.3396 1.23596 8.714 3.48177.352.3332.9082.3177 1.2415-.0343.3332-.3525.3177-.9083-.0348-1.2415-2.7017-2.55616-6.2238-3.96241-9.9207-3.96241-.0064 0-.0137 0-.0206 0-4.3968.00595-8.4997 1.98029-11.2564 5.41721-.0499.0618-.1465.0618-.1959 0-2.7567-3.43647-6.8596-5.4108-11.2565-5.41721-.0073 0-.0132 0-.0206 0-7.9573 0-14.44059 6.46681-14.45524 14.42461-.00778 4.2467 1.62964 8.8088 4.86974 13.5796h-2.943v-3.4726c0-1.1298-.9192-2.049-2.04896-2.049h-1.91345c-1.12977 0-2.04896.9192-2.04896 2.049v.0746c-.09567-.0137-.19317-.0234-.29251-.0234h-1.91345c-1.129767 0-2.048958.9192-2.048958 2.049v10.0218c0 1.1298.919191 2.049 2.048958 2.049h1.91345c.09934 0 .19684-.0096.29251-.0234v.0747c0 1.1297.91919 2.0489 2.04896 2.0489h1.91345c1.12976 0 2.04896-.9192 2.04896-2.0489v-3.5587h8.8939c5.3073 5.463 11.109 9.6126 13.3832 11.1594.4939.336 1.0602.504 1.626.504.5662 0 1.1325-.168 1.6264-.504 2.3662-1.6091 8.4558-5.9693 13.8913-11.6872 6.8546-7.2102 10.3244-14.0213 10.313-20.2433-.0046-2.4595-.6454-4.8912-1.8526-7.0321zm-22.012 18.9473h1.9134c.1612 0 .2925.1314.2925.2925v10.0218c0 .1616-.1313.293-.2925.293h-1.9134c-.1612 0-.2925-.1314-.2925-.293v-10.0218c0-.1611.1313-.2925.2925-.2925zm-4.5475-1.8077c0-.1612.131-.2925.2926-.2925h1.9129c.1616 0 .293.1313.293.2925v14.2223c0 .1611-.1314.2925-.293.2925h-1.9129c-.1616 0-.2926-.1314-.2926-.2925zm-23.07815 14.2223c0 .1616-.13138.2929-.29251.2929h-1.91345c-.16114 0-.29252-.1313-.29252-.2929v-6.9439c0-.4847-.39322-.878-.87845-.878-.48477 0-.87799.3933-.87799.878v4.8436c0 .1616-.13138.293-.29297.293h-1.91299c-.16114 0-.29252-.1314-.29252-.293v-10.0218c0-.1611.13138-.2925.29252-.2925h1.91345c.16113 0 .29251.1314.29251.2925v1.079c0 .4852.39322.8779.87845.8779.48477 0 .87799-.3927.87799-.8779v-3.1792c0-.1612.13138-.2925.29297-.2925h1.913c.16113 0 .29251.1313.29251.2925z"/></g></g></svg>