<svg fill="none" height="60" viewBox="0 0 60 60" width="60" xmlns="http://www.w3.org/2000/svg" xmlns:xlink="http://www.w3.org/1999/xlink"><clipPath id="a"><path d="m0 0h60v60h-60z"/></clipPath><g clip-path="url(#a)"><path d="m55.3674 26.1328h-21.6573l-.0434.0046.2906 5.1517 4.9219 14.0625-7.5888 6.4453h6.2096c.9704 0 1.8493-.3937 2.4856-1.03.3667-.3671.6528-.8144.8295-1.3138h12.0094z" fill="#ff637b"/><path d="m41.0156 42.4219c0-6.4865-5.2606-11.7188-11.7187-11.7188h-13.9623c-5.68815.8052-10.06116 5.6923-10.06116 11.6016 0 1.295 1.04873 2.3437 2.34375 2.3437h31.78341c.9371-.3067 1.615-1.1874 1.615-2.2265z" fill="#fed2a4"/><path d="m31.0547 16.0547c0 1.04.677 1.9198 1.6141 2.2265h23.8156c1.2936 0 2.3437-1.0501 2.3437-2.3437 0-1.04-.677-1.9199-1.614-2.2266-7.0313 0-19.0929 0-23.8157 0-1.2936 0-2.3437 1.0501-2.3437 2.3438z" fill="#766e6e"/><path d="m34.0709 25.0438.0434-.0046 21.3721.0009.7379-6.7589h-22.863z" fill="#e0f4ff"/><path d="m40.8151 49.4531-4.487 9.375h12.6682c1.1938 0 2.9004-.8976 3.0327-2.0846l.7956-7.2904z" fill="#e0f4ff"/><path d="m40.5469 1.17188h4.6875v12.42192h-4.6875z" fill="#fdbf00"/><path d="m38.6719 51.7969c-2.705 0-22.4552 0-31.31472 0-.93704.3067-1.61499 1.1874-1.61499 2.2265 0 2.5887 2.09884 4.6875 4.68751 4.6875h26.9375c2.0879-.4733 3.6484-2.3401 3.6484-4.5703 0-1.295-1.0487-2.3437-2.3437-2.3437z" fill="#fed2a4"/><path d="m26.9531 51.7969h-11.7187l5.8594-4.6875z" fill="#ff637b"/><path d="m35.7422 44.7656c-.9013 0-16.4223 0-24.5215 0l6.4014 5.121 3.4717-2.7772.7763.6212 2.3877-1.9103 5.083 4.0663z" fill="#fdbf00"/><path d="m6.98502 45.1973c-1.21628.5534-2.06314 1.7784-2.06314 3.2011 0 1.6301 1.10916 3.0002 2.61383 3.3984h7.69869z" fill="#ff637b"/><g fill="#5b5b5b"><path d="m16.4062 30.7031c0 .6473-.5245 1.1719-1.1718 1.1719s-1.1719-.5246-1.1719-1.1719.5246-1.1719 1.1719-1.1719 1.1718.5246 1.1718 1.1719z"/><path d="m32.8125 35.3906c0-.6468-.5251-1.1718-1.1719-1.1718s-1.1718.525-1.1718 1.1718.525 1.1719 1.1718 1.1719 1.1719-.5251 1.1719-1.1719z"/><path d="m28.125 40.0781c0-.6468-.5251-1.1719-1.1719-1.1719s-1.1719.5251-1.1719 1.1719.5251 1.1719 1.1719 1.1719 1.1719-.5251 1.1719-1.1719z"/><path d="m22.2656 35.3906c0-.6468-.525-1.1718-1.1718-1.1718-.6469 0-1.1719.525-1.1719 1.1718s.525 1.1719 1.1719 1.1719c.6468 0 1.1718-.5251 1.1718-1.1719z"/><path d="m15.2344 38.9062c-.6468 0-1.1719.5251-1.1719 1.1719s.5251 1.1719 1.1719 1.1719 1.1718-.5251 1.1718-1.1719-.525-1.1719-1.1718-1.1719z"/><path d="m10.5469 34.2188c-.64685 0-1.1719.525-1.1719 1.1718s.52505 1.1719 1.1719 1.1719c.6468 0 1.1719-.5251 1.1719-1.1719s-.5251-1.1718-1.1719-1.1718z"/><path d="m56.4844 12.4219h-10.0782v-11.25002c0-.647283-.5245-1.17188-1.1718-1.17188h-4.6875c-.6473 0-1.1719.524597-1.1719 1.17188v11.25002h-10.0781c-1.9423 0-3.5157 1.5733-3.5157 3.5156 0 1.6617 1.1591 3.0565 2.7105 3.4213l1.0675 10.1766c-.0875-.0014-.1749-.0042-.2623-.0042h-9.375c-.6473 0-1.1719.5246-1.1719 1.1719s.5246 1.1719 1.1719 1.1719h9.375c5.8827 0 10.5469 4.8065 10.5469 10.5469 0 .6468-.5251 1.1719-1.1719 1.1719-2.0517 0-33.44973 0-35.15628 0-.64636 0-1.17187-.5256-1.17187-1.1719 0-5.1599 3.67493-9.3727 8.44115-10.3372.6345-.1282 1.0446-.7467.9165-1.3807-.1287-.6344-.7471-1.0446-1.3811-.9164-5.81545 1.1769-10.3203 6.3126-10.3203 12.6343 0 1.073.483856 2.0352 1.2442 2.6802-.803374.8688-1.2442 1.9899-1.2442 3.1791 0 1.225.47287 2.3411 1.24466 3.1769-.803376.6826-1.24466 1.6516-1.24466 2.6825 0 3.2309 2.62848 5.8594 5.85938 5.8594h43.13692c1.6067 0 3.9811-1.1893 4.1977-3.1293.0499-.449 4.0869-37.4688 4.0915-37.5096 1.5275-.3548 2.7145-1.729 2.7145-3.4236 0-1.9386-1.577-3.5156-3.5156-3.5156zm-14.7656-10.07815h2.3437v10.07815h-2.3437zm12.6869 21.79685h-23.0558l-.4916-4.6875h24.0591zm-22.462 5.6635-.3479-3.3197h22.5544l-2.3767 21.7968h-9.586c0-1.2249-.4729-2.341-1.2447-3.1768.8034-.6826 1.2447-1.6516 1.2447-2.6825 0-6.1185-4.3442-11.3864-10.2438-12.6178zm-1.6498 20.8209 5.8594-4.6875h1.3467c1.2923 0 2.3438 1.0515 2.3438 2.3437 0 1.2864-1.0424 2.3438-2.3438 2.3438zm-25.6064 0c-1.29227 0-2.34375-1.0515-2.34375-2.3438 0-1.2945 1.04919-2.3437 2.34375-2.3437h1.34674l5.85936 4.6875zm27.7139-4.6875-5.4483 4.3584-3.9834-3.1865 1.4648-1.1719zm-17.167 4.3584-5.44833-4.3598h10.89663c-1.6768 1.3417-3.7761 3.0222-5.4483 4.3598zm5.8594-1.686 2.5186 2.0151h-5.0373zm-18.75005 5.5307c0-.6468.52505-1.1718 1.17187-1.1718h35.15628c.6463 0 1.1719.5255 1.1719 1.1718 0 1.9419-1.5738 3.5156-3.5157 3.5156-1.8251 0-28.64774 0-30.46872 0-1.93863 0-3.51563-1.5769-3.51563-3.5156zm46.65255 3.5156h-7.9811c.7603-1.0089 1.1723-2.2306 1.1723-3.5156 0-1.0734-.4843-2.0357-1.2451-2.6811.2348-.2541.4408-.5347.6143-.8345h9.9609l-.6536 5.9885c-.0445.4023-1.0726 1.0427-1.8677 1.0427zm7.4881-40.5468c-2.271 0-25.7149 0-27.1875 0-.6464 0-1.1719-.5255-1.1719-1.1719 0-.6468.5251-1.1719 1.1719-1.1719h27.1875c.6463 0 1.1718.5255 1.1718 1.1719 0 .6468-.525 1.1719-1.1718 1.1719z"/></g></g></svg>